<svg width="27" height="25" viewBox="0 0 27 25" fill="none" xmlns="http://www.w3.org/2000/svg">
<path d="M7.22141 12.0886C7.19569 12.5583 7.35709 13.0191 7.67029 13.3701C7.98348 13.7211 8.42297 13.9337 8.89257 13.9614C8.92701 13.9614 8.96285 13.9614 8.99517 13.9614C9.34205 13.9612 9.68126 13.8593 9.97088 13.6684C10.2605 13.4775 10.4878 13.2059 10.6248 12.8872C10.7618 12.5685 10.8024 12.2167 10.7416 11.8752C10.6808 11.5337 10.5213 11.2175 10.2828 10.9656C10.0442 10.7138 9.73714 10.5373 9.39943 10.4581C9.06173 10.3788 8.7082 10.4003 8.38254 10.5197C8.05688 10.6392 7.77336 10.8514 7.567 11.1303C7.36065 11.4091 7.2405 11.7423 7.22141 12.0886Z" fill="white"/>
<path d="M0.605557 11.6308C0.492335 11.6244 0.379772 11.6518 0.282099 11.7094C0.184426 11.767 0.106027 11.8523 0.0568147 11.9545C0.00760211 12.0566 -0.010215 12.1711 0.00561576 12.2834C0.0214465 12.3957 0.0702144 12.5007 0.145754 12.5853C0.221294 12.6699 0.320214 12.7302 0.430009 12.7585C0.539804 12.7869 0.655544 12.7821 0.762598 12.7447C0.869652 12.7073 0.963212 12.639 1.03145 12.5484C1.09969 12.4578 1.13955 12.3491 1.14598 12.2359C1.15034 12.1606 1.13982 12.0852 1.115 12.0141C1.09019 11.9429 1.05157 11.8774 1.00136 11.8211C0.95116 11.7649 0.890354 11.7192 0.822433 11.6865C0.754512 11.6538 0.680812 11.6349 0.605557 11.6308Z" fill="white"/>
<path d="M7.111 1.78758C7.21192 1.7362 7.29536 1.65608 7.35081 1.55734C7.40626 1.4586 7.43122 1.34565 7.42257 1.23273C7.41391 1.11982 7.37201 1.01199 7.30216 0.922858C7.23231 0.833722 7.13763 0.767264 7.03005 0.731863C6.92248 0.696463 6.80684 0.693705 6.6977 0.723938C6.58857 0.754171 6.49082 0.816041 6.4168 0.901746C6.34278 0.987452 6.29579 1.09316 6.28176 1.20553C6.26773 1.3179 6.28729 1.43191 6.33797 1.53319C6.37196 1.60071 6.41894 1.66086 6.47621 1.71019C6.53348 1.75953 6.59991 1.79709 6.67172 1.82072C6.74352 1.84435 6.81928 1.85359 6.89466 1.8479C6.97004 1.84222 7.04355 1.82172 7.111 1.78758Z" fill="white"/>
<path d="M8.91011 4.9265C9.06659 4.84761 9.19618 4.72409 9.28247 4.57156C9.36877 4.41903 9.4079 4.24435 9.39492 4.06958C9.38195 3.89482 9.31745 3.72782 9.20957 3.58971C9.1017 3.4516 8.9553 3.34857 8.78888 3.29366C8.62246 3.23874 8.44349 3.2344 8.2746 3.28118C8.10572 3.32797 7.95449 3.42378 7.84005 3.5565C7.72561 3.68921 7.65309 3.85288 7.63165 4.02682C7.61022 4.20075 7.64084 4.37713 7.71964 4.53366C7.8255 4.74353 8.01035 4.9028 8.23357 4.97646C8.45679 5.05012 8.70013 5.03215 8.91011 4.9265Z" fill="white"/>
<path d="M2.84955 7.08701C2.97036 7.16616 3.11193 7.2077 3.25635 7.20639C3.40078 7.20507 3.54157 7.16095 3.66092 7.07961C3.78026 6.99827 3.87281 6.88336 3.92684 6.74942C3.98087 6.61548 3.99397 6.46852 3.96447 6.32714C3.93498 6.18575 3.86421 6.05629 3.76113 5.95513C3.65805 5.85396 3.52728 5.78564 3.38536 5.75881C3.24345 5.73197 3.09676 5.74783 2.96386 5.80437C2.83096 5.86091 2.71781 5.95559 2.63872 6.07645C2.53272 6.23843 2.49539 6.43587 2.53492 6.62537C2.57446 6.81487 2.68763 6.98092 2.84955 7.08701Z" fill="white"/>
<path d="M3.92967 11.3149C3.75451 11.3049 3.58033 11.3471 3.42915 11.4361C3.27796 11.5251 3.15657 11.6569 3.08032 11.8149C3.00408 11.9729 2.97641 12.15 3.00081 12.3237C3.02521 12.4974 3.10059 12.66 3.21741 12.7909C3.33424 12.9218 3.48725 13.0151 3.6571 13.059C3.82696 13.1029 4.00602 13.0955 4.17163 13.0376C4.33725 12.9797 4.48198 12.874 4.58752 12.7339C4.69306 12.5937 4.75466 12.4254 4.76454 12.2503C4.77778 12.0156 4.69727 11.7852 4.54072 11.6098C4.38417 11.4344 4.16438 11.3283 3.92967 11.3149Z" fill="white"/>
<path d="M2.95251 17.268C2.82352 17.3329 2.71668 17.4347 2.64553 17.5604C2.57438 17.6861 2.5421 17.8301 2.55278 17.9741C2.56346 18.1181 2.61662 18.2558 2.70553 18.3696C2.79445 18.4834 2.91512 18.5683 3.05229 18.6135C3.18945 18.6588 3.33696 18.6623 3.47613 18.6237C3.61531 18.5851 3.73991 18.5061 3.83417 18.3966C3.92844 18.2872 3.98812 18.1523 4.00569 18.0089C4.02326 17.8655 3.99791 17.7202 3.93286 17.5912C3.88983 17.5055 3.83031 17.4292 3.75772 17.3665C3.68512 17.3039 3.60086 17.2561 3.50979 17.2261C3.41872 17.1961 3.32261 17.1843 3.22698 17.1915C3.13135 17.1987 3.03808 17.2247 2.95251 17.268Z" fill="white"/>
<path d="M6.39704 9.47894C6.56951 9.59205 6.77166 9.65147 6.97791 9.6497C7.18415 9.64793 7.38525 9.58504 7.55575 9.46898C7.72626 9.35293 7.85853 9.18892 7.93583 8.9977C8.01313 8.80648 8.03199 8.59663 7.99003 8.39469C7.94807 8.19274 7.84717 8.00778 7.70009 7.86318C7.55301 7.71858 7.36635 7.62084 7.16373 7.58232C6.9611 7.54379 6.7516 7.56622 6.56172 7.64676C6.37184 7.72729 6.2101 7.86233 6.09696 8.03478C6.02173 8.14928 5.96982 8.27748 5.94419 8.41206C5.91855 8.54663 5.91971 8.68494 5.94758 8.81908C5.97545 8.95321 6.02949 9.08053 6.10661 9.19375C6.18374 9.30698 6.28243 9.40389 6.39704 9.47894Z" fill="white"/>
<path d="M17.3185 4.85637C17.4652 4.95262 17.6371 5.00321 17.8125 5.00175C17.9879 5.00028 18.159 4.94683 18.304 4.84815C18.4491 4.74946 18.5616 4.60998 18.6273 4.44735C18.6931 4.28472 18.7091 4.10623 18.6735 3.93448C18.6378 3.76272 18.5519 3.60541 18.4268 3.48243C18.3017 3.35945 18.143 3.27634 17.9706 3.24361C17.7983 3.21087 17.6201 3.22998 17.4586 3.29852C17.2971 3.36706 17.1596 3.48195 17.0634 3.62866C16.9995 3.726 16.9554 3.83499 16.9336 3.94939C16.9118 4.06379 16.9128 4.18137 16.9365 4.29539C16.9602 4.40941 17.0061 4.51764 17.0717 4.6139C17.1372 4.71016 17.2211 4.79255 17.3185 4.85637Z" fill="white"/>
<path d="M19.1383 1.72562C19.2332 1.78771 19.3443 1.82028 19.4577 1.81923C19.571 1.81818 19.6815 1.78355 19.7752 1.71972C19.8689 1.65589 19.9416 1.56572 19.9841 1.46061C20.0265 1.35549 20.0369 1.24015 20.0138 1.12915C19.9908 1.01815 19.9353 0.916483 19.8545 0.836985C19.7737 0.757487 19.6711 0.703729 19.5597 0.682504C19.4484 0.661278 19.3332 0.673538 19.2288 0.717734C19.1244 0.76193 19.0354 0.836079 18.9732 0.930811C18.9318 0.993819 18.9032 1.06438 18.889 1.13845C18.8749 1.21252 18.8756 1.28864 18.8909 1.36247C18.9062 1.4363 18.936 1.50637 18.9784 1.56869C19.0209 1.631 19.0752 1.68433 19.1383 1.72562Z" fill="white"/>
<path d="M17.4574 10.3945C17.2247 10.3812 16.9918 10.4139 16.7717 10.4907C16.5517 10.5675 16.349 10.6869 16.1751 10.8421C16.0012 10.9972 15.8596 11.1851 15.7584 11.395C15.6571 11.6048 15.5981 11.8326 15.5849 12.0653C15.5717 12.2979 15.6044 12.5309 15.6812 12.7509C15.758 12.9709 15.8773 13.1737 16.0325 13.3475C16.1876 13.5214 16.3755 13.663 16.5854 13.7643C16.7953 13.8656 17.023 13.9245 17.2557 13.9377C17.2901 13.9377 17.326 13.9377 17.3576 13.9377C17.8196 13.9377 18.2633 13.7576 18.5945 13.4355C18.9258 13.1135 19.1183 12.675 19.1313 12.2132C19.1443 11.7514 18.9767 11.3028 18.6641 10.9626C18.3515 10.6225 17.9186 10.4177 17.4574 10.3917V10.3945Z" fill="white"/>
<path d="M9.49458 9.35663C9.64194 9.65051 9.86843 9.89739 10.1485 10.0695C10.4287 10.2416 10.7513 10.332 11.08 10.3306C11.383 10.3306 11.6809 10.253 11.9453 10.1052C12.2098 9.95737 12.432 9.74432 12.5908 9.48632C12.7496 9.22832 12.8397 8.93396 12.8525 8.63128C12.8653 8.32859 12.8004 8.02767 12.664 7.75717C12.4522 7.33688 12.0821 7.01795 11.6351 6.87054C11.1881 6.72313 10.7009 6.75932 10.2806 6.97114C9.86032 7.18296 9.54139 7.55307 9.39398 8.00004C9.24657 8.44701 9.28275 8.93424 9.49458 9.35453V9.35663Z" fill="white"/>
<path d="M23.4012 7.08302C23.5298 7.01759 23.6361 6.91556 23.7067 6.78979C23.7773 6.66403 23.8091 6.52017 23.798 6.37636C23.787 6.23256 23.7336 6.09524 23.6446 5.98175C23.5556 5.86825 23.435 5.78366 23.2979 5.73863C23.1609 5.69361 23.0136 5.69018 22.8746 5.72877C22.7357 5.76736 22.6112 5.84625 22.517 5.95547C22.4229 6.0647 22.3631 6.19938 22.3454 6.34252C22.3276 6.48565 22.3527 6.63084 22.4174 6.75975C22.4606 6.84571 22.5204 6.92228 22.5933 6.98508C22.6662 7.04788 22.7508 7.09567 22.8422 7.12571C22.9336 7.15574 23.03 7.16743 23.126 7.1601C23.2219 7.15278 23.3155 7.12658 23.4012 7.08302Z" fill="white"/>
<path d="M18.9052 7.64789C18.7211 7.74076 18.5687 7.88614 18.4672 8.06564C18.3656 8.24514 18.3196 8.4507 18.3349 8.65635C18.3502 8.862 18.4261 9.0585 18.5531 9.22102C18.68 9.38353 18.8523 9.50476 19.0481 9.56938C19.2439 9.63401 19.4545 9.63912 19.6533 9.58408C19.852 9.52904 20.03 9.41631 20.1647 9.26015C20.2993 9.10399 20.3847 8.91141 20.41 8.70674C20.4352 8.50207 20.3992 8.29452 20.3065 8.1103C20.1819 7.86333 19.9643 7.67592 19.7016 7.58922C19.4388 7.50252 19.1524 7.52362 18.9052 7.64789Z" fill="white"/>
<path d="M13.1112 1.45918C13.2553 1.46725 13.3985 1.43246 13.5228 1.35921C13.6471 1.28595 13.7469 1.17752 13.8096 1.04759C13.8724 0.917659 13.8952 0.77206 13.8752 0.629169C13.8553 0.486279 13.7934 0.352504 13.6975 0.24473C13.6016 0.136956 13.4759 0.0600136 13.3363 0.0236164C13.1967 -0.0127808 13.0494 -0.0070017 12.9131 0.0402242C12.7767 0.0874502 12.6575 0.174006 12.5703 0.288965C12.4831 0.403925 12.4319 0.542135 12.4232 0.68615C12.4174 0.782149 12.4305 0.878365 12.4619 0.969262C12.4934 1.06016 12.5425 1.14394 12.6064 1.21579C12.6704 1.28763 12.7479 1.34612 12.8345 1.38789C12.9212 1.42967 13.0152 1.45389 13.1112 1.45918Z" fill="white"/>
<path d="M13.0988 6.05245C13.3047 6.06379 13.5093 6.01385 13.6868 5.90894C13.8643 5.80403 14.0067 5.64886 14.0961 5.46304C14.1854 5.27722 14.2177 5.06908 14.1888 4.86494C14.1599 4.66079 14.0711 4.46979 13.9337 4.31608C13.7962 4.16236 13.6163 4.05283 13.4167 4.00133C13.217 3.94982 13.0066 3.95865 12.812 4.0267C12.6173 4.09475 12.4473 4.21896 12.3232 4.38364C12.1991 4.54833 12.1267 4.74609 12.115 4.95194C12.1072 5.08883 12.1265 5.22591 12.1717 5.35534C12.217 5.48477 12.2873 5.604 12.3787 5.70622C12.4701 5.80844 12.5807 5.89163 12.7043 5.95104C12.8278 6.01045 12.9619 6.04491 13.0988 6.05245Z" fill="white"/>
<path d="M7.44951 16.7023C7.63372 16.6096 7.78629 16.4642 7.88792 16.2847C7.98954 16.1053 8.03566 15.8997 8.02044 15.694C8.00523 15.4883 7.92936 15.2917 7.80243 15.1291C7.6755 14.9666 7.50321 14.8453 7.30735 14.7806C7.11149 14.7159 6.90085 14.7108 6.70207 14.7659C6.50329 14.8209 6.3253 14.9336 6.1906 15.0898C6.0559 15.246 5.97055 15.4387 5.94533 15.6434C5.92011 15.8481 5.95615 16.0557 6.04891 16.2399C6.17345 16.4868 6.39091 16.6742 6.65353 16.7609C6.91614 16.8476 7.20243 16.8266 7.44951 16.7023Z" fill="white"/>
<path d="M13.7737 7.57528C13.5578 7.9052 13.4581 8.29768 13.4903 8.69065C13.5225 9.08361 13.6849 9.4546 13.9516 9.74494C14.2184 10.0353 14.5744 10.2284 14.9632 10.2937C15.3521 10.3589 15.7516 10.2927 16.0985 10.1054C16.4455 9.91817 16.7201 9.62055 16.8789 9.25967C17.0378 8.89879 17.0717 8.49526 16.9754 8.11291C16.8791 7.73057 16.6581 7.39126 16.3473 7.14866C16.0365 6.90605 15.6536 6.77402 15.2593 6.77344C14.9646 6.77338 14.6745 6.84664 14.4152 6.98662C14.1558 7.1266 13.9354 7.32889 13.7737 7.57528Z" fill="white"/>
<path d="M16.8607 14.9935C16.7028 14.6798 16.4554 14.42 16.1498 14.247C15.8442 14.074 15.4942 13.9955 15.144 14.0215C14.7938 14.0474 14.4591 14.1767 14.1824 14.3928C13.9056 14.609 13.6992 14.9024 13.5893 15.2359C13.4793 15.5694 13.4707 15.9281 13.5646 16.2664C13.6585 16.6048 13.8507 16.9077 14.1168 17.1369C14.3829 17.366 14.711 17.5111 15.0596 17.5538C15.4081 17.5964 15.7615 17.5347 16.075 17.3765C16.284 17.2726 16.4703 17.1283 16.6231 16.9519C16.7759 16.7755 16.8922 16.5706 16.9652 16.349C17.0383 16.1273 17.0667 15.8934 17.0488 15.6607C17.0308 15.4281 16.9669 15.2013 16.8607 14.9935Z" fill="white"/>
<path d="M19.9585 14.871C19.7861 14.7579 19.5839 14.6985 19.3777 14.7002C19.1714 14.702 18.9703 14.7649 18.7998 14.881C18.6293 14.997 18.4971 15.161 18.4198 15.3522C18.3425 15.5435 18.3236 15.7533 18.3656 15.9552C18.4075 16.1572 18.5084 16.3422 18.6555 16.4868C18.8026 16.6314 18.9892 16.7291 19.1919 16.7676C19.3945 16.8061 19.604 16.7837 19.7939 16.7032C19.9837 16.6226 20.1455 16.4876 20.2586 16.3152C20.3338 16.2006 20.3856 16.0724 20.4112 15.9379C20.4368 15.8033 20.4356 15.665 20.4077 15.5309C20.3799 15.3968 20.3259 15.2695 20.2488 15.1563C20.1717 15.043 20.0731 14.9461 19.9585 14.871Z" fill="white"/>
<path d="M23.3583 12.206C23.3683 12.0309 23.3261 11.8567 23.2371 11.7055C23.1481 11.5543 23.0163 11.4329 22.8583 11.3567C22.7003 11.2804 22.5232 11.2528 22.3495 11.2772C22.1757 11.3016 22.0131 11.377 21.8822 11.4938C21.7514 11.6106 21.6581 11.7636 21.6142 11.9335C21.5703 12.1033 21.5777 12.2824 21.6356 12.448C21.6935 12.6136 21.7991 12.7583 21.9393 12.8639C22.0794 12.9694 22.2477 13.031 22.4229 13.0409C22.6576 13.0541 22.888 12.9736 23.0634 12.8171C23.2388 12.6605 23.3448 12.4407 23.3583 12.206Z" fill="white"/>
<path d="M25.8126 11.5756C25.6994 11.5693 25.5868 11.5966 25.4891 11.6542C25.3915 11.7118 25.3131 11.7971 25.2638 11.8993C25.2146 12.0015 25.1968 12.1159 25.2126 12.2282C25.2285 12.3405 25.2772 12.4456 25.3528 12.5301C25.4283 12.6147 25.5272 12.675 25.637 12.7034C25.7468 12.7317 25.8626 12.7269 25.9696 12.6895C26.0767 12.6521 26.1702 12.5838 26.2385 12.4932C26.3067 12.4027 26.3466 12.2939 26.353 12.1807C26.3614 12.0288 26.3093 11.8798 26.208 11.7664C26.1066 11.6529 25.9644 11.5843 25.8126 11.5756Z" fill="white"/>
<path d="M23.5011 17.2647C23.3803 17.1856 23.2387 17.1442 23.0943 17.1455C22.95 17.1469 22.8092 17.1911 22.6899 17.2724C22.5706 17.3537 22.4781 17.4686 22.4241 17.6025C22.3701 17.7364 22.357 17.8833 22.3865 18.0247C22.4159 18.166 22.4866 18.2955 22.5897 18.3966C22.6927 18.4978 22.8234 18.5662 22.9653 18.5931C23.1071 18.6199 23.2538 18.6042 23.3867 18.5477C23.5196 18.4913 23.6328 18.3967 23.7119 18.276C23.7645 18.1957 23.8008 18.1059 23.8186 18.0117C23.8365 17.9174 23.8356 17.8206 23.8161 17.7267C23.7965 17.6327 23.7586 17.5436 23.7045 17.4643C23.6505 17.3851 23.5814 17.3172 23.5011 17.2647Z" fill="white"/>
<path d="M7.21252 22.6244C7.11773 22.5622 7.0066 22.5294 6.89318 22.5303C6.77976 22.5312 6.66916 22.5657 6.57535 22.6294C6.48154 22.6932 6.40875 22.7833 6.36617 22.8884C6.32359 22.9936 6.31313 23.1089 6.33613 23.22C6.35913 23.3311 6.41455 23.4328 6.49537 23.5124C6.5762 23.5919 6.67881 23.6458 6.79022 23.667C6.90163 23.6883 7.01684 23.676 7.12128 23.6318C7.22572 23.5875 7.3147 23.5133 7.37697 23.4185C7.46028 23.2914 7.48975 23.1364 7.45892 22.9875C7.42809 22.8386 7.33948 22.7081 7.21252 22.6244Z" fill="white"/>
<path d="M19.2429 22.5634C19.142 22.6148 19.0586 22.6949 19.0031 22.7937C18.9477 22.8924 18.9227 23.0053 18.9314 23.1183C18.94 23.2312 18.9819 23.339 19.0518 23.4281C19.1216 23.5173 19.2163 23.5837 19.3239 23.6191C19.4315 23.6545 19.5471 23.6573 19.6562 23.6271C19.7654 23.5968 19.8631 23.535 19.9371 23.4492C20.0112 23.3635 20.0581 23.2578 20.0722 23.1455C20.0862 23.0331 20.0666 22.9191 20.016 22.8178C19.9821 22.7502 19.9352 22.6899 19.878 22.6404C19.8207 22.591 19.7543 22.5534 19.6824 22.5297C19.6105 22.5061 19.5347 22.4969 19.4593 22.5027C19.3839 22.5084 19.3103 22.5291 19.2429 22.5634Z" fill="white"/>
<path d="M12.5789 16.7764C12.7954 16.4461 12.8955 16.0531 12.8634 15.6596C12.8313 15.266 12.6689 14.8944 12.4018 14.6036C12.1347 14.3128 11.7783 14.1193 11.3889 14.0538C10.9995 13.9884 10.5994 14.0547 10.252 14.2422C9.90449 14.4298 9.6295 14.7278 9.47051 15.0893C9.31153 15.4507 9.27763 15.8548 9.37419 16.2377C9.47075 16.6205 9.69225 16.9603 10.0036 17.2031C10.315 17.4459 10.6985 17.5779 11.0933 17.5782C11.3882 17.5794 11.6787 17.5066 11.9383 17.3666C12.1978 17.2265 12.4181 17.0236 12.5789 16.7764Z" fill="white"/>
<path d="M9.02973 19.4965C8.88307 19.4002 8.71115 19.3496 8.53573 19.3511C8.36031 19.3526 8.18927 19.406 8.04423 19.5047C7.89919 19.6034 7.78668 19.7429 7.72092 19.9055C7.65516 20.0681 7.63911 20.2466 7.6748 20.4184C7.71049 20.5901 7.79631 20.7474 7.92141 20.8704C8.04652 20.9934 8.20528 21.0765 8.37763 21.1092C8.54997 21.142 8.72816 21.1229 8.88964 21.0543C9.05112 20.9858 9.18865 20.8709 9.28483 20.7242C9.41375 20.5275 9.4593 20.2877 9.41146 20.0575C9.36363 19.8273 9.22632 19.6255 9.02973 19.4965Z" fill="white"/>
<path d="M13.1662 22.8928C13.0222 22.8846 12.8789 22.9192 12.7545 22.9924C12.6301 23.0656 12.5302 23.1739 12.4674 23.3039C12.4045 23.4338 12.3816 23.5794 12.4015 23.7223C12.4214 23.8652 12.4831 23.9991 12.579 24.1069C12.6749 24.2148 12.8006 24.2918 12.9402 24.3282C13.0798 24.3647 13.2271 24.359 13.3635 24.3118C13.4999 24.2646 13.6192 24.178 13.7064 24.0631C13.7936 23.9481 13.8448 23.8099 13.8535 23.6658C13.8593 23.5699 13.8461 23.4738 13.8147 23.383C13.7833 23.2921 13.7342 23.2084 13.6704 23.1366C13.6065 23.0648 13.5291 23.0063 13.4426 22.9644C13.3561 22.9226 13.2622 22.8983 13.1662 22.8928Z" fill="white"/>
<path d="M13.1744 18.2975C12.9686 18.2861 12.764 18.3361 12.5865 18.441C12.409 18.5458 12.2666 18.701 12.1773 18.8868C12.0879 19.0725 12.0556 19.2806 12.0845 19.4848C12.1133 19.6889 12.202 19.8799 12.3394 20.0336C12.4768 20.1873 12.6566 20.2969 12.8562 20.3485C13.0558 20.4001 13.2662 20.3913 13.4608 20.3234C13.6555 20.2555 13.8256 20.1314 13.9497 19.9668C14.0739 19.8022 14.1464 19.6045 14.1583 19.3987C14.1661 19.2618 14.1468 19.1246 14.1015 18.9952C14.0563 18.8657 13.986 18.7464 13.8946 18.6442C13.8032 18.5419 13.6926 18.4586 13.569 18.3991C13.4454 18.3396 13.3114 18.3051 13.1744 18.2975Z" fill="white"/>
<path d="M17.4419 19.4245C17.2858 19.5039 17.1566 19.6278 17.0708 19.7805C16.9849 19.9332 16.9463 20.108 16.9596 20.2827C16.973 20.4574 17.0378 20.6242 17.1459 20.7621C17.2539 20.9 17.4004 21.0028 17.5669 21.0575C17.7333 21.1122 17.9122 21.1164 18.0811 21.0696C18.2499 21.0227 18.4011 20.9269 18.5155 20.7943C18.6299 20.6616 18.7025 20.498 18.7241 20.3241C18.7456 20.1503 18.7152 19.9739 18.6366 19.8173C18.5842 19.7128 18.5117 19.6198 18.4232 19.5434C18.3347 19.4671 18.232 19.409 18.1209 19.3725C18.0099 19.336 17.8928 19.3218 17.7763 19.3307C17.6597 19.3396 17.5461 19.3715 17.4419 19.4245Z" fill="white"/>
</svg>
