<svg width="21" height="21" viewBox="0 0 21 21" fill="none" xmlns="http://www.w3.org/2000/svg">
<mask id="mask0_1530_35933" style="mask-type:alpha" maskUnits="userSpaceOnUse" x="0" y="0" width="21" height="21">
<rect x="0.839844" y="0.5" width="19.6801" height="19.68" fill="#D9D9D9"/>
</mask>
<g mask="url(#mask0_1530_35933)">
<path d="M7.8554 14.4401L10.6799 11.6155L13.5045 14.4401L14.78 13.1646L11.9554 10.3401L14.78 7.51553L13.5045 6.24006L10.6799 9.06459L7.8554 6.24006L6.57992 7.51553L9.40447 10.3401L6.57992 13.1646L7.8554 14.4401ZM10.6799 18.934C9.4838 18.934 8.36377 18.7088 7.31985 18.2584C6.27592 17.8079 5.36785 17.1966 4.59564 16.4243C3.82341 15.6521 3.21207 14.7441 2.76162 13.7001C2.31116 12.6562 2.08594 11.5362 2.08594 10.3401C2.08594 9.14393 2.31116 8.0239 2.76162 6.97999C3.21207 5.93606 3.82341 5.02799 4.59564 4.25579C5.36785 3.48356 6.27592 2.87223 7.31985 2.42177C8.36377 1.97132 9.4838 1.74609 10.6799 1.74609C11.8761 1.74609 12.9961 1.97132 14.04 2.42177C15.084 2.87223 15.992 3.48356 16.7642 4.25579C17.5365 5.02799 18.1478 5.93606 18.5983 6.97999C19.0487 8.0239 19.2739 9.14393 19.2739 10.3401C19.2739 11.5362 19.0487 12.6562 18.5983 13.7001C18.1478 14.7441 17.5365 15.6521 16.7642 16.4243C15.992 17.1966 15.084 17.8079 14.04 18.2584C12.9961 18.7088 11.8761 18.934 10.6799 18.934ZM10.6799 16.761C12.4804 16.761 14.0007 16.141 15.2408 14.9009C16.4809 13.6608 17.1009 12.1405 17.1009 10.3401C17.1009 8.53963 16.4809 7.01936 15.2408 5.77926C14.0007 4.53916 12.4804 3.91912 10.6799 3.91912C8.8795 3.91912 7.35923 4.53916 6.11912 5.77926C4.87902 7.01936 4.25897 8.53963 4.25897 10.3401C4.25897 12.1405 4.87902 13.6608 6.11912 14.9009C7.35923 16.141 8.8795 16.761 10.6799 16.761Z" fill="url(#paint0_linear_1530_35933)"/>
</g>
<defs>
<linearGradient id="paint0_linear_1530_35933" x1="10.6799" y1="1.74609" x2="10.6799" y2="18.934" gradientUnits="userSpaceOnUse">
<stop stop-color="#ED453D"/>
<stop offset="1" stop-color="#F49894"/>
</linearGradient>
</defs>
</svg>
