<svg width="62" height="62" viewBox="0 0 62 62" fill="none" xmlns="http://www.w3.org/2000/svg">
<g id="Frame">
<path id="Vector" d="M60.4199 31.0782C60.4199 47.5354 47.0781 60.8772 30.621 60.8772C14.1638 60.8772 0.822021 47.5354 0.822021 31.0782C0.822021 14.6211 14.1638 1.2793 30.621 1.2793C47.0781 1.2793 60.4199 14.6211 60.4199 31.0782Z" stroke="url(#paint0_linear_581_8843)" stroke-width="1.3545"/>
<path id="Vector_2" d="M39.8712 22.5748C38.1409 21.7813 36.3153 21.2149 34.4397 20.8898C34.4072 20.8898 34.3747 20.8979 34.3503 20.9304C34.1133 21.3476 33.86 21.8962 33.6717 22.3215C31.6183 22.0099 29.5811 22.0099 27.5697 22.3215C27.3895 21.888 27.12 21.3476 26.8816 20.9304C26.8654 20.8979 26.8328 20.8816 26.7922 20.8898C24.9157 21.2112 23.0896 21.7777 21.3607 22.5748C21.3444 22.5748 21.3363 22.591 21.3282 22.6073C17.8674 27.7774 16.9193 32.8161 17.3866 37.798C17.3866 37.8223 17.4015 37.8467 17.4177 37.863C19.4334 39.3553 21.6877 40.4948 24.0846 41.233C24.1171 41.2411 24.1577 41.233 24.1753 41.2005C24.69 40.4961 25.1479 39.7606 25.5407 38.9831C25.565 38.9344 25.5407 38.8856 25.4919 38.8694C24.7732 38.591 24.076 38.26 23.406 37.8792C23.3572 37.8467 23.3491 37.7722 23.3978 37.7397C23.536 37.6341 23.6755 37.5271 23.815 37.4133C23.8278 37.404 23.8429 37.3984 23.8586 37.397C23.8743 37.3955 23.8902 37.3984 23.9044 37.4052C28.2727 39.4003 33.0012 39.4003 37.3194 37.4052C37.3438 37.3889 37.3844 37.397 37.4101 37.4133C37.5402 37.5189 37.6797 37.6341 37.8273 37.7397C37.8761 37.7722 37.8761 37.8548 37.8273 37.8792C37.1636 38.272 36.4687 38.5985 35.7414 38.868C35.6913 38.8856 35.675 38.9425 35.6913 38.9831C36.0922 39.7606 36.55 40.4961 37.058 41.2005C37.0675 41.2146 37.0813 41.2253 37.0974 41.2312C37.1134 41.237 37.1309 41.2376 37.1473 41.233C39.5489 40.5002 41.8067 39.3603 43.8223 37.863C43.8386 37.8467 43.8548 37.8223 43.8548 37.798C44.4102 32.0386 42.9229 27.0405 39.9132 22.6073C39.9132 22.591 39.8956 22.5829 39.8794 22.5748H39.8712ZM26.1949 34.7625C24.8783 34.7625 23.7974 33.5516 23.7974 32.0711C23.7974 30.5907 24.8621 29.3811 26.1949 29.3811C27.5277 29.3811 28.6167 30.6002 28.5923 32.0711C28.5923 33.5516 27.5277 34.7625 26.1949 34.7625ZM35.0614 34.7625C33.7449 34.7625 32.664 33.5516 32.664 32.0711C32.664 30.5907 33.7286 29.3811 35.0614 29.3811C36.3956 29.3811 37.4833 30.6002 37.4589 32.0711C37.4589 33.5516 36.4024 34.7625 35.0614 34.7625Z" fill="white"/>
</g>
<defs>
<linearGradient id="paint0_linear_581_8843" x1="77.2006" y1="284.854" x2="-39.8305" y2="268.956" gradientUnits="userSpaceOnUse">
<stop stop-color="#268AFF"/>
<stop offset="1" stop-color="#1ED6FF"/>
</linearGradient>
</defs>
</svg>
