<svg width="205" height="202" viewBox="0 0 205 202" fill="none" xmlns="http://www.w3.org/2000/svg">
<g id="Graphic">
<g id="&#229;&#136;&#187;&#229;&#186;&#166;">
<mask id="mask0_630_8791" style="mask-type:luminance" maskUnits="userSpaceOnUse" x="4" y="4" width="197" height="98">
<path id="Ellipse 11" d="M4.97928 101.723C4.88318 88.9451 7.34024 76.275 12.2087 64.4435C17.0772 52.612 24.2607 41.8532 33.3448 32.7877C42.4289 23.7222 53.2339 16.5295 65.1364 11.6246C77.0388 6.71961 89.8032 4.19946 102.693 4.2095C115.583 4.21955 128.344 6.75959 140.238 11.6831C152.133 16.6066 162.926 23.8161 171.996 32.8957C181.066 41.9754 188.232 52.7454 193.082 64.5845C197.932 76.4236 200.369 89.0974 200.252 101.875L180.725 101.7C180.818 91.4782 178.869 81.3391 174.989 71.8678C171.109 62.3965 165.376 53.7805 158.12 46.5168C150.864 39.2531 142.23 33.4855 132.714 29.5467C123.198 25.6079 112.99 23.5759 102.678 23.5678C92.3659 23.5598 82.1544 25.5759 72.6324 29.4999C63.1104 33.4238 54.4664 39.178 47.1991 46.4304C39.9318 53.6828 34.185 62.2898 30.2902 71.755C26.3955 81.2203 24.4298 91.3563 24.5067 101.578L4.97928 101.723Z" fill="white"/>
</mask>
<g mask="url(#mask0_630_8791)">
<g id="&#229;&#136;&#187;&#229;&#186;&#166;_2">
<path id="Ellipse 12" opacity="0.6" d="M195.601 92.2963C195.857 95.0266 195.995 97.7912 196.007 100.585L194.324 100.593C194.324 100.729 194.325 100.866 194.325 101.002C194.325 101.139 194.324 101.275 194.324 101.412L196.007 101.419C195.995 104.213 195.858 106.978 195.601 109.708L193.925 109.551C193.915 109.649 193.906 109.748 193.896 109.846C193.88 110.017 193.863 110.188 193.845 110.359L195.519 110.531C195.233 113.306 194.824 116.044 194.296 118.741L192.644 118.418C192.592 118.684 192.538 118.949 192.484 119.214L194.133 119.552C193.573 122.28 192.893 124.964 192.097 127.598L190.486 127.112C190.407 127.371 190.328 127.63 190.247 127.889L191.854 128.39C191.026 131.044 190.082 133.646 189.026 136.192L187.471 135.547C187.367 135.797 187.262 136.047 187.156 136.297L188.705 136.956C187.618 139.51 186.419 142.006 185.113 144.437L183.63 143.641C183.502 143.88 183.373 144.118 183.242 144.356L184.718 145.166C183.385 147.596 181.945 149.961 180.404 152.254L179.007 151.316C178.856 151.541 178.703 151.766 178.55 151.99L179.939 152.941C178.374 155.226 176.708 157.438 174.949 159.571L173.65 158.5C173.478 158.709 173.304 158.918 173.129 159.126L174.418 160.209C172.638 162.328 170.765 164.366 168.804 166.319L167.616 165.126C167.424 165.318 167.23 165.509 167.036 165.699L168.213 166.902C166.237 168.836 164.174 170.682 162.031 172.436L160.965 171.134C160.754 171.306 160.544 171.477 160.332 171.647L161.386 172.959C159.233 174.689 157 176.327 154.694 177.865L153.76 176.465C153.649 176.539 153.538 176.613 153.427 176.686C153.312 176.763 153.196 176.838 153.081 176.914L154.002 178.323C151.693 179.834 149.311 181.247 146.864 182.554L146.071 181.07C145.832 181.197 145.592 181.324 145.351 181.45L146.131 182.942C143.688 184.22 141.18 185.393 138.614 186.457L137.97 184.902C137.719 185.006 137.468 185.108 137.217 185.21L137.847 186.771C135.294 187.803 132.683 188.726 130.022 189.535L129.533 187.924C129.274 188.003 129.014 188.08 128.754 188.157L129.229 189.772C126.59 190.548 123.902 191.212 121.17 191.758L120.841 190.107C120.575 190.16 120.309 190.212 120.043 190.263L120.358 191.917C117.659 192.431 114.919 192.831 112.143 193.11L111.975 191.435C111.706 191.462 111.436 191.488 111.167 191.512L111.32 193.189C108.59 193.439 105.825 193.573 103.031 193.585L103.023 191.901C102.887 191.902 102.75 191.902 102.613 191.902C102.477 191.902 102.34 191.902 102.204 191.901L102.196 193.585C99.4024 193.573 96.6374 193.439 93.9065 193.189L94.0602 191.512C93.7904 191.488 93.521 191.462 93.252 191.435L93.0837 193.11C90.3077 192.831 87.5676 192.431 84.8688 191.917L85.1841 190.263C84.9177 190.212 84.6518 190.16 84.3863 190.107L84.0564 191.758C81.3253 191.212 78.6373 190.548 75.9981 189.772L76.4732 188.157C76.2129 188.08 75.9532 188.003 75.6939 187.924L75.2045 189.535C72.5436 188.726 69.9333 187.803 67.3795 186.771L68.0102 185.21C67.7586 185.108 67.5075 185.006 67.257 184.902L66.6125 186.457C64.0467 185.393 61.539 184.22 59.0954 182.942L59.8755 181.45C59.635 181.324 59.3951 181.197 59.1558 181.07L58.3625 182.554C55.9155 181.247 53.5341 179.834 51.2244 178.323L52.1462 176.914C51.919 176.765 51.6925 176.616 51.4667 176.465L50.5325 177.865C48.2268 176.327 45.9941 174.69 43.8405 172.959L44.895 171.647C44.6833 171.477 44.4724 171.306 44.2623 171.134L43.1962 172.436C41.053 170.682 38.99 168.836 37.0135 166.902L38.1907 165.699C37.9965 165.509 37.8032 165.318 37.6107 165.126L36.4229 166.319C34.4621 164.366 32.5887 162.328 30.8089 160.209L32.0979 159.126C31.9232 158.918 31.7494 158.709 31.5765 158.5L30.278 159.571C28.5186 157.438 26.8533 155.226 25.2884 152.941L26.6772 151.99C26.5238 151.766 26.3714 151.541 26.2199 151.316L24.8226 152.254C23.2822 149.961 21.8422 147.597 20.5089 145.166L21.9848 144.356C21.8543 144.118 21.7249 143.88 21.5965 143.641L20.1134 144.437C18.8082 142.006 17.6091 139.51 16.5224 136.956L18.0713 136.297C17.9652 136.047 17.8601 135.797 17.7562 135.547L16.2013 136.192C15.1453 133.646 14.2004 131.044 13.3727 128.39L14.9796 127.889C14.899 127.63 14.8194 127.371 14.741 127.112L13.1296 127.598C12.3339 124.964 11.6534 122.28 11.0938 119.552L12.7428 119.214C12.6885 118.949 12.6352 118.684 12.5832 118.418L10.9312 118.741C10.4034 116.044 9.99359 113.306 9.70742 110.531L11.3819 110.359C11.3541 110.09 11.3276 109.82 11.3022 109.551L9.62625 109.708C9.36938 106.978 9.23211 104.213 9.21968 101.419L10.903 101.412C10.9024 101.275 10.9021 101.139 10.9021 101.002C10.9021 100.866 10.9024 100.729 10.903 100.593L9.21968 100.585C9.23211 97.7913 9.36938 95.0266 9.62624 92.2963L11.3022 92.454C11.3276 92.1843 11.3541 91.9149 11.3819 91.6459L9.70741 91.4732C9.99359 88.6985 10.4034 85.9602 10.9312 83.2636L12.5832 83.587C12.6352 83.321 12.6884 83.0555 12.7428 82.7905L11.0938 82.4522C11.6534 79.7247 12.3339 77.0408 13.1296 74.4063L14.741 74.8929C14.8194 74.6334 14.899 74.3743 14.9796 74.1158L13.3727 73.6145C14.2004 70.9609 15.1453 68.3584 16.2013 65.8127L17.7562 66.4578C17.8601 66.2072 17.9652 65.9572 18.0713 65.7078L16.5224 65.0487C17.6091 62.4946 18.8082 59.9988 20.1134 57.5676L21.5965 58.3639C21.7249 58.1247 21.8543 57.8863 21.9848 57.6484L20.5089 56.8388C21.8422 54.4081 23.2822 52.0431 24.8226 49.7502L26.2199 50.6889C26.3714 50.4634 26.5238 50.2387 26.6772 50.0146L25.2884 49.0635C26.8533 46.7784 28.5186 44.5664 30.2779 42.4336L31.5765 43.5048C31.7494 43.2952 31.9232 43.0864 32.0979 42.8784L30.8089 41.7957C32.5887 39.6769 34.4621 37.6381 36.4229 35.6856L37.6107 36.8783C37.8032 36.6867 37.9965 36.4958 38.1907 36.3058L37.0135 35.1026C38.99 33.169 41.053 31.3222 43.1962 29.5683L44.2623 30.871C44.4724 30.6991 44.6833 30.528 44.895 30.3579L43.8405 29.0458C45.994 27.3151 48.2268 25.6775 50.5325 24.1392L51.4667 25.5395C51.6925 25.3889 51.919 25.2392 52.1462 25.0905L51.2244 23.682C53.5341 22.1704 55.9155 20.7578 58.3624 19.4503L59.1558 20.935C59.3951 20.8071 59.635 20.6803 59.8755 20.5545L59.0954 19.0628C61.539 17.7849 64.0467 16.6111 66.6124 15.5477L67.257 17.1027C67.5075 16.9989 67.7585 16.8961 68.0102 16.7945L67.3795 15.2338C69.9333 14.2017 72.5436 13.2785 75.2044 12.47L75.6939 14.0806C75.9531 14.0018 76.2129 13.9241 76.4732 13.8476L75.9981 12.2327C78.6373 11.4562 81.3252 10.7923 84.0564 10.2465L84.3863 11.8972C84.6518 11.8441 84.9177 11.7922 85.184 11.7414L84.8688 10.0879C87.5675 9.57332 90.3076 9.1739 93.0837 8.895L93.2519 10.5699C93.521 10.5429 93.7904 10.517 94.0601 10.4923L93.9065 8.81597C96.6374 8.56569 99.4023 8.43196 102.196 8.41985L102.204 10.1032C102.34 10.1026 102.477 10.1023 102.613 10.1023C102.75 10.1023 102.887 10.1026 103.023 10.1032L103.031 8.41985C105.825 8.43196 108.589 8.56569 111.32 8.81596L111.167 10.4923C111.436 10.517 111.706 10.5429 111.975 10.5699L112.143 8.895C114.919 9.1739 117.659 9.57331 120.358 10.0879L120.043 11.7414C120.309 11.7922 120.575 11.8441 120.841 11.8972L121.17 10.2465C123.902 10.7923 126.59 11.4562 129.229 12.2327L128.754 13.8476C129.014 13.9241 129.274 14.0018 129.533 14.0806L130.022 12.47C132.683 13.2785 135.294 14.2017 137.847 15.2337L137.217 16.7945C137.468 16.8961 137.719 16.9989 137.97 17.1027L138.614 15.5477C141.18 16.6111 143.688 17.7848 146.131 19.0628L145.351 20.5545C145.592 20.6803 145.832 20.8071 146.071 20.935L146.864 19.4503C149.311 20.7578 151.693 22.1704 154.002 23.682L153.081 25.0905C153.308 25.2392 153.534 25.3889 153.76 25.5395L154.694 24.1392C157 25.6775 159.233 27.3151 161.386 29.0458L160.332 30.3579C160.544 30.528 160.754 30.6991 160.965 30.871L162.031 29.5683C164.174 31.3222 166.237 33.169 168.213 35.1026L167.036 36.3058C167.23 36.4958 167.424 36.6867 167.616 36.8783L168.804 35.6856C170.765 37.6381 172.638 39.6769 174.418 41.7957L173.129 42.8784C173.304 43.0864 173.478 43.2952 173.65 43.5048L174.949 42.4336C176.708 44.5664 178.374 46.7784 179.939 49.0635L178.55 50.0146C178.703 50.2387 178.856 50.4634 179.007 50.6888L180.404 49.7502C181.945 52.0431 183.385 54.4081 184.718 56.8388L183.242 57.6484C183.373 57.8862 183.502 58.1247 183.63 58.3639L185.113 57.5676C186.419 59.9988 187.618 62.4946 188.705 65.0487L187.156 65.7078C187.262 65.9572 187.367 66.2072 187.471 66.4578L189.026 65.8127C190.082 68.3584 191.026 70.9609 191.854 73.6145L190.247 74.1158C190.328 74.3743 190.407 74.6334 190.486 74.8929L192.097 74.4062C192.893 77.0408 193.573 79.7247 194.133 82.4521L192.484 82.7904C192.538 83.0555 192.592 83.321 192.644 83.5869L194.296 83.2636C194.824 85.9602 195.233 88.6985 195.519 91.4731L193.845 91.6458C193.873 91.9149 193.899 92.1843 193.925 92.454L195.601 92.2963Z" stroke="white" stroke-opacity="0.6" stroke-width="3.36667" stroke-dasharray="0.84 8.42"/>
<path id="Ellipse 11_2" d="M189.198 66.2326C193.486 76.7134 195.892 88.1492 196.004 100.129L192.638 100.16C192.64 100.441 192.641 100.721 192.641 101.002C192.641 101.283 192.64 101.564 192.638 101.844L196.004 101.876C195.892 113.855 193.486 125.291 189.198 135.772L186.082 134.497C185.871 135.014 185.655 135.529 185.434 136.041L188.525 137.374C183.894 148.111 177.274 157.803 169.125 165.997L166.738 163.623C166.344 164.02 165.946 164.412 165.545 164.801L167.888 167.219C159.614 175.235 149.845 181.739 139.033 186.282L137.729 183.178C137.215 183.394 136.699 183.606 136.18 183.812L137.426 186.94C126.923 191.125 115.475 193.473 103.487 193.582L103.456 190.215C103.176 190.218 102.895 190.219 102.613 190.219C102.332 190.219 102.051 190.218 101.77 190.215L101.74 193.582C89.7523 193.473 78.3044 191.125 67.8009 186.94L69.0471 183.812C68.5283 183.606 68.0118 183.394 67.4978 183.178L66.1936 186.282C55.382 181.739 45.6124 175.235 37.3391 167.219L39.6818 164.801C39.2804 164.412 38.8827 164.02 38.4887 163.623L36.1015 165.997C27.9526 157.803 21.333 148.111 16.7015 137.374L19.7928 136.041C19.572 135.529 19.3559 135.014 19.1445 134.497L16.0284 135.772C11.7413 125.291 9.33452 113.855 9.22282 101.876L12.5893 101.845C12.5867 101.564 12.5854 101.283 12.5854 101.002C12.5854 100.721 12.5867 100.441 12.5893 100.16L9.22282 100.129C9.33452 88.1492 11.7413 76.7134 16.0284 66.2326L19.1445 67.5072C19.3559 66.9904 19.572 66.476 19.7928 65.964L16.7015 64.6305C21.333 53.894 27.9526 44.2013 36.1015 36.0071L38.4887 38.3811C38.8827 37.9849 39.2804 37.5924 39.6818 37.2035L37.3392 34.7855C45.6125 26.7699 55.382 20.2655 66.1936 15.7225L67.4978 18.8263C68.0118 18.6103 68.5283 18.3989 69.0471 18.1922L67.8009 15.0646C78.3044 10.8795 89.7523 8.5318 101.74 8.42291L101.77 11.7894C102.051 11.7869 102.332 11.7856 102.613 11.7856C102.895 11.7856 103.176 11.7869 103.456 11.7894L103.487 8.42291C115.475 8.5318 126.923 10.8795 137.426 15.0646L136.18 18.1922C136.699 18.3989 137.215 18.6103 137.729 18.8263L139.033 15.7225C149.845 20.2655 159.614 26.7699 167.888 34.7856L165.545 37.2035C165.946 37.5924 166.344 37.9849 166.738 38.3811L169.125 36.0071C177.274 44.2013 183.894 53.894 188.525 64.6305L185.434 65.964C185.655 66.476 185.871 66.9904 186.082 67.5072L189.198 66.2326Z" stroke="white" stroke-opacity="0.6" stroke-width="6.73333" stroke-dasharray="1.68 33.67"/>
</g>
</g>
</g>
<path id="Ellipse 17" d="M0.734518 101.901C0.614564 88.5631 3.16074 75.3341 8.22608 62.9773C13.2914 50.6204 20.7756 39.3806 30.2465 29.9065C39.7174 20.4325 50.9876 12.9118 63.4063 7.77884C75.8251 2.64584 89.1464 0.00210052 102.601 0.000245118C116.056 -0.00161028 129.378 2.63845 141.799 7.76803C154.219 12.8976 165.491 20.4151 174.965 29.8866C184.438 39.358 191.926 50.5958 196.994 62.9512C202.063 75.3067 204.613 88.535 204.497 101.873L200.422 101.838C200.533 89.0336 198.085 76.3344 193.219 64.4732C188.353 52.612 181.165 41.8237 172.071 32.7311C162.976 23.6385 152.155 16.4217 140.231 11.4973C128.308 6.57293 115.519 4.03847 102.602 4.04025C89.6852 4.04203 76.8967 6.58002 64.9747 11.5077C53.0527 16.4354 42.2334 23.6552 33.1413 32.7503C24.0492 41.8454 16.8644 52.6356 12.0017 64.4982C7.13894 76.3607 4.69461 89.0606 4.80976 101.865L0.734518 101.901Z" fill="url(#paint0_linear_630_8791)"/>
</g>
<defs>
<linearGradient id="paint0_linear_630_8791" x1="0.730469" y1="101" x2="204.501" y2="101" gradientUnits="userSpaceOnUse">
<stop stop-color="#1882FF"/>
<stop offset="1" stop-color="#36EBCA"/>
</linearGradient>
</defs>
</svg>
