<svg width="516" height="70" viewBox="0 0 516 70" fill="none" xmlns="http://www.w3.org/2000/svg">
<g clip-path="url(#clip0_581_8876)">
<path d="M184.176 20.478H188.661V30.6577H200.442V20.478H204.927V45.678H200.442V34.5017H188.661V45.678H184.176V20.478ZM219.814 43.5068H219.707C219.28 44.2661 218.592 44.895 217.643 45.3933C216.694 45.8678 215.614 46.1051 214.404 46.1051C213.716 46.1051 212.992 46.0102 212.233 45.8204C211.497 45.6543 210.809 45.3695 210.168 44.9661C209.551 44.539 209.029 43.9933 208.602 43.3289C208.199 42.6407 207.997 41.7983 207.997 40.8017C207.997 39.5204 208.353 38.5 209.065 37.7407C209.801 36.9814 210.738 36.4 211.877 35.9967C213.016 35.5933 214.273 35.3322 215.65 35.2136C217.05 35.0712 218.414 35 219.743 35V34.5729C219.743 33.5051 219.351 32.7221 218.568 32.2238C217.809 31.7017 216.895 31.4407 215.828 31.4407C214.926 31.4407 214.06 31.6305 213.229 32.0102C212.399 32.3899 211.711 32.8526 211.165 33.3983L208.958 30.8C209.931 29.8983 211.046 29.2221 212.304 28.7712C213.585 28.3204 214.878 28.095 216.184 28.095C217.702 28.095 218.948 28.3085 219.921 28.7356C220.917 29.1628 221.701 29.7204 222.27 30.4085C222.84 31.0966 223.231 31.8678 223.445 32.7221C223.682 33.5763 223.801 34.4305 223.801 35.2848V45.678H219.814V43.5068ZM219.743 37.8831H218.782C218.094 37.8831 217.37 37.9187 216.611 37.9899C215.851 38.0373 215.151 38.1678 214.511 38.3814C213.87 38.5712 213.336 38.856 212.909 39.2356C212.482 39.5916 212.268 40.0899 212.268 40.7306C212.268 41.1339 212.351 41.478 212.517 41.7628C212.707 42.0238 212.945 42.2373 213.229 42.4034C213.514 42.5695 213.834 42.6882 214.19 42.7594C214.546 42.8306 214.902 42.8661 215.258 42.8661C216.729 42.8661 217.845 42.4746 218.604 41.6916C219.363 40.9085 219.743 39.8407 219.743 38.4882V37.8831ZM227.709 28.5933H231.802V31.4407H231.873C232.348 30.4441 233.012 29.6373 233.866 29.0204C234.721 28.4034 235.717 28.095 236.856 28.095C237.022 28.095 237.2 28.1068 237.39 28.1305C237.58 28.1305 237.746 28.1543 237.888 28.2017V32.117C237.604 32.0458 237.354 31.9983 237.141 31.9746C236.951 31.9509 236.761 31.939 236.571 31.939C235.598 31.939 234.815 32.117 234.222 32.4729C233.629 32.8289 233.166 33.256 232.834 33.7543C232.502 34.2526 232.276 34.7628 232.158 35.2848C232.039 35.8068 231.98 36.2221 231.98 36.5306V45.678H227.709V28.5933ZM260.001 28.095C261.116 28.095 262.065 28.2967 262.848 28.7C263.655 29.0797 264.307 29.5899 264.806 30.2305C265.328 30.8712 265.707 31.6068 265.945 32.4373C266.182 33.2678 266.301 34.1221 266.301 35V45.678H262.029V36.2102C262.029 35.7119 261.994 35.1899 261.923 34.6441C261.851 34.0983 261.697 33.6119 261.46 33.1848C261.223 32.7339 260.89 32.3661 260.463 32.0814C260.06 31.7967 259.514 31.6543 258.826 31.6543C258.162 31.6543 257.592 31.7967 257.118 32.0814C256.643 32.3661 256.251 32.7339 255.943 33.1848C255.635 33.6356 255.409 34.1458 255.267 34.7153C255.124 35.2611 255.053 35.8068 255.053 36.3526V45.678H250.782V35.356C250.782 34.2882 250.521 33.4102 249.999 32.7221C249.501 32.0102 248.706 31.6543 247.614 31.6543C246.973 31.6543 246.416 31.7967 245.941 32.0814C245.467 32.3424 245.075 32.6865 244.767 33.1136C244.482 33.5407 244.257 34.039 244.09 34.6085C243.948 35.1543 243.877 35.7119 243.877 36.2814V45.678H239.606V28.5933H243.663V31.3339H243.735C243.924 30.9068 244.173 30.5034 244.482 30.1238C244.814 29.7441 245.194 29.4 245.621 29.0916C246.072 28.7831 246.582 28.5458 247.151 28.3797C247.721 28.1899 248.35 28.095 249.038 28.095C250.367 28.095 251.47 28.3916 252.348 28.9848C253.226 29.578 253.902 30.3611 254.377 31.3339C254.946 30.2899 255.706 29.495 256.655 28.9492C257.604 28.3797 258.719 28.095 260.001 28.095ZM269.207 37.0644C269.207 35.7119 269.444 34.4899 269.919 33.3983C270.417 32.2831 271.081 31.3339 271.912 30.5509C272.742 29.7678 273.727 29.1628 274.866 28.7356C276.005 28.3085 277.215 28.095 278.497 28.095C279.778 28.095 280.988 28.3085 282.127 28.7356C283.266 29.1628 284.251 29.7678 285.081 30.5509C285.912 31.3339 286.564 32.2831 287.039 33.3983C287.537 34.4899 287.786 35.7119 287.786 37.0644C287.786 38.417 287.537 39.6509 287.039 40.7661C286.564 41.8814 285.912 42.8424 285.081 43.6492C284.251 44.4322 283.266 45.0492 282.127 45.5C280.988 45.9509 279.778 46.1763 278.497 46.1763C277.215 46.1763 276.005 45.9509 274.866 45.5C273.727 45.0492 272.742 44.4322 271.912 43.6492C271.081 42.8424 270.417 41.8814 269.919 40.7661C269.444 39.6509 269.207 38.417 269.207 37.0644ZM273.549 37.0644C273.549 37.7289 273.644 38.3933 273.834 39.0577C274.047 39.7221 274.356 40.3153 274.759 40.8373C275.163 41.3594 275.673 41.7865 276.29 42.1187C276.907 42.4509 277.642 42.617 278.497 42.617C279.351 42.617 280.086 42.4509 280.703 42.1187C281.32 41.7865 281.831 41.3594 282.234 40.8373C282.637 40.3153 282.934 39.7221 283.124 39.0577C283.337 38.3933 283.444 37.7289 283.444 37.0644C283.444 36.4 283.337 35.7475 283.124 35.1068C282.934 34.4424 282.637 33.8492 282.234 33.3272C281.831 32.8051 281.32 32.3899 280.703 32.0814C280.086 31.7492 279.351 31.5831 278.497 31.5831C277.642 31.5831 276.907 31.7492 276.29 32.0814C275.673 32.3899 275.163 32.8051 274.759 33.3272C274.356 33.8492 274.047 34.4424 273.834 35.1068C273.644 35.7475 273.549 36.4 273.549 37.0644ZM290.86 28.5933H294.918V31.3339H294.989C295.368 30.4797 296.021 29.7322 296.946 29.0916C297.896 28.4272 299.011 28.095 300.292 28.095C301.407 28.095 302.357 28.2967 303.14 28.7C303.946 29.0797 304.599 29.5899 305.097 30.2305C305.619 30.8712 305.999 31.6068 306.236 32.4373C306.473 33.2678 306.592 34.1221 306.592 35V45.678H302.321V36.2102C302.321 35.7119 302.285 35.1899 302.214 34.6441C302.143 34.0983 301.989 33.6119 301.751 33.1848C301.514 32.7339 301.182 32.3661 300.755 32.0814C300.351 31.7967 299.806 31.6543 299.118 31.6543C298.429 31.6543 297.836 31.7967 297.338 32.0814C296.84 32.3424 296.424 32.6865 296.092 33.1136C295.784 33.5407 295.546 34.039 295.38 34.6085C295.214 35.1543 295.131 35.7119 295.131 36.2814V45.678H290.86V28.5933ZM310.58 28.5933H314.851V45.678H310.58V28.5933ZM309.975 22.7916C309.975 22.1034 310.224 21.5102 310.722 21.0119C311.244 20.4899 311.897 20.2289 312.68 20.2289C313.463 20.2289 314.115 20.478 314.637 20.9763C315.183 21.4509 315.456 22.056 315.456 22.7916C315.456 23.5272 315.183 24.1441 314.637 24.6424C314.115 25.117 313.463 25.3543 312.68 25.3543C311.897 25.3543 311.244 25.1051 310.722 24.6068C310.224 24.0848 309.975 23.4797 309.975 22.7916ZM330.64 33.3272C330.307 32.8526 329.809 32.4611 329.145 32.1526C328.48 31.8204 327.804 31.6543 327.116 31.6543C326.333 31.6543 325.645 31.8204 325.051 32.1526C324.458 32.4611 323.96 32.8763 323.556 33.3983C323.177 33.9204 322.892 34.5136 322.702 35.178C322.512 35.8187 322.417 36.4712 322.417 37.1356C322.417 37.8 322.512 38.4644 322.702 39.1289C322.916 39.7695 323.224 40.3509 323.628 40.8729C324.031 41.395 324.529 41.8221 325.123 42.1543C325.74 42.4628 326.451 42.617 327.258 42.617C327.923 42.617 328.587 42.4865 329.251 42.2255C329.916 41.9644 330.45 41.5848 330.853 41.0865L333.523 43.7916C332.811 44.5509 331.897 45.1441 330.782 45.5712C329.69 45.9746 328.504 46.1763 327.223 46.1763C325.965 46.1763 324.767 45.9746 323.628 45.5712C322.512 45.1678 321.528 44.5746 320.673 43.7916C319.843 43.0085 319.178 42.0594 318.68 40.9441C318.206 39.8289 317.968 38.5594 317.968 37.1356C317.968 35.7594 318.206 34.5136 318.68 33.3983C319.178 32.2831 319.843 31.3339 320.673 30.5509C321.504 29.7678 322.465 29.1628 323.556 28.7356C324.672 28.3085 325.858 28.095 327.116 28.095C328.373 28.095 329.584 28.3322 330.746 28.8068C331.933 29.2814 332.87 29.9339 333.558 30.7644L330.64 33.3272ZM343.321 20.478H347.806V41.6916H358.519V45.678H343.321V20.478ZM370.825 43.5068H370.718C370.291 44.2661 369.603 44.895 368.654 45.3933C367.705 45.8678 366.625 46.1051 365.415 46.1051C364.727 46.1051 364.003 46.0102 363.243 45.8204C362.508 45.6543 361.82 45.3695 361.179 44.9661C360.562 44.539 360.04 43.9933 359.613 43.3289C359.21 42.6407 359.008 41.7983 359.008 40.8017C359.008 39.5204 359.364 38.5 360.076 37.7407C360.811 36.9814 361.749 36.4 362.888 35.9967C364.027 35.5933 365.284 35.3322 366.66 35.2136C368.06 35.0712 369.425 35 370.754 35V34.5729C370.754 33.5051 370.362 32.7221 369.579 32.2238C368.82 31.7017 367.906 31.4407 366.838 31.4407C365.937 31.4407 365.071 31.6305 364.24 32.0102C363.41 32.3899 362.721 32.8526 362.176 33.3983L359.969 30.8C360.942 29.8983 362.057 29.2221 363.315 28.7712C364.596 28.3204 365.889 28.095 367.194 28.095C368.713 28.095 369.959 28.3085 370.932 28.7356C371.928 29.1628 372.711 29.7204 373.281 30.4085C373.85 31.0966 374.242 31.8678 374.455 32.7221C374.693 33.5763 374.811 34.4305 374.811 35.2848V45.678H370.825V43.5068ZM370.754 37.8831H369.793C369.104 37.8831 368.381 37.9187 367.621 37.9899C366.862 38.0373 366.162 38.1678 365.521 38.3814C364.881 38.5712 364.347 38.856 363.92 39.2356C363.493 39.5916 363.279 40.0899 363.279 40.7306C363.279 41.1339 363.362 41.478 363.528 41.7628C363.718 42.0238 363.955 42.2373 364.24 42.4034C364.525 42.5695 364.845 42.6882 365.201 42.7594C365.557 42.8306 365.913 42.8661 366.269 42.8661C367.74 42.8661 368.855 42.4746 369.615 41.6916C370.374 40.9085 370.754 39.8407 370.754 38.4882V37.8831ZM383.062 18.7695V30.7644H383.169C383.383 30.4797 383.656 30.1831 383.988 29.8746C384.32 29.5661 384.712 29.2814 385.162 29.0204C385.637 28.7594 386.183 28.5458 386.8 28.3797C387.417 28.1899 388.117 28.095 388.9 28.095C390.11 28.095 391.225 28.3322 392.245 28.8068C393.266 29.2577 394.144 29.8865 394.879 30.6933C395.615 31.5 396.184 32.4492 396.588 33.5407C396.991 34.6322 397.193 35.8068 397.193 37.0644C397.193 38.3221 396.991 39.5085 396.588 40.6238C396.208 41.7153 395.651 42.6763 394.915 43.5068C394.203 44.3136 393.325 44.9661 392.281 45.4644C391.261 45.939 390.098 46.1763 388.793 46.1763C387.583 46.1763 386.444 45.9153 385.376 45.3933C384.332 44.8712 383.513 44.1119 382.92 43.1153H382.849V45.678H378.791V18.7695H383.062ZM392.851 37.0644C392.851 36.4 392.744 35.7475 392.53 35.1068C392.34 34.4424 392.044 33.8492 391.64 33.3272C391.237 32.8051 390.727 32.3899 390.11 32.0814C389.493 31.7492 388.769 31.5831 387.939 31.5831C387.156 31.5831 386.456 31.7492 385.839 32.0814C385.222 32.4136 384.688 32.8407 384.237 33.3628C383.81 33.8848 383.478 34.478 383.24 35.1424C383.027 35.8068 382.92 36.4712 382.92 37.1356C382.92 37.8 383.027 38.4644 383.24 39.1289C383.478 39.7695 383.81 40.3509 384.237 40.8729C384.688 41.395 385.222 41.8221 385.839 42.1543C386.456 42.4628 387.156 42.617 387.939 42.617C388.769 42.617 389.493 42.4509 390.11 42.1187C390.727 41.7865 391.237 41.3594 391.64 40.8373C392.044 40.3153 392.34 39.7221 392.53 39.0577C392.744 38.3933 392.851 37.7289 392.851 37.0644ZM409.607 33.1492C409.227 32.6509 408.705 32.2238 408.041 31.8678C407.376 31.4882 406.652 31.2983 405.869 31.2983C405.181 31.2983 404.552 31.4407 403.983 31.7255C403.413 32.0102 403.129 32.4848 403.129 33.1492C403.129 33.8136 403.437 34.2882 404.054 34.5729C404.695 34.8339 405.62 35.1068 406.83 35.3916C407.471 35.5339 408.112 35.7238 408.752 35.9611C409.417 36.1983 410.01 36.5187 410.532 36.9221C411.078 37.3017 411.517 37.7882 411.849 38.3814C412.181 38.9509 412.347 39.6509 412.347 40.4814C412.347 41.5255 412.146 42.4153 411.742 43.1509C411.363 43.8628 410.841 44.4441 410.176 44.895C409.535 45.3458 408.776 45.6661 407.898 45.856C407.044 46.0695 406.154 46.1763 405.229 46.1763C403.9 46.1763 402.607 45.939 401.349 45.4644C400.091 44.9661 399.047 44.2661 398.217 43.3644L401.029 40.7306C401.503 41.3475 402.12 41.8577 402.88 42.2611C403.639 42.6644 404.481 42.8661 405.407 42.8661C405.715 42.8661 406.024 42.8306 406.332 42.7594C406.664 42.6882 406.961 42.5814 407.222 42.439C407.507 42.2729 407.732 42.0594 407.898 41.7983C408.064 41.5373 408.147 41.217 408.147 40.8373C408.147 40.1255 407.815 39.6153 407.151 39.3068C406.51 38.9983 405.537 38.6899 404.232 38.3814C403.591 38.239 402.963 38.0611 402.346 37.8475C401.752 37.6102 401.219 37.3136 400.744 36.9577C400.269 36.578 399.89 36.1153 399.605 35.5695C399.32 35.0238 399.178 34.3475 399.178 33.5407C399.178 32.5916 399.368 31.7729 399.747 31.0848C400.151 30.3967 400.673 29.839 401.313 29.4119C401.954 28.9611 402.678 28.6289 403.485 28.4153C404.291 28.2017 405.122 28.095 405.976 28.095C407.21 28.095 408.408 28.3085 409.571 28.7356C410.757 29.1628 411.695 29.8153 412.383 30.6933L409.607 33.1492Z" fill="white"/>
<mask id="mask0_581_8876" style="mask-type:luminance" maskUnits="userSpaceOnUse" x="102" y="0" width="71" height="70">
<path d="M172.279 0H102.279V70H172.279V0Z" fill="white"/>
</mask>
<g mask="url(#mask0_581_8876)">
<path d="M137.279 70C156.609 70 172.279 54.33 172.279 35C172.279 15.67 156.609 0 137.279 0C117.949 0 102.279 15.67 102.279 35C102.279 54.33 117.949 70 137.279 70Z" fill="#1A282E"/>
<path d="M109.279 35.0017C135.449 -57.6216 139.11 127.625 165.279 35.0017" stroke="#FF0000" stroke-width="0.59322" stroke-linecap="round"/>
<path d="M109.35 34.9985C135.453 -41.9946 139.106 111.991 165.21 34.9985" stroke="#FF0000" stroke-width="1.18644" stroke-linecap="round"/>
<path d="M109.419 34.9999C135.457 -26.4402 139.101 96.4399 165.139 34.9999" stroke="#FF0000" stroke-width="1.18644" stroke-linecap="round"/>
<path d="M109.63 34.9978C135.472 -10.7349 139.088 80.7305 164.93 34.9978" stroke="#FF0000" stroke-width="1.18644" stroke-linecap="round"/>
<path d="M109.979 35.0004C135.494 4.89788 139.064 65.1027 164.579 35.0004" stroke="#FF0000" stroke-width="2.37288" stroke-linecap="round"/>
</g>
<path d="M172.131 0.148438H102.428V69.8518H172.131V0.148438Z" stroke="#1A282E" stroke-width="0.29661"/>
</g>
<defs>
<clipPath id="clip0_581_8876">
<rect width="311.441" height="70" fill="white" transform="translate(102.279)"/>
</clipPath>
</defs>
</svg>
