<svg width="312" height="70" viewBox="0 0 312 70" fill="none" xmlns="http://www.w3.org/2000/svg">
<g clip-path="url(#clip0_581_8877)">
<path d="M82.1758 20.478H86.6605V30.6577H98.4419V20.478H102.927V45.678H98.4419V34.5017H86.6605V45.678H82.1758V20.478ZM117.814 43.5068H117.707C117.28 44.2661 116.592 44.895 115.643 45.3933C114.694 45.8678 113.614 46.1051 112.404 46.1051C111.716 46.1051 110.992 46.0102 110.233 45.8204C109.497 45.6543 108.809 45.3695 108.168 44.9661C107.551 44.539 107.029 43.9933 106.602 43.3289C106.199 42.6407 105.997 41.7983 105.997 40.8017C105.997 39.5204 106.353 38.5 107.065 37.7407C107.801 36.9814 108.738 36.4 109.877 35.9967C111.016 35.5933 112.273 35.3322 113.65 35.2136C115.05 35.0712 116.414 35 117.743 35V34.5729C117.743 33.5051 117.351 32.7221 116.568 32.2238C115.809 31.7017 114.895 31.4407 113.828 31.4407C112.926 31.4407 112.06 31.6305 111.229 32.0102C110.399 32.3899 109.711 32.8526 109.165 33.3983L106.958 30.8C107.931 29.8983 109.046 29.2221 110.304 28.7712C111.585 28.3204 112.878 28.095 114.184 28.095C115.702 28.095 116.948 28.3085 117.921 28.7356C118.917 29.1628 119.701 29.7204 120.27 30.4085C120.84 31.0966 121.231 31.8678 121.445 32.7221C121.682 33.5763 121.801 34.4305 121.801 35.2848V45.678H117.814V43.5068ZM117.743 37.8831H116.782C116.094 37.8831 115.37 37.9187 114.611 37.9899C113.851 38.0373 113.151 38.1678 112.511 38.3814C111.87 38.5712 111.336 38.856 110.909 39.2356C110.482 39.5916 110.268 40.0899 110.268 40.7306C110.268 41.1339 110.351 41.478 110.517 41.7628C110.707 42.0238 110.945 42.2373 111.229 42.4034C111.514 42.5695 111.834 42.6882 112.19 42.7594C112.546 42.8306 112.902 42.8661 113.258 42.8661C114.729 42.8661 115.845 42.4746 116.604 41.6916C117.363 40.9085 117.743 39.8407 117.743 38.4882V37.8831ZM125.709 28.5933H129.802V31.4407H129.873C130.348 30.4441 131.012 29.6373 131.866 29.0204C132.721 28.4034 133.717 28.095 134.856 28.095C135.022 28.095 135.2 28.1068 135.39 28.1305C135.58 28.1305 135.746 28.1543 135.888 28.2017V32.117C135.604 32.0458 135.354 31.9983 135.141 31.9746C134.951 31.9509 134.761 31.939 134.571 31.939C133.598 31.939 132.815 32.117 132.222 32.4729C131.629 32.8289 131.166 33.256 130.834 33.7543C130.502 34.2526 130.276 34.7628 130.158 35.2848C130.039 35.8068 129.98 36.2221 129.98 36.5306V45.678H125.709V28.5933ZM158.001 28.095C159.116 28.095 160.065 28.2967 160.848 28.7C161.655 29.0797 162.307 29.5899 162.806 30.2305C163.328 30.8712 163.707 31.6068 163.945 32.4373C164.182 33.2678 164.301 34.1221 164.301 35V45.678H160.029V36.2102C160.029 35.7119 159.994 35.1899 159.923 34.6441C159.851 34.0983 159.697 33.6119 159.46 33.1848C159.223 32.7339 158.89 32.3661 158.463 32.0814C158.06 31.7967 157.514 31.6543 156.826 31.6543C156.162 31.6543 155.592 31.7967 155.118 32.0814C154.643 32.3661 154.251 32.7339 153.943 33.1848C153.635 33.6356 153.409 34.1458 153.267 34.7153C153.124 35.2611 153.053 35.8068 153.053 36.3526V45.678H148.782V35.356C148.782 34.2882 148.521 33.4102 147.999 32.7221C147.501 32.0102 146.706 31.6543 145.614 31.6543C144.973 31.6543 144.416 31.7967 143.941 32.0814C143.467 32.3424 143.075 32.6865 142.767 33.1136C142.482 33.5407 142.257 34.039 142.09 34.6085C141.948 35.1543 141.877 35.7119 141.877 36.2814V45.678H137.606V28.5933H141.663V31.3339H141.735C141.924 30.9068 142.173 30.5034 142.482 30.1238C142.814 29.7441 143.194 29.4 143.621 29.0916C144.072 28.7831 144.582 28.5458 145.151 28.3797C145.721 28.1899 146.35 28.095 147.038 28.095C148.367 28.095 149.47 28.3916 150.348 28.9848C151.226 29.578 151.902 30.3611 152.377 31.3339C152.946 30.2899 153.706 29.495 154.655 28.9492C155.604 28.3797 156.719 28.095 158.001 28.095ZM167.207 37.0644C167.207 35.7119 167.444 34.4899 167.919 33.3983C168.417 32.2831 169.081 31.3339 169.912 30.5509C170.742 29.7678 171.727 29.1628 172.866 28.7356C174.005 28.3085 175.215 28.095 176.497 28.095C177.778 28.095 178.988 28.3085 180.127 28.7356C181.266 29.1628 182.251 29.7678 183.081 30.5509C183.912 31.3339 184.564 32.2831 185.039 33.3983C185.537 34.4899 185.786 35.7119 185.786 37.0644C185.786 38.417 185.537 39.6509 185.039 40.7661C184.564 41.8814 183.912 42.8424 183.081 43.6492C182.251 44.4322 181.266 45.0492 180.127 45.5C178.988 45.9509 177.778 46.1763 176.497 46.1763C175.215 46.1763 174.005 45.9509 172.866 45.5C171.727 45.0492 170.742 44.4322 169.912 43.6492C169.081 42.8424 168.417 41.8814 167.919 40.7661C167.444 39.6509 167.207 38.417 167.207 37.0644ZM171.549 37.0644C171.549 37.7289 171.644 38.3933 171.834 39.0577C172.047 39.7221 172.356 40.3153 172.759 40.8373C173.163 41.3594 173.673 41.7865 174.29 42.1187C174.907 42.4509 175.642 42.617 176.497 42.617C177.351 42.617 178.086 42.4509 178.703 42.1187C179.32 41.7865 179.831 41.3594 180.234 40.8373C180.637 40.3153 180.934 39.7221 181.124 39.0577C181.337 38.3933 181.444 37.7289 181.444 37.0644C181.444 36.4 181.337 35.7475 181.124 35.1068C180.934 34.4424 180.637 33.8492 180.234 33.3272C179.831 32.8051 179.32 32.3899 178.703 32.0814C178.086 31.7492 177.351 31.5831 176.497 31.5831C175.642 31.5831 174.907 31.7492 174.29 32.0814C173.673 32.3899 173.163 32.8051 172.759 33.3272C172.356 33.8492 172.047 34.4424 171.834 35.1068C171.644 35.7475 171.549 36.4 171.549 37.0644ZM188.86 28.5933H192.918V31.3339H192.989C193.368 30.4797 194.021 29.7322 194.946 29.0916C195.896 28.4272 197.011 28.095 198.292 28.095C199.407 28.095 200.357 28.2967 201.14 28.7C201.946 29.0797 202.599 29.5899 203.097 30.2305C203.619 30.8712 203.999 31.6068 204.236 32.4373C204.473 33.2678 204.592 34.1221 204.592 35V45.678H200.321V36.2102C200.321 35.7119 200.285 35.1899 200.214 34.6441C200.143 34.0983 199.989 33.6119 199.751 33.1848C199.514 32.7339 199.182 32.3661 198.755 32.0814C198.351 31.7967 197.806 31.6543 197.118 31.6543C196.429 31.6543 195.836 31.7967 195.338 32.0814C194.84 32.3424 194.424 32.6865 194.092 33.1136C193.784 33.5407 193.546 34.039 193.38 34.6085C193.214 35.1543 193.131 35.7119 193.131 36.2814V45.678H188.86V28.5933ZM208.58 28.5933H212.851V45.678H208.58V28.5933ZM207.975 22.7916C207.975 22.1034 208.224 21.5102 208.722 21.0119C209.244 20.4899 209.897 20.2289 210.68 20.2289C211.463 20.2289 212.115 20.478 212.637 20.9763C213.183 21.4509 213.456 22.056 213.456 22.7916C213.456 23.5272 213.183 24.1441 212.637 24.6424C212.115 25.117 211.463 25.3543 210.68 25.3543C209.897 25.3543 209.244 25.1051 208.722 24.6068C208.224 24.0848 207.975 23.4797 207.975 22.7916ZM228.64 33.3272C228.307 32.8526 227.809 32.4611 227.145 32.1526C226.48 31.8204 225.804 31.6543 225.116 31.6543C224.333 31.6543 223.645 31.8204 223.051 32.1526C222.458 32.4611 221.96 32.8763 221.556 33.3983C221.177 33.9204 220.892 34.5136 220.702 35.178C220.512 35.8187 220.417 36.4712 220.417 37.1356C220.417 37.8 220.512 38.4644 220.702 39.1289C220.916 39.7695 221.224 40.3509 221.628 40.8729C222.031 41.395 222.529 41.8221 223.123 42.1543C223.74 42.4628 224.451 42.617 225.258 42.617C225.923 42.617 226.587 42.4865 227.251 42.2255C227.916 41.9644 228.45 41.5848 228.853 41.0865L231.523 43.7916C230.811 44.5509 229.897 45.1441 228.782 45.5712C227.69 45.9746 226.504 46.1763 225.223 46.1763C223.965 46.1763 222.767 45.9746 221.628 45.5712C220.512 45.1678 219.528 44.5746 218.673 43.7916C217.843 43.0085 217.178 42.0594 216.68 40.9441C216.206 39.8289 215.968 38.5594 215.968 37.1356C215.968 35.7594 216.206 34.5136 216.68 33.3983C217.178 32.2831 217.843 31.3339 218.673 30.5509C219.504 29.7678 220.465 29.1628 221.556 28.7356C222.672 28.3085 223.858 28.095 225.116 28.095C226.373 28.095 227.584 28.3322 228.746 28.8068C229.933 29.2814 230.87 29.9339 231.558 30.7644L228.64 33.3272ZM241.321 20.478H245.806V41.6916H256.519V45.678H241.321V20.478ZM268.825 43.5068H268.718C268.291 44.2661 267.603 44.895 266.654 45.3933C265.705 45.8678 264.625 46.1051 263.415 46.1051C262.727 46.1051 262.003 46.0102 261.243 45.8204C260.508 45.6543 259.82 45.3695 259.179 44.9661C258.562 44.539 258.04 43.9933 257.613 43.3289C257.21 42.6407 257.008 41.7983 257.008 40.8017C257.008 39.5204 257.364 38.5 258.076 37.7407C258.811 36.9814 259.749 36.4 260.888 35.9967C262.027 35.5933 263.284 35.3322 264.66 35.2136C266.06 35.0712 267.425 35 268.754 35V34.5729C268.754 33.5051 268.362 32.7221 267.579 32.2238C266.82 31.7017 265.906 31.4407 264.838 31.4407C263.937 31.4407 263.071 31.6305 262.24 32.0102C261.41 32.3899 260.721 32.8526 260.176 33.3983L257.969 30.8C258.942 29.8983 260.057 29.2221 261.315 28.7712C262.596 28.3204 263.889 28.095 265.194 28.095C266.713 28.095 267.959 28.3085 268.932 28.7356C269.928 29.1628 270.711 29.7204 271.281 30.4085C271.85 31.0966 272.242 31.8678 272.455 32.7221C272.693 33.5763 272.811 34.4305 272.811 35.2848V45.678H268.825V43.5068ZM268.754 37.8831H267.793C267.104 37.8831 266.381 37.9187 265.621 37.9899C264.862 38.0373 264.162 38.1678 263.521 38.3814C262.881 38.5712 262.347 38.856 261.92 39.2356C261.493 39.5916 261.279 40.0899 261.279 40.7306C261.279 41.1339 261.362 41.478 261.528 41.7628C261.718 42.0238 261.955 42.2373 262.24 42.4034C262.525 42.5695 262.845 42.6882 263.201 42.7594C263.557 42.8306 263.913 42.8661 264.269 42.8661C265.74 42.8661 266.855 42.4746 267.615 41.6916C268.374 40.9085 268.754 39.8407 268.754 38.4882V37.8831ZM281.062 18.7695V30.7644H281.169C281.383 30.4797 281.656 30.1831 281.988 29.8746C282.32 29.5661 282.712 29.2814 283.162 29.0204C283.637 28.7594 284.183 28.5458 284.8 28.3797C285.417 28.1899 286.117 28.095 286.9 28.095C288.11 28.095 289.225 28.3322 290.245 28.8068C291.266 29.2577 292.144 29.8865 292.879 30.6933C293.615 31.5 294.184 32.4492 294.588 33.5407C294.991 34.6322 295.193 35.8068 295.193 37.0644C295.193 38.3221 294.991 39.5085 294.588 40.6238C294.208 41.7153 293.651 42.6763 292.915 43.5068C292.203 44.3136 291.325 44.9661 290.281 45.4644C289.261 45.939 288.098 46.1763 286.793 46.1763C285.583 46.1763 284.444 45.9153 283.376 45.3933C282.332 44.8712 281.513 44.1119 280.92 43.1153H280.849V45.678H276.791V18.7695H281.062ZM290.851 37.0644C290.851 36.4 290.744 35.7475 290.53 35.1068C290.34 34.4424 290.044 33.8492 289.64 33.3272C289.237 32.8051 288.727 32.3899 288.11 32.0814C287.493 31.7492 286.769 31.5831 285.939 31.5831C285.156 31.5831 284.456 31.7492 283.839 32.0814C283.222 32.4136 282.688 32.8407 282.237 33.3628C281.81 33.8848 281.478 34.478 281.24 35.1424C281.027 35.8068 280.92 36.4712 280.92 37.1356C280.92 37.8 281.027 38.4644 281.24 39.1289C281.478 39.7695 281.81 40.3509 282.237 40.8729C282.688 41.395 283.222 41.8221 283.839 42.1543C284.456 42.4628 285.156 42.617 285.939 42.617C286.769 42.617 287.493 42.4509 288.11 42.1187C288.727 41.7865 289.237 41.3594 289.64 40.8373C290.044 40.3153 290.34 39.7221 290.53 39.0577C290.744 38.3933 290.851 37.7289 290.851 37.0644ZM307.607 33.1492C307.227 32.6509 306.705 32.2238 306.041 31.8678C305.376 31.4882 304.652 31.2983 303.869 31.2983C303.181 31.2983 302.552 31.4407 301.983 31.7255C301.413 32.0102 301.129 32.4848 301.129 33.1492C301.129 33.8136 301.437 34.2882 302.054 34.5729C302.695 34.8339 303.62 35.1068 304.83 35.3916C305.471 35.5339 306.112 35.7238 306.752 35.9611C307.417 36.1983 308.01 36.5187 308.532 36.9221C309.078 37.3017 309.517 37.7882 309.849 38.3814C310.181 38.9509 310.347 39.6509 310.347 40.4814C310.347 41.5255 310.146 42.4153 309.742 43.1509C309.363 43.8628 308.841 44.4441 308.176 44.895C307.535 45.3458 306.776 45.6661 305.898 45.856C305.044 46.0695 304.154 46.1763 303.229 46.1763C301.9 46.1763 300.607 45.939 299.349 45.4644C298.091 44.9661 297.047 44.2661 296.217 43.3644L299.029 40.7306C299.503 41.3475 300.12 41.8577 300.88 42.2611C301.639 42.6644 302.481 42.8661 303.407 42.8661C303.715 42.8661 304.024 42.8306 304.332 42.7594C304.664 42.6882 304.961 42.5814 305.222 42.439C305.507 42.2729 305.732 42.0594 305.898 41.7983C306.064 41.5373 306.147 41.217 306.147 40.8373C306.147 40.1255 305.815 39.6153 305.151 39.3068C304.51 38.9983 303.537 38.6899 302.232 38.3814C301.591 38.239 300.963 38.0611 300.346 37.8475C299.752 37.6102 299.219 37.3136 298.744 36.9577C298.269 36.578 297.89 36.1153 297.605 35.5695C297.32 35.0238 297.178 34.3475 297.178 33.5407C297.178 32.5916 297.368 31.7729 297.747 31.0848C298.151 30.3967 298.673 29.839 299.313 29.4119C299.954 28.9611 300.678 28.6289 301.485 28.4153C302.291 28.2017 303.122 28.095 303.976 28.095C305.21 28.095 306.408 28.3085 307.571 28.7356C308.757 29.1628 309.695 29.8153 310.383 30.6933L307.607 33.1492Z" fill="white"/>
<mask id="mask0_581_8877" style="mask-type:luminance" maskUnits="userSpaceOnUse" x="0" y="0" width="71" height="70">
<path d="M70.2793 0H0.279297V70H70.2793V0Z" fill="white"/>
</mask>
<g mask="url(#mask0_581_8877)">
<path d="M35.2793 70C54.6093 70 70.2793 54.33 70.2793 35C70.2793 15.67 54.6093 0 35.2793 0C15.9493 0 0.279297 15.67 0.279297 35C0.279297 54.33 15.9493 70 35.2793 70Z" fill="#1A282E"/>
<path d="M7.2793 35.0017C33.4486 -57.6216 37.11 127.625 63.2794 35.0017" stroke="#FF0000" stroke-width="0.59322" stroke-linecap="round"/>
<path d="M7.34961 34.9985C33.4534 -41.9946 37.1058 111.991 63.2096 34.9985" stroke="#FF0000" stroke-width="1.18644" stroke-linecap="round"/>
<path d="M7.41895 34.9999C33.4573 -26.4402 37.1005 96.4399 63.1388 34.9999" stroke="#FF0000" stroke-width="1.18644" stroke-linecap="round"/>
<path d="M7.62988 34.9978C33.472 -10.7349 37.0878 80.7305 62.9301 34.9978" stroke="#FF0000" stroke-width="1.18644" stroke-linecap="round"/>
<path d="M7.97949 35.0004C33.4945 4.89788 37.0644 65.1027 62.5792 35.0004" stroke="#FF0000" stroke-width="2.37288" stroke-linecap="round"/>
</g>
<path d="M70.1311 0.148438H0.427734V69.8518H70.1311V0.148438Z" stroke="#1A282E" stroke-width="0.29661"/>
</g>
<defs>
<clipPath id="clip0_581_8877">
<rect width="311.441" height="70" fill="white" transform="translate(0.279297)"/>
</clipPath>
</defs>
</svg>
