<svg width="202" height="46" viewBox="0 0 202 46" fill="none" xmlns="http://www.w3.org/2000/svg">
<path d="M53.2227 13.3117H56.1377V19.9285H63.7956V13.3117H66.7107V29.6917H63.7956V22.4271H56.1377V29.6917H53.2227V13.3117ZM76.3876 28.2804H76.3181C76.0405 28.774 75.5932 29.1827 74.9763 29.5066C74.3593 29.8151 73.6576 29.9693 72.8709 29.9693C72.4237 29.9693 71.9532 29.9076 71.4597 29.7842C70.9815 29.6763 70.5342 29.4912 70.1178 29.229C69.7168 28.9513 69.3775 28.5966 69.0998 28.1647C68.8376 27.7174 68.7065 27.1699 68.7065 26.5221C68.7065 25.6892 68.9379 25.026 69.4006 24.5324C69.8787 24.0389 70.488 23.661 71.2283 23.3988C71.9687 23.1366 72.7861 22.9669 73.6807 22.8898C74.5907 22.7973 75.4776 22.751 76.3413 22.751V22.4734C76.3413 21.7793 76.0868 21.2703 75.5778 20.9464C75.0842 20.6071 74.4904 20.4374 73.7964 20.4374C73.2103 20.4374 72.6473 20.5608 72.1075 20.8076C71.5676 21.0544 71.1204 21.3552 70.7656 21.7099L69.3312 20.021C69.9636 19.4349 70.6885 18.9953 71.5059 18.7023C72.3388 18.4092 73.1794 18.2627 74.0277 18.2627C75.0148 18.2627 75.8246 18.4015 76.457 18.6791C77.1048 18.9568 77.6137 19.3192 77.9839 19.7665C78.3541 20.2138 78.6086 20.7151 78.7474 21.2703C78.9016 21.8256 78.9787 22.3808 78.9787 22.9361V29.6917H76.3876V28.2804ZM76.3413 24.625H75.7166C75.2693 24.625 74.7989 24.6481 74.3053 24.6944C73.8118 24.7252 73.3568 24.8101 72.9404 24.9489C72.5239 25.0723 72.1769 25.2574 71.8993 25.5041C71.6216 25.7355 71.4828 26.0594 71.4828 26.4758C71.4828 26.738 71.5368 26.9617 71.6448 27.1468C71.7681 27.3164 71.9224 27.4552 72.1075 27.5632C72.2926 27.6712 72.5008 27.7483 72.7321 27.7946C72.9635 27.8408 73.1948 27.864 73.4262 27.864C74.3825 27.864 75.1074 27.6095 75.6009 27.1005C76.0945 26.5915 76.3413 25.8974 76.3413 25.0183V24.625ZM81.519 18.5866H84.1796V20.4374H84.2259C84.5344 19.7896 84.9662 19.2652 85.5215 18.8642C86.0767 18.4632 86.7245 18.2627 87.4649 18.2627C87.5728 18.2627 87.6885 18.2704 87.8119 18.2858C87.9353 18.2858 88.0433 18.3013 88.1358 18.3321V20.877C87.9507 20.8307 87.7888 20.7999 87.65 20.7845C87.5266 20.7691 87.4032 20.7613 87.2798 20.7613C86.6474 20.7613 86.1384 20.877 85.7528 21.1084C85.3672 21.3397 85.0665 21.6174 84.8506 21.9413C84.6346 22.2652 84.4881 22.5968 84.411 22.9361C84.3339 23.2754 84.2953 23.5453 84.2953 23.7458V29.6917H81.519V18.5866ZM102.509 18.2627C103.234 18.2627 103.851 18.3938 104.36 18.656C104.884 18.9028 105.308 19.2344 105.632 19.6508C105.971 20.0673 106.218 20.5454 106.372 21.0852C106.527 21.6251 106.604 22.1803 106.604 22.751V29.6917H103.828V23.5376C103.828 23.2137 103.804 22.8744 103.758 22.5196C103.712 22.1649 103.612 21.8487 103.457 21.5711C103.303 21.278 103.087 21.039 102.81 20.8539C102.547 20.6688 102.193 20.5763 101.745 20.5763C101.313 20.5763 100.943 20.6688 100.635 20.8539C100.326 21.039 100.072 21.278 99.8713 21.5711C99.6708 21.8641 99.5243 22.1957 99.4318 22.5659C99.3392 22.9207 99.2929 23.2754 99.2929 23.6302V29.6917H96.5167V22.9824C96.5167 22.2883 96.347 21.7176 96.0077 21.2703C95.6838 20.8076 95.1671 20.5763 94.4576 20.5763C94.0412 20.5763 93.6787 20.6688 93.3702 20.8539C93.0618 21.0235 92.8073 21.2472 92.6068 21.5248C92.4217 21.8024 92.2751 22.1263 92.1672 22.4965C92.0746 22.8513 92.0284 23.2137 92.0284 23.5839V29.6917H89.2521V18.5866H91.8896V20.368H91.9358C92.0592 20.0904 92.2212 19.8282 92.4217 19.5814C92.6376 19.3346 92.8844 19.111 93.162 18.9105C93.4551 18.71 93.7867 18.5557 94.1568 18.4478C94.527 18.3244 94.9357 18.2627 95.383 18.2627C96.2468 18.2627 96.964 18.4555 97.5346 18.8411C98.1053 19.2267 98.5449 19.7357 98.8534 20.368C99.2235 19.6894 99.7171 19.1727 100.334 18.818C100.951 18.4478 101.676 18.2627 102.509 18.2627ZM108.493 24.0929C108.493 23.2137 108.647 22.4194 108.956 21.7099C109.279 20.985 109.711 20.368 110.251 19.8591C110.791 19.3501 111.431 18.9568 112.171 18.6791C112.912 18.4015 113.698 18.2627 114.531 18.2627C115.364 18.2627 116.151 18.4015 116.891 18.6791C117.631 18.9568 118.271 19.3501 118.811 19.8591C119.351 20.368 119.775 20.985 120.084 21.7099C120.408 22.4194 120.57 23.2137 120.57 24.0929C120.57 24.972 120.408 25.7741 120.084 26.499C119.775 27.2239 119.351 27.8485 118.811 28.373C118.271 28.8819 117.631 29.2829 116.891 29.576C116.151 29.8691 115.364 30.0156 114.531 30.0156C113.698 30.0156 112.912 29.8691 112.171 29.576C111.431 29.2829 110.791 28.8819 110.251 28.373C109.711 27.8485 109.279 27.2239 108.956 26.499C108.647 25.7741 108.493 24.972 108.493 24.0929ZM111.315 24.0929C111.315 24.5247 111.377 24.9566 111.5 25.3885C111.639 25.8203 111.84 26.2059 112.102 26.5452C112.364 26.8846 112.696 27.1622 113.097 27.3781C113.498 27.5941 113.976 27.702 114.531 27.702C115.086 27.702 115.565 27.5941 115.966 27.3781C116.367 27.1622 116.698 26.8846 116.96 26.5452C117.223 26.2059 117.415 25.8203 117.539 25.3885C117.678 24.9566 117.747 24.5247 117.747 24.0929C117.747 23.661 117.678 23.2368 117.539 22.8204C117.415 22.3885 117.223 22.003 116.96 21.6636C116.698 21.3243 116.367 21.0544 115.966 20.8539C115.565 20.638 115.086 20.53 114.531 20.53C113.976 20.53 113.498 20.638 113.097 20.8539C112.696 21.0544 112.364 21.3243 112.102 21.6636C111.84 22.003 111.639 22.3885 111.5 22.8204C111.377 23.2368 111.315 23.661 111.315 24.0929ZM122.567 18.5866H125.205V20.368H125.251C125.498 19.8128 125.922 19.3269 126.524 18.9105C127.14 18.4786 127.865 18.2627 128.698 18.2627C129.423 18.2627 130.04 18.3938 130.549 18.656C131.074 18.9028 131.498 19.2344 131.822 19.6508C132.161 20.0673 132.408 20.5454 132.562 21.0852C132.716 21.6251 132.793 22.1803 132.793 22.751V29.6917H130.017V23.5376C130.017 23.2137 129.994 22.8744 129.948 22.5196C129.901 22.1649 129.801 21.8487 129.647 21.5711C129.493 21.278 129.277 21.039 128.999 20.8539C128.737 20.6688 128.382 20.5763 127.935 20.5763C127.488 20.5763 127.102 20.6688 126.778 20.8539C126.454 21.0235 126.184 21.2472 125.968 21.5248C125.768 21.8024 125.614 22.1263 125.506 22.4965C125.398 22.8513 125.344 23.2137 125.344 23.5839V29.6917H122.567V18.5866ZM135.385 18.5866H138.162V29.6917H135.385V18.5866ZM134.992 14.8155C134.992 14.3682 135.154 13.9826 135.478 13.6587C135.817 13.3194 136.241 13.1497 136.75 13.1497C137.259 13.1497 137.683 13.3117 138.023 13.6356C138.377 13.9441 138.555 14.3374 138.555 14.8155C138.555 15.2936 138.377 15.6946 138.023 16.0185C137.683 16.327 137.259 16.4813 136.75 16.4813C136.241 16.4813 135.817 16.3193 135.478 15.9954C135.154 15.6561 134.992 15.2628 134.992 14.8155ZM148.424 21.6636C148.208 21.3552 147.884 21.1007 147.452 20.9002C147.021 20.6842 146.581 20.5763 146.134 20.5763C145.625 20.5763 145.177 20.6842 144.792 20.9002C144.406 21.1007 144.082 21.3706 143.82 21.7099C143.573 22.0492 143.388 22.4348 143.265 22.8667C143.141 23.2831 143.08 23.7073 143.08 24.1391C143.08 24.571 143.141 25.0029 143.265 25.4347C143.404 25.8512 143.604 26.2291 143.866 26.5684C144.129 26.9077 144.452 27.1853 144.838 27.4013C145.239 27.6018 145.702 27.702 146.226 27.702C146.658 27.702 147.09 27.6172 147.522 27.4475C147.954 27.2779 148.301 27.0311 148.563 26.7072L150.298 28.4655C149.835 28.9591 149.242 29.3446 148.517 29.6223C147.807 29.8845 147.036 30.0156 146.203 30.0156C145.386 30.0156 144.607 29.8845 143.866 29.6223C143.141 29.3601 142.501 28.9745 141.946 28.4655C141.406 27.9565 140.974 27.3396 140.651 26.6146C140.342 25.8897 140.188 25.0646 140.188 24.1391C140.188 23.2446 140.342 22.4348 140.651 21.7099C140.974 20.985 141.406 20.368 141.946 19.8591C142.486 19.3501 143.111 18.9568 143.82 18.6791C144.545 18.4015 145.316 18.2627 146.134 18.2627C146.951 18.2627 147.738 18.4169 148.493 18.7254C149.265 19.0339 149.874 19.458 150.321 19.9979L148.424 21.6636ZM156.667 13.3117H159.582V27.1005H166.546V29.6917H156.667V13.3117ZM174.545 28.2804H174.475C174.198 28.774 173.75 29.1827 173.133 29.5066C172.516 29.8151 171.815 29.9693 171.028 29.9693C170.581 29.9693 170.11 29.9076 169.617 29.7842C169.139 29.6763 168.691 29.4912 168.275 29.229C167.874 28.9513 167.534 28.5966 167.257 28.1647C166.995 27.7174 166.864 27.1699 166.864 26.5221C166.864 25.6892 167.095 25.026 167.558 24.5324C168.036 24.0389 168.645 23.661 169.385 23.3988C170.126 23.1366 170.943 22.9669 171.838 22.8898C172.748 22.7973 173.635 22.751 174.498 22.751V22.4734C174.498 21.7793 174.244 21.2703 173.735 20.9464C173.241 20.6071 172.647 20.4374 171.953 20.4374C171.367 20.4374 170.804 20.5608 170.264 20.8076C169.725 21.0544 169.277 21.3552 168.923 21.7099L167.488 20.021C168.121 19.4349 168.845 18.9953 169.663 18.7023C170.496 18.4092 171.336 18.2627 172.185 18.2627C173.172 18.2627 173.982 18.4015 174.614 18.6791C175.262 18.9568 175.771 19.3192 176.141 19.7665C176.511 20.2138 176.766 20.7151 176.904 21.2703C177.059 21.8256 177.136 22.3808 177.136 22.9361V29.6917H174.545V28.2804ZM174.498 24.625H173.874C173.426 24.625 172.956 24.6481 172.462 24.6944C171.969 24.7252 171.514 24.8101 171.097 24.9489C170.681 25.0723 170.334 25.2574 170.056 25.5041C169.779 25.7355 169.64 26.0594 169.64 26.4758C169.64 26.738 169.694 26.9617 169.802 27.1468C169.925 27.3164 170.079 27.4552 170.264 27.5632C170.45 27.6712 170.658 27.7483 170.889 27.7946C171.12 27.8408 171.352 27.864 171.583 27.864C172.539 27.864 173.264 27.6095 173.758 27.1005C174.251 26.5915 174.498 25.8974 174.498 25.0183V24.625ZM182.499 12.2012V19.9979H182.568C182.707 19.8128 182.885 19.62 183.1 19.4195C183.316 19.219 183.571 19.0339 183.864 18.8642C184.172 18.6946 184.527 18.5557 184.928 18.4478C185.329 18.3244 185.784 18.2627 186.293 18.2627C187.08 18.2627 187.805 18.4169 188.468 18.7254C189.131 19.0185 189.702 19.4272 190.18 19.9516C190.658 20.476 191.028 21.093 191.29 21.8024C191.553 22.5119 191.684 23.2754 191.684 24.0929C191.684 24.9103 191.553 25.6815 191.29 26.4064C191.044 27.1159 190.681 27.7406 190.203 28.2804C189.74 28.8048 189.17 29.229 188.491 29.5529C187.828 29.8613 187.072 30.0156 186.224 30.0156C185.437 30.0156 184.697 29.8459 184.003 29.5066C183.324 29.1673 182.792 28.6737 182.406 28.0259H182.36V29.6917H179.723V12.2012H182.499ZM188.861 24.0929C188.861 23.661 188.792 23.2368 188.653 22.8204C188.53 22.3885 188.337 22.003 188.075 21.6636C187.812 21.3243 187.481 21.0544 187.08 20.8539C186.679 20.638 186.208 20.53 185.669 20.53C185.16 20.53 184.705 20.638 184.304 20.8539C183.902 21.0698 183.555 21.3474 183.262 21.6868C182.985 22.0261 182.769 22.4117 182.615 22.8435C182.476 23.2754 182.406 23.7073 182.406 24.1391C182.406 24.571 182.476 25.0029 182.615 25.4347C182.769 25.8512 182.985 26.2291 183.262 26.5684C183.555 26.9077 183.902 27.1853 184.304 27.4013C184.705 27.6018 185.16 27.702 185.669 27.702C186.208 27.702 186.679 27.5941 187.08 27.3781C187.481 27.1622 187.812 26.8846 188.075 26.5452C188.337 26.2059 188.53 25.8203 188.653 25.3885C188.792 24.9566 188.861 24.5247 188.861 24.0929ZM199.753 21.548C199.506 21.2241 199.167 20.9464 198.735 20.7151C198.303 20.4683 197.832 20.3449 197.323 20.3449C196.876 20.3449 196.467 20.4374 196.097 20.6225C195.727 20.8076 195.542 21.1161 195.542 21.548C195.542 21.9798 195.743 22.2883 196.144 22.4734C196.56 22.643 197.161 22.8204 197.948 23.0055C198.365 23.098 198.781 23.2214 199.197 23.3757C199.629 23.5299 200.015 23.7381 200.354 24.0003C200.709 24.2471 200.994 24.5633 201.21 24.9489C201.426 25.3191 201.534 25.7741 201.534 26.3139C201.534 26.9925 201.403 27.5709 201.141 28.0491C200.894 28.5118 200.555 28.8896 200.123 29.1827C199.706 29.4757 199.213 29.684 198.642 29.8074C198.087 29.9462 197.509 30.0156 196.907 30.0156C196.043 30.0156 195.203 29.8613 194.385 29.5529C193.568 29.229 192.889 28.774 192.349 28.1879L194.177 26.4758C194.486 26.8769 194.887 27.2085 195.38 27.4707C195.874 27.7329 196.421 27.864 197.023 27.864C197.223 27.864 197.424 27.8408 197.624 27.7946C197.84 27.7483 198.033 27.6789 198.203 27.5863C198.388 27.4784 198.534 27.3396 198.642 27.1699C198.75 27.0002 198.804 26.792 198.804 26.5452C198.804 26.0825 198.588 25.7509 198.156 25.5504C197.74 25.3499 197.108 25.1494 196.259 24.9489C195.843 24.8563 195.434 24.7407 195.033 24.6018C194.647 24.4476 194.3 24.2548 193.992 24.0235C193.683 23.7767 193.437 23.4759 193.252 23.1212C193.067 22.7664 192.974 22.3268 192.974 21.8024C192.974 21.1855 193.097 20.6534 193.344 20.2061C193.606 19.7588 193.946 19.3963 194.362 19.1187C194.779 18.8257 195.249 18.6097 195.773 18.4709C196.298 18.3321 196.838 18.2627 197.393 18.2627C198.195 18.2627 198.974 18.4015 199.73 18.6791C200.501 18.9568 201.11 19.3809 201.557 19.9516L199.753 21.548Z" fill="white"/>
<mask id="mask0_0_1" style="mask-type:luminance" maskUnits="userSpaceOnUse" x="0" y="0" width="46" height="46">
<path d="M45.5 0H0V45.5H45.5V0Z" fill="white"/>
</mask>
<g mask="url(#mask0_0_1)">
<path d="M22.75 45.5C35.3145 45.5 45.5 35.3145 45.5 22.75C45.5 10.1855 35.3145 0 22.75 0C10.1855 0 0 10.1855 0 22.75C0 35.3145 10.1855 45.5 22.75 45.5Z" fill="#1A282E"/>
<path d="M4.54688 22.7528C21.5569 -37.4524 23.9368 82.958 40.9469 22.7528" stroke="#FF0000" stroke-width="0.385593" stroke-linecap="round"/>
<path d="M4.59766 22.7496C21.5651 -27.2959 23.9392 72.795 40.9067 22.7496" stroke="#FF0000" stroke-width="0.771186" stroke-linecap="round"/>
<path d="M4.64453 22.7512C21.5695 -17.1849 23.9376 62.6872 40.8625 22.7512" stroke="#FF0000" stroke-width="0.771186" stroke-linecap="round"/>
<path d="M4.77734 22.7492C21.5747 -6.97706 23.925 52.4754 40.7225 22.7492" stroke="#FF0000" stroke-width="0.771186" stroke-linecap="round"/>
<path d="M5.00781 22.749C21.5926 3.18235 23.913 42.3155 40.4976 22.749" stroke="#FF0000" stroke-width="1.54237" stroke-linecap="round"/>
</g>
</svg>
