<svg width="62" height="62" viewBox="0 0 62 62" fill="none" xmlns="http://www.w3.org/2000/svg">
<path d="M61.2737 31.0782C61.2737 47.5354 47.9319 60.8772 31.4747 60.8772C15.0176 60.8772 1.67578 47.5354 1.67578 31.0782C1.67578 14.6211 15.0176 1.2793 31.4747 1.2793C47.9319 1.2793 61.2737 14.6211 61.2737 31.0782Z" stroke="url(#paint0_linear_581_8852)" stroke-width="1.3545"/>
<path d="M24.6647 39.9328C19.8088 39.9328 15.8767 35.9696 15.8767 31.0744C15.8767 26.1698 19.8237 22.216 24.7202 22.2295C29.5761 22.2471 33.5082 26.2497 33.4594 31.1773C33.412 36.0806 29.4406 39.9572 24.6647 39.9409V39.9328ZM34.3168 31.073C34.3168 29.4138 34.5471 27.7952 35.1377 26.2334C35.456 25.372 35.8786 24.5674 36.5016 23.8725C36.8199 23.5136 37.187 23.2102 37.6177 23.0029C38.5347 22.5736 39.4043 22.6846 40.217 23.2508C40.9268 23.7371 41.413 24.4225 41.8113 25.1729C42.3775 26.2402 42.7052 27.3807 42.9043 28.5699C43.1441 29.9962 43.1752 31.4401 43.0073 32.8759C42.8312 34.3902 42.4574 35.8422 41.707 37.1805C41.3331 37.8577 40.8713 38.4645 40.2252 38.9115C39.2282 39.605 38.1121 39.5888 37.1315 38.8641C36.4542 38.3616 35.9747 37.6911 35.5928 36.9502C35.0577 35.9289 34.7394 34.8372 34.539 33.7048C34.3891 32.8329 34.3148 31.9496 34.3168 31.0649V31.073ZM47.0464 31.0879C47.0464 32.6185 46.9597 34.1505 46.7213 35.6661C46.5994 36.3989 46.464 37.1249 46.17 37.8103C46.0821 38.0137 45.9668 38.2042 45.8274 38.3765C45.6282 38.6244 45.3885 38.6162 45.1731 38.3846C44.9822 38.1774 44.8697 37.9227 44.7668 37.6667C44.4796 36.9096 44.3361 36.128 44.225 35.3302C44.047 34.0248 43.9565 32.7089 43.9541 31.3913C43.9378 29.7483 44.0164 28.1229 44.2724 26.4962C44.3916 25.7621 44.527 25.036 44.8223 24.3507C44.8941 24.1827 44.9821 24.0161 45.0932 23.8631C45.3479 23.5136 45.6513 23.5136 45.8991 23.8631C46.0427 24.0716 46.1538 24.3033 46.2418 24.5417C46.5209 25.2677 46.6482 26.033 46.7606 26.7982C46.9678 28.2178 47.0315 29.6373 47.0396 31.073L47.0464 31.0879Z" fill="white"/>
<defs>
<linearGradient id="paint0_linear_581_8852" x1="78.0544" y1="284.854" x2="-38.9768" y2="268.956" gradientUnits="userSpaceOnUse">
<stop stop-color="#268AFF"/>
<stop offset="1" stop-color="#1ED6FF"/>
</linearGradient>
</defs>
</svg>
