<svg width="516" height="70" viewBox="0 0 516 70" fill="none" xmlns="http://www.w3.org/2000/svg">
<path d="M237.209 52.5V17.8818H250.867C253.493 17.8818 255.73 18.3832 257.578 19.3862C259.426 20.3779 260.835 21.7583 261.803 23.5275C262.784 25.2855 263.274 27.3139 263.274 29.6128C263.274 31.9117 262.779 33.94 261.787 35.698C260.795 37.4559 259.358 38.8251 257.476 39.8056C255.606 40.7859 253.34 41.2761 250.681 41.2761H241.976V35.4106H249.498C250.907 35.4106 252.067 35.1683 252.98 34.6838C253.904 34.188 254.591 33.5062 255.042 32.6385C255.504 31.7595 255.735 30.7509 255.735 29.6128C255.735 28.4633 255.504 27.4604 255.042 26.604C254.591 25.7363 253.904 25.0657 252.98 24.5925C252.056 24.1079 250.884 23.8656 249.464 23.8656H244.528V52.5H237.209ZM275.427 17.8818V52.5H268.226V17.8818H275.427ZM298.178 41.4452V26.5364H305.379V52.5H298.466V47.7839H298.195C297.609 49.3053 296.635 50.5279 295.271 51.4519C293.919 52.376 292.268 52.8381 290.319 52.8381C288.583 52.8381 287.056 52.4436 285.738 51.6548C284.419 50.866 283.388 49.7447 282.645 48.291C281.912 46.8373 281.54 45.0963 281.529 43.0679V26.5364H288.73V41.7832C288.741 43.3158 289.152 44.5272 289.964 45.4175C290.775 46.3077 291.862 46.7528 293.226 46.7528C294.094 46.7528 294.905 46.5556 295.66 46.1612C296.415 45.7556 297.023 45.1582 297.485 44.3694C297.958 43.5806 298.189 42.6058 298.178 41.4452ZM327.649 35.4275V41.1409H311.861V35.4275H327.649ZM347.928 26.5364V31.9455H332.293V26.5364H347.928ZM335.842 20.3159H343.043V44.5216C343.043 45.1865 343.144 45.7048 343.347 46.0767C343.55 46.4373 343.832 46.6908 344.193 46.8373C344.564 46.9838 344.993 47.0571 345.477 47.0571C345.815 47.0571 346.153 47.0289 346.492 46.9726C346.83 46.905 347.089 46.8543 347.269 46.8205L348.401 52.1788C348.041 52.2915 347.534 52.4211 346.88 52.5676C346.226 52.7254 345.432 52.8211 344.497 52.855C342.761 52.9226 341.24 52.6916 339.933 52.1619C338.637 51.6323 337.628 50.8096 336.907 49.694C336.186 48.5784 335.831 47.1698 335.842 45.4681V20.3159ZM374.229 33.94L367.637 34.3457C367.524 33.7823 367.282 33.2752 366.91 32.8244C366.538 32.3624 366.048 31.9961 365.439 31.7257C364.842 31.444 364.127 31.3031 363.293 31.3031C362.177 31.3031 361.236 31.5397 360.47 32.0131C359.703 32.4751 359.32 33.0949 359.32 33.8724C359.32 34.4922 359.568 35.0162 360.064 35.4444C360.56 35.8727 361.411 36.2164 362.617 36.4756L367.316 37.4221C369.84 37.9405 371.722 38.7744 372.961 39.9239C374.201 41.0733 374.821 42.5833 374.821 44.454C374.821 46.1556 374.319 47.6487 373.316 48.9333C372.325 50.2181 370.961 51.2209 369.226 51.9422C367.501 52.6521 365.513 53.0071 363.259 53.0071C359.822 53.0071 357.083 52.2915 355.044 50.8604C353.016 49.418 351.826 47.4571 351.477 44.978L358.56 44.6061C358.774 45.6541 359.292 46.4542 360.115 47.0064C360.937 47.5473 361.991 47.8178 363.275 47.8178C364.538 47.8178 365.552 47.5755 366.318 47.0909C367.096 46.5951 367.49 45.9583 367.501 45.1808C367.49 44.5272 367.214 43.9919 366.673 43.575C366.132 43.1468 365.298 42.82 364.171 42.5946L359.675 41.6987C357.14 41.1916 355.252 40.3126 354.013 39.0618C352.785 37.8109 352.17 36.2164 352.17 34.2781C352.17 32.6103 352.621 31.1735 353.522 29.9678C354.435 28.7619 355.714 27.8323 357.36 27.1787C359.016 26.5251 360.954 26.1983 363.175 26.1983C366.453 26.1983 369.034 26.8913 370.916 28.2774C372.809 29.6635 373.913 31.551 374.229 33.94Z" fill="white"/>
<mask id="mask0_581_8890" style="mask-type:luminance" maskUnits="userSpaceOnUse" x="139" y="0" width="70" height="70">
<path d="M209 0H139V70H209V0Z" fill="white"/>
</mask>
<g mask="url(#mask0_581_8890)">
<g filter="url(#filter0_d_581_8890)">
<path d="M139 35V70H174H209V35V0H174H139V35Z" fill="#007ACC"/>
<path d="M175.012 46.49C174.949 47.6416 175.345 48.7715 176.113 49.6322C176.881 50.4926 177.958 51.0141 179.11 51.0822C179.194 51.0822 179.282 51.0822 179.361 51.0822C180.212 51.0815 181.044 50.8316 181.754 50.3636C182.464 49.8954 183.021 49.2296 183.357 48.4482C183.693 47.6668 183.792 46.8042 183.643 45.9668C183.494 45.1294 183.103 44.354 182.518 43.7364C181.934 43.119 181.181 42.6864 180.353 42.4922C179.525 42.2977 178.658 42.3502 177.859 42.6432C177.061 42.9361 176.366 43.4567 175.86 44.1403C175.354 44.824 175.059 45.6407 175.012 46.49Z" fill="white"/>
<path d="M158.791 45.3655C158.514 45.35 158.238 45.417 157.998 45.5582C157.759 45.6996 157.567 45.9087 157.446 46.1592C157.325 46.4097 157.282 46.6903 157.32 46.9656C157.359 47.241 157.479 47.4986 157.664 47.7061C157.849 47.9133 158.092 48.0612 158.361 48.1308C158.63 48.2004 158.914 48.1885 159.176 48.0968C159.439 48.005 159.668 47.8374 159.836 47.6154C160.003 47.3933 160.101 47.1267 160.116 46.849C160.127 46.6647 160.101 46.4799 160.041 46.3054C159.98 46.131 159.885 45.9701 159.762 45.8322C159.639 45.6944 159.49 45.5824 159.323 45.5022C159.157 45.4221 158.976 45.3756 158.791 45.3655Z" fill="white"/>
<path d="M174.737 21.2313C174.985 21.1053 175.189 20.9088 175.325 20.6668C175.461 20.4246 175.523 20.1477 175.501 19.8708C175.48 19.5939 175.377 19.3295 175.206 19.111C175.035 18.8925 174.803 18.7295 174.539 18.6427C174.275 18.5559 173.992 18.5492 173.724 18.6233C173.456 18.6974 173.217 18.8491 173.035 19.0593C172.854 19.2694 172.739 19.5286 172.704 19.8041C172.67 20.0797 172.718 20.3592 172.842 20.6075C172.925 20.773 173.04 20.9205 173.181 21.0415C173.321 21.1625 173.484 21.2545 173.66 21.3125C173.836 21.3705 174.022 21.3931 174.207 21.3791C174.392 21.3652 174.572 21.315 174.737 21.2313Z" fill="white"/>
<path d="M179.153 28.9305C179.537 28.7369 179.854 28.4341 180.066 28.0601C180.277 27.6863 180.373 27.2579 180.342 26.8295C180.31 26.4008 180.152 25.9913 179.887 25.6528C179.623 25.3142 179.264 25.0615 178.856 24.9269C178.448 24.7921 178.009 24.7815 177.595 24.8963C177.181 25.0109 176.81 25.2459 176.529 25.5713C176.249 25.8966 176.071 26.2981 176.018 26.7245C175.966 27.151 176.041 27.5835 176.234 27.9673C176.494 28.4819 176.947 28.8723 177.494 29.0529C178.041 29.2335 178.638 29.1894 179.153 28.9305Z" fill="white"/>
<path d="M164.298 34.2243C164.594 34.4184 164.941 34.5203 165.295 34.5171C165.65 34.5139 165.995 34.4057 166.288 34.2063C166.58 34.0068 166.807 33.7251 166.94 33.3967C167.072 33.0681 167.104 32.7079 167.032 32.3613C166.96 32.0145 166.786 31.6971 166.533 31.4491C166.28 31.201 165.96 31.0335 165.612 30.9677C165.264 30.9019 164.904 30.9408 164.578 31.0793C164.253 31.218 163.975 31.4502 163.781 31.7465C163.521 32.1437 163.43 32.6277 163.527 33.0925C163.624 33.5571 163.901 33.9641 164.298 34.2243Z" fill="white"/>
<path d="M166.944 44.5905C166.515 44.5659 166.088 44.6693 165.717 44.8875C165.346 45.1059 165.049 45.4289 164.862 45.8164C164.675 46.2039 164.607 46.6381 164.667 47.0639C164.727 47.4899 164.912 47.8887 165.198 48.2095C165.484 48.5305 165.859 48.7592 166.276 48.8669C166.692 48.9746 167.132 48.9563 167.538 48.8143C167.944 48.6724 168.299 48.4133 168.557 48.0697C168.816 47.726 168.967 47.3133 168.991 46.8839C169.024 46.3083 168.826 45.7436 168.443 45.3135C168.059 44.8833 167.52 44.6234 166.944 44.5905Z" fill="white"/>
<path d="M164.542 59.1896C164.226 59.3488 163.964 59.5984 163.79 59.9066C163.615 60.2149 163.536 60.5679 163.562 60.9209C163.588 61.2742 163.719 61.6116 163.937 61.8906C164.155 62.1697 164.451 62.378 164.787 62.4889C165.123 62.5996 165.485 62.6084 165.826 62.5137C166.167 62.4191 166.473 62.2252 166.704 61.9569C166.935 61.6888 167.082 61.3579 167.125 61.0064C167.168 60.6549 167.105 60.2984 166.946 59.9822C166.841 59.772 166.695 59.5849 166.517 59.4313C166.339 59.2775 166.132 59.1606 165.909 59.0869C165.685 59.0132 165.45 58.9846 165.215 59.002C164.981 59.0197 164.752 59.0834 164.542 59.1896Z" fill="white"/>
<path d="M172.988 40.0947C173.41 40.3721 173.906 40.5177 174.412 40.5134C174.917 40.5091 175.41 40.3549 175.829 40.0704C176.247 39.7859 176.571 39.3837 176.76 38.9148C176.95 38.446 176.996 37.9314 176.893 37.4362C176.79 36.9411 176.543 36.4877 176.182 36.1329C175.822 35.7784 175.364 35.5389 174.867 35.4444C174.371 35.35 173.857 35.4049 173.391 35.6024C172.926 35.8 172.529 36.131 172.252 36.5538C172.067 36.8344 171.94 37.1489 171.877 37.4789C171.814 37.8088 171.817 38.1479 171.885 38.4768C171.954 38.8056 172.086 39.118 172.275 39.3956C172.464 39.6732 172.707 39.9108 172.988 40.0947Z" fill="white"/>
<path d="M199.775 28.7554C200.135 28.9913 200.556 29.1153 200.986 29.1119C201.416 29.1082 201.836 28.9771 202.191 28.7351C202.547 28.4933 202.823 28.1513 202.984 27.7523C203.145 27.3537 203.185 26.916 203.097 26.4949C203.01 26.0739 202.799 25.6881 202.493 25.3866C202.186 25.0851 201.797 24.8813 201.374 24.8009C200.951 24.7206 200.515 24.7675 200.119 24.9355C199.723 25.1035 199.386 25.3853 199.15 25.745C198.993 25.9839 198.885 26.2509 198.831 26.5315C198.778 26.812 198.78 27.1002 198.838 27.3797C198.897 27.6593 199.009 27.9249 199.17 28.1607C199.331 28.3968 199.536 28.5988 199.775 28.7554Z" fill="white"/>
<path d="M204.236 21.0835C204.468 21.2357 204.741 21.3155 205.019 21.313C205.297 21.3104 205.568 21.2255 205.797 21.069C206.027 20.9125 206.205 20.6914 206.309 20.4337C206.413 20.1759 206.439 19.8931 206.382 19.621C206.326 19.3488 206.19 19.0995 205.992 18.9046C205.793 18.7097 205.542 18.5779 205.269 18.5258C204.996 18.4738 204.713 18.5038 204.458 18.6122C204.201 18.7206 203.984 18.9024 203.831 19.1347C203.729 19.2892 203.659 19.4621 203.624 19.6438C203.59 19.8254 203.592 20.0121 203.629 20.193C203.667 20.3741 203.739 20.5459 203.844 20.6987C203.948 20.8515 204.081 20.9823 204.236 21.0835Z" fill="white"/>
<path d="M200.118 42.3352C199.547 42.3027 198.976 42.383 198.436 42.5712C197.897 42.7595 197.4 43.0522 196.974 43.4328C196.547 43.8131 196.2 44.2736 195.952 44.7884C195.703 45.3029 195.559 45.8614 195.527 46.4318C195.494 47.0023 195.574 47.5735 195.763 48.1131C195.951 48.6524 196.244 49.1495 196.624 49.576C197.004 50.0022 197.465 50.3494 197.98 50.5977C198.494 50.8461 199.053 50.9906 199.623 51.0231C199.708 51.0231 199.795 51.0231 199.873 51.0231C201.006 51.0229 202.094 50.5812 202.906 49.7916C203.718 49.002 204.19 47.9268 204.222 46.7947C204.254 45.6624 203.843 44.5623 203.076 43.7283C202.31 42.8943 201.248 42.392 200.118 42.3283V42.3352Z" fill="white"/>
<path d="M180.583 39.7893C180.944 40.5097 181.5 41.1152 182.186 41.5371C182.873 41.9591 183.664 42.1809 184.47 42.1775C185.213 42.1772 185.943 41.9871 186.592 41.6245C187.24 41.2623 187.785 40.7397 188.174 40.1072C188.564 39.4746 188.785 38.7529 188.816 38.0109C188.847 37.2686 188.688 36.5307 188.354 35.8675C187.834 34.8369 186.927 34.0551 185.831 33.6937C184.735 33.3321 183.541 33.4208 182.51 33.9403C181.48 34.4596 180.698 35.367 180.336 36.4631C179.975 37.5589 180.063 38.7537 180.583 39.7841V39.7893Z" fill="white"/>
<path d="M203.659 35.601C203.208 35.8287 202.834 36.1851 202.585 36.6251C202.336 37.0654 202.223 37.5694 202.261 38.0736C202.298 38.5778 202.485 39.0597 202.796 39.4581C203.107 39.8565 203.53 40.1538 204.01 40.3123C204.49 40.4709 205.006 40.4833 205.493 40.3483C205.981 40.2135 206.417 39.9369 206.747 39.5541C207.078 39.1712 207.287 38.6991 207.349 38.1973C207.411 37.6954 207.322 37.1865 207.095 36.7348C206.79 36.1291 206.256 35.6697 205.612 35.4571C204.968 35.2445 204.266 35.2962 203.659 35.601Z" fill="white"/>
<path d="M189.452 20.4215C189.805 20.4413 190.156 20.356 190.461 20.1765C190.766 19.9968 191.011 19.7309 191.164 19.4123C191.318 19.0938 191.374 18.7368 191.325 18.3864C191.276 18.0361 191.125 17.708 190.889 17.4438C190.654 17.1795 190.346 16.9909 190.004 16.9016C189.661 16.8124 189.3 16.8266 188.966 16.9424C188.632 17.0582 188.339 17.2704 188.126 17.5523C187.912 17.8341 187.786 18.1731 187.765 18.5261C187.751 18.7615 187.783 18.9974 187.86 19.2203C187.937 19.4431 188.057 19.6486 188.214 19.8248C188.371 20.001 188.561 20.1443 188.774 20.2467C188.986 20.3492 189.217 20.4086 189.452 20.4215Z" fill="white"/>
<path d="M189.432 31.6944C189.937 31.7221 190.439 31.5996 190.874 31.3424C191.309 31.0852 191.658 30.7046 191.877 30.2491C192.096 29.7934 192.175 29.2831 192.104 28.7826C192.033 28.282 191.816 27.8138 191.479 27.4368C191.142 27.0599 190.701 26.7913 190.211 26.6651C189.722 26.5387 189.206 26.5604 188.729 26.7274C188.252 26.8941 187.834 27.1986 187.53 27.6025C187.226 28.0063 187.048 28.4912 187.02 28.996C187.001 29.3316 187.048 29.6676 187.159 29.985C187.27 30.3023 187.442 30.5948 187.666 30.8453C187.89 31.096 188.162 31.3 188.465 31.4456C188.768 31.5914 189.096 31.6758 189.432 31.6944Z" fill="white"/>
<path d="M175.575 57.7999C176.026 57.5724 176.4 57.216 176.649 56.776C176.899 56.336 177.012 55.8317 176.974 55.3275C176.937 54.8231 176.751 54.341 176.44 53.9426C176.129 53.5439 175.706 53.2464 175.226 53.088C174.746 52.9294 174.229 52.9167 173.742 53.0518C173.254 53.1868 172.818 53.4632 172.488 53.8461C172.158 54.2292 171.948 54.7016 171.886 55.2034C171.825 55.7053 171.913 56.2144 172.141 56.6662C172.446 57.2716 172.979 57.731 173.623 57.9436C174.267 58.1562 174.969 58.1044 175.575 57.7999Z" fill="white"/>
<path d="M191.08 35.424C190.551 36.233 190.307 37.1954 190.386 38.1588C190.464 39.1224 190.863 40.032 191.517 40.7438C192.171 41.4556 193.043 41.9291 193.997 42.0893C194.95 42.2493 195.93 42.087 196.781 41.6278C197.631 41.1686 198.305 40.4388 198.694 39.554C199.084 38.6692 199.167 37.6798 198.931 36.7422C198.695 35.8048 198.153 34.9728 197.39 34.3779C196.628 33.783 195.69 33.4593 194.723 33.458C194 33.4578 193.289 33.6374 192.653 33.9807C192.017 34.3238 191.477 34.8199 191.08 35.424Z" fill="white"/>
<path d="M198.646 53.6161C198.259 52.8469 197.653 52.21 196.903 51.7857C196.154 51.3616 195.296 51.1691 194.437 51.2326C193.578 51.2963 192.758 51.6132 192.079 52.1433C191.401 52.6733 190.895 53.3927 190.625 54.2105C190.356 55.0281 190.334 55.9075 190.565 56.7372C190.795 57.5669 191.266 58.3097 191.919 58.8714C192.571 59.4333 193.375 59.7889 194.23 59.8937C195.085 59.9981 195.951 59.8469 196.72 59.459C197.232 59.2042 197.689 58.8503 198.064 58.4178C198.438 57.9853 198.723 57.4831 198.903 56.9397C199.082 56.3962 199.151 55.8227 199.108 55.2521C199.063 54.6815 198.907 54.1254 198.646 53.6161Z" fill="white"/>
<path d="M206.244 53.3124C205.821 53.035 205.325 52.8894 204.819 52.8936C204.314 52.898 203.821 53.0522 203.403 53.3367C202.985 53.6212 202.66 54.0234 202.471 54.4922C202.281 54.9612 202.235 55.4757 202.338 55.9708C202.441 56.466 202.688 56.9194 203.049 57.274C203.41 57.6284 203.867 57.8682 204.364 57.9628C204.861 58.0571 205.374 58.0022 205.84 57.8046C206.306 57.6072 206.702 57.2761 206.98 56.8533C207.164 56.5724 207.291 56.2582 207.353 55.9282C207.416 55.5982 207.413 55.2592 207.345 54.9304C207.277 54.6014 207.144 54.2894 206.955 54.0118C206.766 53.7341 206.525 53.4966 206.244 53.3124Z" fill="white"/>
<path d="M188.15 57.9836C188.68 57.1738 188.926 56.2102 188.847 55.2452C188.769 54.2803 188.37 53.3692 187.716 52.6561C187.061 51.943 186.187 51.4687 185.232 51.3082C184.277 51.1478 183.297 51.3104 182.444 51.77C181.593 52.2298 180.918 52.9608 180.528 53.847C180.139 54.7332 180.055 55.724 180.292 56.6629C180.529 57.6016 181.072 58.4344 181.836 59.0298C182.599 59.6251 183.539 59.9488 184.507 59.9496C185.23 59.9524 185.943 59.7742 186.579 59.4306C187.215 59.0872 187.756 58.5898 188.15 57.9836Z" fill="white"/>
<path d="M179.454 64.6524C179.094 64.4164 178.672 64.2923 178.242 64.296C177.812 64.2996 177.393 64.4306 177.037 64.6727C176.682 64.9146 176.406 65.2566 176.244 65.6552C176.083 66.0542 176.044 66.4918 176.131 66.9129C176.219 67.334 176.429 67.7197 176.736 68.0212C177.043 68.3228 177.432 68.5266 177.855 68.6069C178.277 68.687 178.714 68.6402 179.11 68.472C179.506 68.304 179.843 68.0224 180.079 67.6626C180.395 67.1806 180.507 66.5926 180.389 66.0281C180.272 65.4636 179.936 64.9688 179.454 64.6524Z" fill="white"/>
<path d="M189.612 61.7129C189.107 61.6851 188.605 61.8074 188.17 62.0645C187.735 62.3217 187.386 62.7021 187.167 63.1577C186.948 63.6131 186.869 64.1234 186.939 64.6239C187.01 65.1245 187.228 65.5927 187.564 65.9697C187.901 66.3466 188.342 66.6152 188.831 66.7419C189.321 66.8683 189.837 66.8467 190.314 66.6803C190.791 66.5135 191.208 66.2094 191.513 65.8058C191.817 65.4021 191.995 64.9175 192.024 64.4129C192.043 64.0771 191.996 63.7409 191.885 63.4237C191.774 63.1061 191.601 62.8137 191.377 62.5627C191.153 62.3121 190.882 62.1079 190.579 61.9621C190.276 61.8162 189.948 61.7315 189.612 61.7129Z" fill="white"/>
<path d="M200.075 64.4774C199.692 64.6721 199.375 64.9758 199.165 65.3503C198.954 65.7249 198.859 66.1533 198.892 66.5817C198.925 67.0099 199.084 67.4189 199.348 67.757C199.614 68.0952 199.973 68.3472 200.381 68.4814C200.789 68.6156 201.228 68.6259 201.641 68.5111C202.055 68.3963 202.426 68.1613 202.707 67.8361C202.987 67.5106 203.165 67.1096 203.218 66.6834C203.271 66.2571 203.196 65.8246 203.004 65.4406C202.875 65.1845 202.697 64.9562 202.48 64.769C202.263 64.5821 202.011 64.4395 201.739 64.3501C201.467 64.2605 201.18 64.2256 200.894 64.2476C200.608 64.2693 200.33 64.3475 200.075 64.4774Z" fill="white"/>
</g>
</g>
<defs>
<filter id="filter0_d_581_8890" x="139" y="0" width="75.6" height="75.6" filterUnits="userSpaceOnUse" color-interpolation-filters="sRGB">
<feFlood flood-opacity="0" result="BackgroundImageFix"/>
<feColorMatrix in="SourceAlpha" type="matrix" values="0 0 0 0 0 0 0 0 0 0 0 0 0 0 0 0 0 0 127 0" result="hardAlpha"/>
<feOffset dx="2.8" dy="2.8"/>
<feGaussianBlur stdDeviation="1.4"/>
<feComposite in2="hardAlpha" operator="out"/>
<feColorMatrix type="matrix" values="0 0 0 0 0 0 0 0 0 0 0 0 0 0 0 0 0 0 0.25 0"/>
<feBlend mode="normal" in2="BackgroundImageFix" result="effect1_dropShadow_581_8890"/>
<feBlend mode="normal" in="SourceGraphic" in2="effect1_dropShadow_581_8890" result="shape"/>
</filter>
</defs>
</svg>
