<svg width="238" height="70" viewBox="0 0 238 70" fill="none" xmlns="http://www.w3.org/2000/svg">
<path d="M98.209 52.5V17.8818H111.867C114.493 17.8818 116.73 18.3832 118.578 19.3862C120.426 20.3779 121.835 21.7583 122.803 23.5275C123.784 25.2855 124.274 27.3139 124.274 29.6128C124.274 31.9117 123.779 33.94 122.787 35.698C121.795 37.4559 120.358 38.8251 118.476 39.8056C116.606 40.7859 114.34 41.2761 111.681 41.2761H102.976V35.4106H110.498C111.907 35.4106 113.067 35.1683 113.98 34.6838C114.904 34.188 115.591 33.5062 116.042 32.6385C116.504 31.7595 116.735 30.7509 116.735 29.6128C116.735 28.4633 116.504 27.4604 116.042 26.604C115.591 25.7363 114.904 25.0657 113.98 24.5925C113.056 24.1079 111.884 23.8656 110.464 23.8656H105.528V52.5H98.209ZM136.427 17.8818V52.5H129.226V17.8818H136.427ZM159.178 41.4452V26.5364H166.379V52.5H159.466V47.7839H159.195C158.609 49.3053 157.635 50.5279 156.271 51.4519C154.919 52.376 153.268 52.8381 151.319 52.8381C149.583 52.8381 148.056 52.4436 146.738 51.6548C145.419 50.866 144.388 49.7447 143.645 48.291C142.912 46.8373 142.54 45.0963 142.529 43.0679V26.5364H149.73V41.7832C149.741 43.3158 150.152 44.5272 150.964 45.4175C151.775 46.3077 152.862 46.7528 154.226 46.7528C155.094 46.7528 155.905 46.5556 156.66 46.1612C157.415 45.7556 158.023 45.1582 158.485 44.3694C158.958 43.5806 159.189 42.6058 159.178 41.4452ZM188.649 35.4275V41.1409H172.861V35.4275H188.649ZM208.928 26.5364V31.9455H193.293V26.5364H208.928ZM196.842 20.3159H204.043V44.5216C204.043 45.1865 204.144 45.7048 204.347 46.0767C204.55 46.4373 204.832 46.6908 205.193 46.8373C205.564 46.9838 205.993 47.0571 206.477 47.0571C206.815 47.0571 207.153 47.0289 207.492 46.9726C207.83 46.905 208.089 46.8543 208.269 46.8205L209.401 52.1788C209.041 52.2915 208.534 52.4211 207.88 52.5676C207.226 52.7254 206.432 52.8211 205.497 52.855C203.761 52.9226 202.24 52.6916 200.933 52.1619C199.637 51.6323 198.628 50.8096 197.907 49.694C197.186 48.5784 196.831 47.1698 196.842 45.4681V20.3159ZM235.229 33.94L228.637 34.3457C228.524 33.7823 228.282 33.2752 227.91 32.8244C227.538 32.3624 227.048 31.9961 226.439 31.7257C225.842 31.444 225.127 31.3031 224.293 31.3031C223.177 31.3031 222.236 31.5397 221.47 32.0131C220.703 32.4751 220.32 33.0949 220.32 33.8724C220.32 34.4922 220.568 35.0162 221.064 35.4444C221.56 35.8727 222.411 36.2164 223.617 36.4756L228.316 37.4221C230.84 37.9405 232.722 38.7744 233.961 39.9239C235.201 41.0733 235.821 42.5833 235.821 44.454C235.821 46.1556 235.319 47.6487 234.316 48.9333C233.325 50.2181 231.961 51.2209 230.226 51.9422C228.501 52.6521 226.513 53.0071 224.259 53.0071C220.822 53.0071 218.083 52.2915 216.044 50.8604C214.016 49.418 212.826 47.4571 212.477 44.978L219.56 44.6061C219.774 45.6541 220.292 46.4542 221.115 47.0064C221.937 47.5473 222.991 47.8178 224.275 47.8178C225.538 47.8178 226.552 47.5755 227.318 47.0909C228.096 46.5951 228.49 45.9583 228.501 45.1808C228.49 44.5272 228.214 43.9919 227.673 43.575C227.132 43.1468 226.298 42.82 225.171 42.5946L220.675 41.6987C218.14 41.1916 216.252 40.3126 215.013 39.0618C213.785 37.8109 213.17 36.2164 213.17 34.2781C213.17 32.6103 213.621 31.1735 214.522 29.9678C215.435 28.7619 216.714 27.8323 218.36 27.1787C220.016 26.5251 221.954 26.1983 224.175 26.1983C227.453 26.1983 230.034 26.8913 231.916 28.2774C233.809 29.6635 234.913 31.551 235.229 33.94Z" fill="white"/>
<mask id="mask0_581_8891" style="mask-type:luminance" maskUnits="userSpaceOnUse" x="0" y="0" width="70" height="70">
<path d="M70 0H0V70H70V0Z" fill="white"/>
</mask>
<g mask="url(#mask0_581_8891)">
<g filter="url(#filter0_d_581_8891)">
<path d="M0 35V70H35H70V35V0H35H0V35Z" fill="#007ACC"/>
<path d="M36.0124 46.49C35.9493 47.6416 36.345 48.7715 37.1128 49.6322C37.8809 50.4926 38.9585 51.0141 40.1099 51.0822C40.1943 51.0822 40.2822 51.0822 40.3615 51.0822C41.2118 51.0815 42.0436 50.8316 42.7537 50.3636C43.4639 49.8954 44.0213 49.2296 44.3571 48.4482C44.6929 47.6668 44.7924 46.8042 44.6433 45.9668C44.4943 45.1294 44.1031 44.354 43.5184 43.7364C42.9336 43.119 42.1806 42.6864 41.3527 42.4922C40.5245 42.2977 39.6578 42.3502 38.8594 42.6432C38.0607 42.9361 37.3657 43.4567 36.8597 44.1403C36.3538 44.824 36.0592 45.6407 36.0124 46.49Z" fill="white"/>
<path d="M19.7914 45.3655C19.5137 45.35 19.2378 45.417 18.9983 45.5582C18.7589 45.6996 18.5666 45.9087 18.446 46.1592C18.3253 46.4097 18.2816 46.6903 18.3204 46.9656C18.3592 47.241 18.4788 47.4986 18.664 47.7061C18.8492 47.9133 19.0918 48.0612 19.3609 48.1308C19.6302 48.2004 19.9139 48.1885 20.1764 48.0968C20.4389 48.005 20.6683 47.8374 20.8356 47.6154C21.0029 47.3933 21.1007 47.1267 21.1165 46.849C21.1271 46.6647 21.1014 46.4799 21.0405 46.3054C20.9796 46.131 20.885 45.9701 20.7619 45.8322C20.6388 45.6944 20.4897 45.5824 20.3232 45.5022C20.1566 45.4221 19.9759 45.3756 19.7914 45.3655Z" fill="white"/>
<path d="M35.7374 21.2313C35.9847 21.1053 36.1893 20.9088 36.3254 20.6668C36.4614 20.4246 36.5225 20.1477 36.5012 19.8708C36.4801 19.5939 36.3774 19.3295 36.2061 19.111C36.0349 18.8925 35.8027 18.7295 35.5388 18.6427C35.2752 18.5559 34.9916 18.5492 34.724 18.6233C34.4564 18.6974 34.2168 18.8491 34.0352 19.0593C33.8537 19.2694 33.7386 19.5286 33.7042 19.8041C33.6698 20.0797 33.7178 20.3592 33.842 20.6075C33.9254 20.773 34.0404 20.9205 34.1808 21.0415C34.3213 21.1625 34.4844 21.2545 34.6603 21.3125C34.8363 21.3705 35.0222 21.3931 35.207 21.3791C35.3918 21.3652 35.572 21.315 35.7374 21.2313Z" fill="white"/>
<path d="M40.1529 28.9305C40.5365 28.7369 40.8543 28.4341 41.0659 28.0601C41.2775 27.6863 41.3733 27.2579 41.3417 26.8295C41.3098 26.4008 41.1517 25.9913 40.8872 25.6528C40.6227 25.3142 40.2637 25.0615 39.8557 24.9269C39.4475 24.7921 39.0089 24.7815 38.5947 24.8963C38.1807 25.0109 37.8098 25.2459 37.5291 25.5713C37.2487 25.8966 37.0708 26.2981 37.0183 26.7245C36.9657 27.151 37.0409 27.5835 37.2341 27.9673C37.4936 28.4819 37.9467 28.8723 38.4941 29.0529C39.0413 29.2335 39.6379 29.1894 40.1529 28.9305Z" fill="white"/>
<path d="M25.2985 34.2243C25.5946 34.4184 25.9416 34.5203 26.2957 34.5171C26.65 34.5139 26.9951 34.4057 27.2878 34.2063C27.5805 34.0068 27.8073 33.7251 27.9398 33.3967C28.0722 33.0681 28.1043 32.7079 28.0322 32.3613C27.9598 32.0145 27.7862 31.6971 27.5336 31.4491C27.2807 31.201 26.9602 31.0335 26.6121 30.9677C26.2643 30.9019 25.9046 30.9408 25.5787 31.0793C25.2528 31.218 24.9754 31.4502 24.7816 31.7465C24.5216 32.1437 24.4301 32.6277 24.527 33.0925C24.6239 33.5571 24.9013 33.9641 25.2985 34.2243Z" fill="white"/>
<path d="M27.9442 44.5905C27.5147 44.5659 27.0876 44.6693 26.7169 44.8875C26.3462 45.1059 26.0485 45.4289 25.8616 45.8164C25.6746 46.2039 25.6068 46.6381 25.6667 47.0639C25.7265 47.4899 25.9113 47.8887 26.1978 48.2095C26.484 48.5305 26.8592 48.7592 27.2758 48.8669C27.6921 48.9746 28.1313 48.9563 28.5373 48.8143C28.9433 48.6724 29.2983 48.4133 29.5569 48.0697C29.8158 47.726 29.9668 47.3133 29.9912 46.8839C30.0235 46.3083 29.8262 45.7436 29.4424 45.3135C29.0585 44.8833 28.5196 44.6234 27.9442 44.5905Z" fill="white"/>
<path d="M25.5427 59.1896C25.2263 59.3488 24.9643 59.5984 24.7899 59.9066C24.6155 60.2149 24.5364 60.5679 24.5625 60.9209C24.5887 61.2742 24.7191 61.6116 24.937 61.8906C25.155 62.1697 25.4509 62.378 25.7871 62.4889C26.1235 62.5996 26.4852 62.6084 26.8263 62.5137C27.1677 62.4191 27.4731 62.2252 27.7043 61.9569C27.9354 61.6888 28.0819 61.3579 28.1249 61.0064C28.168 60.6549 28.1057 60.2984 27.9463 59.9822C27.8409 59.772 27.6948 59.5849 27.5169 59.4313C27.3387 59.2775 27.1322 59.1606 26.9089 59.0869C26.6857 59.0132 26.4501 58.9846 26.2155 59.002C25.981 59.0197 25.7525 59.0834 25.5427 59.1896Z" fill="white"/>
<path d="M33.9876 40.0947C34.4104 40.3721 34.906 40.5177 35.4117 40.5134C35.9174 40.5091 36.4104 40.3549 36.8285 40.0704C37.2465 39.7859 37.5709 39.3837 37.7604 38.9148C37.95 38.446 37.9961 37.9314 37.8934 37.4362C37.7904 36.9411 37.5431 36.4877 37.1824 36.1329C36.8218 35.7784 36.3641 35.5389 35.8672 35.4444C35.3705 35.35 34.8568 35.4049 34.3912 35.6024C33.9257 35.8 33.5292 36.131 33.2518 36.5538C33.0672 36.8344 32.9399 37.1489 32.877 37.4789C32.8144 37.8088 32.8172 38.1479 32.8854 38.4768C32.9537 38.8056 33.0864 39.118 33.2752 39.3956C33.4644 39.6732 33.7065 39.9108 33.9876 40.0947Z" fill="white"/>
<path d="M60.7752 28.7554C61.1346 28.9913 61.5561 29.1153 61.9862 29.1119C62.4164 29.1082 62.8357 28.9771 63.1913 28.7351C63.5472 28.4933 63.8228 28.1513 63.9842 27.7523C64.1455 27.3537 64.1847 26.916 64.0972 26.4949C64.0098 26.0739 63.7994 25.6881 63.4926 25.3866C63.1857 25.0851 62.7966 24.8813 62.374 24.8009C61.9514 24.7206 61.5146 24.7675 61.1186 24.9355C60.7226 25.1035 60.3855 25.3853 60.1496 25.745C59.9928 25.9839 59.8848 26.2509 59.8313 26.5315C59.7779 26.812 59.7803 27.1002 59.8384 27.3797C59.8966 27.6593 60.0092 27.9249 60.1699 28.1607C60.3306 28.3968 60.5362 28.5988 60.7752 28.7554Z" fill="white"/>
<path d="M65.2357 21.0835C65.4683 21.2357 65.7408 21.3155 66.0186 21.313C66.2967 21.3104 66.5676 21.2255 66.7972 21.069C67.0271 20.9125 67.2052 20.6914 67.3092 20.4337C67.4135 20.1759 67.4389 19.8931 67.3822 19.621C67.3258 19.3488 67.1897 19.0995 66.9915 18.9046C66.7934 18.7097 66.542 18.5779 66.2689 18.5258C65.9958 18.4738 65.7134 18.5038 65.4576 18.6122C65.2015 18.7206 64.9835 18.9024 64.8308 19.1347C64.7291 19.2892 64.6591 19.4621 64.6245 19.6438C64.5898 19.8254 64.5915 20.0121 64.629 20.193C64.6667 20.3741 64.7395 20.5459 64.8437 20.6987C64.9477 20.8515 65.0811 20.9823 65.2357 21.0835Z" fill="white"/>
<path d="M61.1177 42.3352C60.5472 42.3027 59.976 42.383 59.4364 42.5712C58.8971 42.7595 58.4 43.0522 57.9738 43.4328C57.5473 43.8131 57.2001 44.2736 56.9518 44.7884C56.7034 45.3029 56.5591 45.8614 56.5266 46.4318C56.494 47.0023 56.5742 47.5735 56.7626 48.1131C56.9509 48.6524 57.2436 49.1495 57.624 49.576C58.0043 50.0022 58.465 50.3494 58.9796 50.5977C59.4942 50.8461 60.0526 50.9906 60.6232 51.0231C60.7076 51.0231 60.7955 51.0231 60.873 51.0231C62.0058 51.0229 63.0936 50.5812 63.9059 49.7916C64.7179 49.002 65.19 47.9268 65.2219 46.7947C65.2538 45.6624 64.8428 44.5623 64.0765 43.7283C63.3101 42.8943 62.2485 42.392 61.1177 42.3283V42.3352Z" fill="white"/>
<path d="M41.5829 39.7893C41.9441 40.5097 42.4995 41.1152 43.1862 41.5371C43.8731 41.9591 44.6639 42.1809 45.4701 42.1775C46.2128 42.1772 46.9434 41.9871 47.5917 41.6245C48.2402 41.2623 48.7849 40.7397 49.1743 40.1072C49.5637 39.4746 49.7847 38.7529 49.8159 38.0109C49.8474 37.2686 49.6885 36.5307 49.3539 35.8675C48.8345 34.8369 47.9271 34.0551 46.8311 33.6937C45.7353 33.3321 44.5405 33.4208 43.5101 33.9403C42.4795 34.4596 41.6977 35.367 41.3361 36.4631C40.9747 37.5589 41.0634 38.7537 41.5829 39.7841V39.7893Z" fill="white"/>
<path d="M64.6595 35.601C64.208 35.8287 63.8341 36.1851 63.5853 36.6251C63.3363 37.0654 63.2235 37.5694 63.2609 38.0736C63.2985 38.5778 63.4845 39.0597 63.7959 39.4581C64.1072 39.8565 64.5295 40.1538 65.0097 40.3123C65.4897 40.4709 66.0063 40.4833 66.4935 40.3483C66.9809 40.2135 67.417 39.9369 67.7474 39.5541C68.0776 39.1712 68.2869 38.6991 68.3487 38.1973C68.4108 37.6954 68.3225 37.1865 68.0953 36.7348C67.7897 36.1291 67.2561 35.6697 66.6119 35.4571C65.9677 35.2445 65.2655 35.2962 64.6595 35.601Z" fill="white"/>
<path d="M50.452 20.4215C50.8052 20.4413 51.1563 20.356 51.461 20.1765C51.7658 19.9968 52.0105 19.7309 52.1643 19.4123C52.3181 19.0938 52.3741 18.7368 52.3252 18.3864C52.2763 18.0361 52.1246 17.708 51.8894 17.4438C51.6542 17.1795 51.346 16.9909 51.0038 16.9016C50.6613 16.8124 50.3003 16.8266 49.966 16.9424C49.6318 17.0582 49.3393 17.2704 49.1256 17.5523C48.9118 17.8341 48.7864 18.1731 48.7651 18.5261C48.7506 18.7615 48.7827 18.9974 48.8598 19.2203C48.937 19.4431 49.0574 19.6486 49.2142 19.8248C49.371 20.001 49.5609 20.1443 49.7735 20.2467C49.9859 20.3492 50.2166 20.4086 50.452 20.4215Z" fill="white"/>
<path d="M50.432 31.6944C50.9367 31.7221 51.4386 31.5996 51.8736 31.3424C52.309 31.0852 52.6581 30.7046 52.8772 30.2491C53.0962 29.7934 53.1752 29.2831 53.1044 28.7826C53.0335 28.282 52.816 27.8138 52.4789 27.4368C52.142 27.0599 51.7009 26.7913 51.2114 26.6651C50.722 26.5387 50.2059 26.5604 49.7286 26.7274C49.2516 26.8941 48.8344 27.1986 48.5302 27.6025C48.2261 28.0063 48.0484 28.4912 48.0198 28.996C48.0006 29.3316 48.048 29.6676 48.1589 29.985C48.2698 30.3023 48.4424 30.5948 48.6664 30.8453C48.8904 31.096 49.1618 31.3 49.4646 31.4456C49.7676 31.5914 50.0963 31.6758 50.432 31.6944Z" fill="white"/>
<path d="M36.5746 57.7999C37.0263 57.5724 37.4002 57.216 37.6494 56.776C37.8986 56.336 38.0116 55.8317 37.9744 55.3275C37.9371 54.8231 37.751 54.341 37.4398 53.9426C37.1286 53.5439 36.7062 53.2464 36.2259 53.088C35.7458 52.9294 35.2293 52.9167 34.7419 53.0518C34.2545 53.1868 33.8181 53.4632 33.4879 53.8461C33.1575 54.2292 32.9482 54.7016 32.8863 55.2034C32.8245 55.7053 32.9131 56.2144 33.1405 56.6662C33.4457 57.2716 33.979 57.731 34.6228 57.9436C35.2668 58.1562 35.9687 58.1044 36.5746 57.7999Z" fill="white"/>
<path d="M52.0805 35.424C51.5511 36.233 51.3066 37.1954 51.3856 38.1588C51.4645 39.1224 51.8628 40.032 52.5166 40.7438C53.1708 41.4556 54.0435 41.9291 54.997 42.0893C55.9503 42.2493 56.9299 42.087 57.7806 41.6278C58.6314 41.1686 59.3047 40.4388 59.6941 39.554C60.0836 38.6692 60.1667 37.6798 59.9306 36.7422C59.6946 35.8048 59.1526 34.9728 58.3904 34.3779C57.6284 33.783 56.6897 33.4593 55.7231 33.458C55.0004 33.4578 54.2892 33.6374 53.6532 33.9807C53.0174 34.3238 52.4768 34.8199 52.0805 35.424Z" fill="white"/>
<path d="M59.6464 53.6161C59.2591 52.8469 58.6526 52.21 57.9032 51.7857C57.154 51.3616 56.2956 51.1691 55.4371 51.2326C54.5784 51.2963 53.758 51.6132 53.0793 52.1433C52.4008 52.6733 51.8946 53.3927 51.6252 54.2105C51.3556 55.0281 51.3344 55.9075 51.5647 56.7372C51.795 57.5669 52.2662 58.3097 52.9186 58.8714C53.571 59.4333 54.3754 59.7889 55.2301 59.8937C56.0848 59.9981 56.9512 59.8469 57.72 59.459C58.2324 59.2042 58.689 58.8503 59.0638 58.4178C59.4383 57.9853 59.7234 57.4831 59.9026 56.9397C60.0818 56.3962 60.1514 55.8227 60.1075 55.2521C60.0634 54.6815 59.9068 54.1254 59.6464 53.6161Z" fill="white"/>
<path d="M67.2435 53.3124C66.8205 53.035 66.3249 52.8894 65.8191 52.8936C65.3134 52.898 64.8204 53.0522 64.4023 53.3367C63.9843 53.6212 63.6601 54.0234 63.4706 54.4922C63.2811 54.9612 63.2347 55.4757 63.3377 55.9708C63.4405 56.466 63.6879 56.9194 64.0485 57.274C64.4093 57.6284 64.8667 57.8682 65.3636 57.9628C65.8605 58.0571 66.3742 58.0022 66.8397 57.8046C67.3053 57.6072 67.7018 57.2761 67.9793 56.8533C68.1634 56.5724 68.2905 56.2582 68.3531 55.9282C68.4161 55.5982 68.413 55.2592 68.3447 54.9304C68.2765 54.6014 68.144 54.2894 67.9551 54.0118C67.766 53.7341 67.5243 53.4966 67.2435 53.3124Z" fill="white"/>
<path d="M49.15 57.9836C49.6805 57.1738 49.926 56.2102 49.8474 55.2452C49.7686 54.2803 49.3704 53.3692 48.7156 52.6561C48.0608 51.943 47.187 51.4687 46.2322 51.3082C45.2774 51.1478 44.2966 51.3104 43.4445 51.77C42.5926 52.2298 41.9183 52.9608 41.5284 53.847C41.1386 54.7332 41.0554 55.724 41.2924 56.6629C41.5291 57.6016 42.0721 58.4344 42.8356 59.0298C43.5992 59.6251 44.5393 59.9488 45.5074 59.9496C46.2305 59.9524 46.9428 59.7742 47.5792 59.4306C48.2155 59.0872 48.7556 58.5898 49.15 57.9836Z" fill="white"/>
<path d="M40.4537 64.6524C40.094 64.4164 39.6725 64.2923 39.2423 64.296C38.8122 64.2996 38.3929 64.4306 38.0373 64.6727C37.6817 64.9146 37.4058 65.2566 37.2444 65.6552C37.0833 66.0542 37.0439 66.4918 37.1314 66.9129C37.219 67.334 37.4295 67.7197 37.7362 68.0212C38.0429 68.3228 38.4321 68.5266 38.8547 68.6069C39.2772 68.687 39.7143 68.6402 40.1101 68.472C40.506 68.304 40.8433 68.0224 41.0791 67.6626C41.3951 67.1806 41.5069 66.5926 41.3895 66.0281C41.2724 65.4636 40.9357 64.9688 40.4537 64.6524Z" fill="white"/>
<path d="M50.6117 61.7129C50.1068 61.6851 49.6054 61.8074 49.1701 62.0645C48.735 62.3217 48.3859 62.7021 48.1666 63.1577C47.9476 63.6131 47.8686 64.1234 47.9392 64.6239C48.0101 65.1245 48.2276 65.5927 48.5642 65.9697C48.9011 66.3466 49.342 66.6152 49.8314 66.7419C50.3207 66.8683 50.8366 66.8467 51.3138 66.6803C51.7912 66.5135 52.2081 66.2094 52.5127 65.8058C52.817 65.4021 52.9949 64.9175 53.024 64.4129C53.043 64.0771 52.9958 63.7409 52.8849 63.4237C52.774 63.1061 52.6014 62.8137 52.3774 62.5627C52.1534 62.3121 51.882 62.1079 51.5792 61.9621C51.2762 61.8162 50.9475 61.7315 50.6117 61.7129Z" fill="white"/>
<path d="M61.0748 64.4774C60.6918 64.6721 60.3752 64.9758 60.1648 65.3503C59.9541 65.7249 59.8594 66.1533 59.8921 66.5817C59.9248 67.0099 60.0838 67.4189 60.3487 67.757C60.6138 68.0952 60.9729 68.3472 61.381 68.4814C61.7892 68.6156 62.2279 68.6259 62.6417 68.5111C63.0556 68.3963 63.4263 68.1613 63.707 67.8361C63.9876 67.5106 64.1655 67.1096 64.2183 66.6834C64.2713 66.2571 64.1965 65.8246 64.004 65.4406C63.8754 65.1845 63.6975 64.9562 63.4806 64.769C63.2637 64.5821 63.0117 64.4395 62.7397 64.3501C62.4674 64.2605 62.1801 64.2256 61.8945 64.2476C61.6087 64.2693 61.3302 64.3475 61.0748 64.4774Z" fill="white"/>
</g>
</g>
<defs>
<filter id="filter0_d_581_8891" x="0" y="0" width="75.6" height="75.6" filterUnits="userSpaceOnUse" color-interpolation-filters="sRGB">
<feFlood flood-opacity="0" result="BackgroundImageFix"/>
<feColorMatrix in="SourceAlpha" type="matrix" values="0 0 0 0 0 0 0 0 0 0 0 0 0 0 0 0 0 0 127 0" result="hardAlpha"/>
<feOffset dx="2.8" dy="2.8"/>
<feGaussianBlur stdDeviation="1.4"/>
<feComposite in2="hardAlpha" operator="out"/>
<feColorMatrix type="matrix" values="0 0 0 0 0 0 0 0 0 0 0 0 0 0 0 0 0 0 0.25 0"/>
<feBlend mode="normal" in2="BackgroundImageFix" result="effect1_dropShadow_581_8891"/>
<feBlend mode="normal" in="SourceGraphic" in2="effect1_dropShadow_581_8891" result="shape"/>
</filter>
</defs>
</svg>
