<svg width="154" height="46" viewBox="0 0 154 46" fill="none" xmlns="http://www.w3.org/2000/svg">
<path d="M63.8242 34.1248V11.623H72.7022C74.4089 11.623 75.8626 11.949 77.0638 12.6009C78.265 13.2455 79.1809 14.1427 79.8106 15.2928C80.4481 16.4354 80.7666 17.7539 80.7666 19.2482C80.7666 20.7424 80.4445 22.0609 79.7997 23.2036C79.155 24.3462 78.2213 25.2362 76.9978 25.8735C75.7821 26.5107 74.3097 26.8293 72.5811 26.8293H66.9228V23.0167H71.8122C72.7277 23.0167 73.482 22.8593 74.0754 22.5443C74.676 22.222 75.1228 21.7789 75.4158 21.2149C75.7161 20.6435 75.8662 19.9879 75.8662 19.2482C75.8662 18.501 75.7161 17.8491 75.4158 17.2924C75.1228 16.7284 74.676 16.2926 74.0754 15.9849C73.4748 15.67 72.7131 15.5125 71.7899 15.5125H68.5817V34.1248H63.8242ZM88.6659 11.623V34.1248H83.9853V11.623H88.6659ZM103.454 26.9392V17.2485H108.135V34.1248H103.641V31.0594H103.465C103.084 32.0483 102.451 32.843 101.565 33.4436C100.686 34.0443 99.6127 34.3446 98.3455 34.3446C97.2171 34.3446 96.2248 34.0882 95.368 33.5755C94.5108 33.0627 93.8406 32.3339 93.3574 31.389C92.881 30.4441 92.6394 29.3124 92.6321 27.994V17.2485H97.3127V27.1589C97.32 28.1551 97.587 28.9425 98.1148 29.5212C98.6422 30.0999 99.3488 30.3892 100.235 30.3892C100.799 30.3892 101.327 30.261 101.817 30.0046C102.308 29.741 102.704 29.3527 103.004 28.84C103.311 28.3272 103.462 27.6936 103.454 26.9392ZM122.61 23.0278V26.7414H112.348V23.0278H122.61ZM135.792 17.2485V20.7644H125.629V17.2485H135.792ZM127.936 13.2052H132.617V28.9389C132.617 29.371 132.682 29.708 132.814 29.9497C132.946 30.1841 133.129 30.3489 133.364 30.4441C133.605 30.5394 133.884 30.5869 134.199 30.5869C134.418 30.5869 134.638 30.5687 134.858 30.532C135.078 30.4881 135.246 30.4551 135.363 30.4332L136.099 33.9161C135.865 33.9893 135.535 34.0736 135.11 34.1688C134.685 34.2714 134.169 34.3336 133.561 34.3556C132.433 34.3995 131.444 34.2494 130.595 33.9051C129.752 33.5608 129.097 33.0261 128.628 32.301C128.159 31.5758 127.929 30.6602 127.936 29.5541V13.2052ZM152.887 22.0609L148.603 22.3246C148.529 21.9583 148.372 21.6287 148.13 21.3357C147.888 21.0354 147.57 20.7973 147.174 20.6215C146.786 20.4384 146.321 20.3469 145.779 20.3469C145.054 20.3469 144.442 20.5007 143.944 20.8084C143.446 21.1087 143.197 21.5115 143.197 22.0169C143.197 22.4198 143.358 22.7604 143.68 23.0387C144.002 23.3171 144.555 23.5405 145.339 23.709L148.394 24.3242C150.034 24.6612 151.257 25.2032 152.063 25.9504C152.869 26.6975 153.272 27.679 153.272 28.8949C153.272 30.001 152.946 30.9715 152.294 31.8065C151.65 32.6416 150.763 33.2935 149.635 33.7623C148.514 34.2237 147.222 34.4544 145.757 34.4544C143.522 34.4544 141.743 33.9893 140.417 33.0591C139.099 32.1215 138.325 30.847 138.098 29.2355L142.702 28.9938C142.841 29.675 143.178 30.1951 143.713 30.554C144.248 30.9056 144.933 31.0814 145.767 31.0814C146.588 31.0814 147.247 30.9239 147.745 30.6089C148.251 30.2866 148.507 29.8728 148.514 29.3674C148.507 28.9425 148.328 28.5946 147.976 28.3236C147.624 28.0453 147.082 27.8328 146.35 27.6863L143.427 27.104C141.779 26.7744 140.552 26.2031 139.747 25.39C138.948 24.5769 138.549 23.5405 138.549 22.2806C138.549 21.1966 138.842 20.2626 139.428 19.4789C140.021 18.6951 140.853 18.0908 141.922 17.666C142.999 17.2412 144.259 17.0287 145.702 17.0287C147.833 17.0287 149.511 17.4792 150.734 18.3802C151.965 19.2811 152.682 20.508 152.887 22.0609Z" fill="white"/>
<mask id="mask0_0_1" style="mask-type:luminance" maskUnits="userSpaceOnUse" x="0" y="0" width="46" height="46">
<path d="M45.5 0H0V45.5H45.5V0Z" fill="white"/>
</mask>
<g mask="url(#mask0_0_1)">
<g filter="url(#filter0_d_0_1)">
<path d="M0 22.75V45.5H22.75H45.5V22.75V0H22.75H0V22.75Z" fill="#007ACC"/>
<path d="M23.4066 30.2194C23.3656 30.9679 23.6228 31.7024 24.1218 32.2618C24.6211 32.8211 25.3215 33.1601 26.07 33.2043C26.1249 33.2043 26.182 33.2043 26.2335 33.2043C26.7862 33.2039 27.3269 33.0414 27.7885 32.7372C28.2501 32.4329 28.6124 32.0001 28.8306 31.4922C29.0489 30.9843 29.1136 30.4236 29.0167 29.8793C28.9198 29.335 28.6656 28.831 28.2855 28.4296C27.9054 28.0282 27.4159 27.7471 26.8778 27.6208C26.3395 27.4944 25.7761 27.5285 25.2571 27.7189C24.738 27.9094 24.2862 28.2477 23.9574 28.6921C23.6285 29.1365 23.437 29.6673 23.4066 30.2194Z" fill="white"/>
<path d="M12.8674 29.4868C12.687 29.4767 12.5076 29.5203 12.3519 29.6121C12.1963 29.7039 12.0713 29.8399 11.9929 30.0027C11.9145 30.1655 11.8861 30.3479 11.9113 30.5269C11.9365 30.7059 12.0142 30.8733 12.1346 31.0082C12.255 31.1428 12.4127 31.239 12.5876 31.2842C12.7626 31.3295 12.9471 31.3217 13.1177 31.2621C13.2883 31.2025 13.4374 31.0936 13.5462 30.9492C13.6549 30.8049 13.7185 30.6316 13.7287 30.4511C13.7356 30.3313 13.7189 30.2111 13.6794 30.0977C13.6398 29.9844 13.5783 29.8798 13.4982 29.7902C13.4182 29.7006 13.3213 29.6278 13.2131 29.5757C13.1048 29.5236 12.9874 29.4934 12.8674 29.4868Z" fill="white"/>
<path d="M23.231 13.8006C23.3917 13.7187 23.5247 13.591 23.6132 13.4337C23.7015 13.2763 23.7413 13.0963 23.7274 12.9163C23.7137 12.7364 23.6469 12.5645 23.5357 12.4224C23.4244 12.2804 23.2734 12.1745 23.1019 12.1181C22.9305 12.0616 22.7462 12.0573 22.5723 12.1054C22.3983 12.1536 22.2426 12.2522 22.1246 12.3888C22.0066 12.5254 21.9318 12.6939 21.9094 12.873C21.887 13.0521 21.9182 13.2338 21.999 13.3951C22.0532 13.5028 22.1279 13.5986 22.2192 13.6773C22.3105 13.7559 22.4165 13.8157 22.5309 13.8534C22.6453 13.8911 22.7661 13.9058 22.8862 13.8967C23.0063 13.8877 23.1235 13.855 23.231 13.8006Z" fill="white"/>
<path d="M26.095 18.8044C26.3444 18.6785 26.5509 18.4817 26.6885 18.2386C26.826 17.9956 26.8883 17.7172 26.8677 17.4387C26.8469 17.1601 26.7442 16.8939 26.5723 16.6738C26.4004 16.4538 26.167 16.2896 25.9018 16.2021C25.6365 16.1144 25.3514 16.1076 25.0821 16.1822C24.813 16.2567 24.5719 16.4094 24.3895 16.6209C24.2073 16.8323 24.0916 17.0933 24.0575 17.3705C24.0233 17.6477 24.0722 17.9288 24.1978 18.1783C24.3664 18.5128 24.661 18.7666 25.0168 18.8839C25.3725 19.0014 25.7603 18.9726 26.095 18.8044Z" fill="white"/>
<path d="M16.4479 22.2465C16.6404 22.3726 16.8659 22.4388 17.0961 22.4367C17.3264 22.4346 17.5506 22.3643 17.7409 22.2347C17.9312 22.1051 18.0786 21.9219 18.1647 21.7085C18.2508 21.4949 18.2716 21.2607 18.2248 21.0355C18.1777 20.8101 18.0649 20.6037 17.9007 20.4426C17.7363 20.2813 17.528 20.1724 17.3017 20.1297C17.0756 20.0868 16.8418 20.1122 16.63 20.2022C16.4182 20.2924 16.2379 20.4433 16.1119 20.6359C15.9429 20.8941 15.8834 21.2086 15.9464 21.5108C16.0094 21.8127 16.1897 22.0773 16.4479 22.2465Z" fill="white"/>
<path d="M18.166 28.9828C17.8869 28.9668 17.6092 29.034 17.3683 29.1758C17.1273 29.3178 16.9339 29.5278 16.8123 29.7797C16.6908 30.0315 16.6467 30.3137 16.6856 30.5905C16.7246 30.8674 16.8447 31.1266 17.0309 31.3352C17.2169 31.5438 17.4608 31.6925 17.7316 31.7625C18.0022 31.8325 18.2877 31.8206 18.5516 31.7283C18.8155 31.6361 19.0462 31.4676 19.2143 31.2443C19.3826 31.0209 19.4807 30.7526 19.4965 30.4735C19.5176 30.0994 19.3893 29.7323 19.1398 29.4527C18.8904 29.1731 18.54 29.0042 18.166 28.9828Z" fill="white"/>
<path d="M16.6012 38.4728C16.3956 38.5763 16.2253 38.7385 16.1119 38.9389C15.9985 39.1393 15.9472 39.3687 15.9641 39.5982C15.9812 39.8278 16.0659 40.0471 16.2076 40.2284C16.3492 40.4099 16.5416 40.5453 16.7601 40.6174C16.9788 40.6893 17.2139 40.695 17.4356 40.6335C17.6575 40.572 17.856 40.446 18.0063 40.2716C18.1565 40.0973 18.2517 39.8822 18.2797 39.6537C18.3077 39.4253 18.2672 39.1935 18.1636 38.988C18.095 38.8514 18.0001 38.7298 17.8845 38.6299C17.7687 38.53 17.6344 38.4539 17.4893 38.4061C17.3442 38.3582 17.191 38.3395 17.0386 38.3509C16.8861 38.3624 16.7376 38.4038 16.6012 38.4728Z" fill="white"/>
<path d="M22.087 26.0617C22.3619 26.242 22.684 26.3367 23.0127 26.3339C23.3414 26.3311 23.6619 26.2308 23.9336 26.0459C24.2054 25.861 24.4162 25.5996 24.5394 25.2948C24.6626 24.99 24.6926 24.6555 24.6258 24.3337C24.5589 24.0119 24.3982 23.7172 24.1637 23.4866C23.9293 23.2561 23.6318 23.1004 23.3088 23.039C22.986 22.9776 22.652 23.0134 22.3494 23.1417C22.0469 23.2701 21.7891 23.4853 21.6088 23.7601C21.4888 23.9425 21.4061 24.1469 21.3652 24.3614C21.3245 24.5759 21.3263 24.7963 21.3706 25.01C21.415 25.2238 21.5013 25.4268 21.624 25.6073C21.747 25.7877 21.9043 25.9422 22.087 26.0617Z" fill="white"/>
<path d="M39.5056 18.69C39.7393 18.8433 40.0133 18.9239 40.2928 18.9217C40.5724 18.9193 40.845 18.8341 41.0761 18.6768C41.3074 18.5196 41.4866 18.2973 41.5915 18.038C41.6963 17.7789 41.7218 17.4944 41.665 17.2207C41.6081 16.947 41.4713 16.6962 41.272 16.5002C41.0725 16.3043 40.8195 16.1718 40.5448 16.1196C40.2701 16.0673 39.9862 16.0979 39.7289 16.2071C39.4714 16.3163 39.2524 16.4994 39.099 16.7332C38.9971 16.8885 38.9269 17.0621 38.8921 17.2445C38.8574 17.4268 38.8589 17.6141 38.8967 17.7958C38.9345 17.9775 39.0077 18.1502 39.1122 18.3034C39.2166 18.4569 39.3503 18.5882 39.5056 18.69Z" fill="white"/>
<path d="M42.4057 13.704C42.5569 13.803 42.7339 13.8549 42.9145 13.8532C43.0953 13.8515 43.2714 13.7963 43.4206 13.6946C43.5701 13.5929 43.6858 13.4492 43.7534 13.2816C43.8212 13.1141 43.8377 12.9303 43.8009 12.7534C43.7642 12.5765 43.6757 12.4145 43.5469 12.2877C43.4181 12.1611 43.2547 12.0754 43.0772 12.0415C42.8997 12.0077 42.7162 12.0273 42.5499 12.0977C42.3834 12.1681 42.2417 12.2863 42.1424 12.4373C42.0764 12.5377 42.0309 12.6501 42.0084 12.7682C41.9858 12.8862 41.9869 13.0076 42.0113 13.1252C42.0358 13.2429 42.0831 13.3546 42.1509 13.4539C42.2185 13.5532 42.3052 13.6382 42.4057 13.704Z" fill="white"/>
<path d="M39.731 27.5163C39.3602 27.4952 38.9889 27.5474 38.6382 27.6697C38.2876 27.7921 37.9645 27.9823 37.6874 28.2297C37.4102 28.477 37.1845 28.7763 37.0231 29.1109C36.8617 29.4454 36.7679 29.8084 36.7468 30.1791C36.7256 30.55 36.7777 30.9212 36.9002 31.272C37.0226 31.6225 37.2128 31.9456 37.4601 32.2228C37.7073 32.4999 38.0068 32.7255 38.3412 32.887C38.6757 33.0484 39.0387 33.1423 39.4096 33.1635C39.4644 33.1635 39.5216 33.1635 39.572 33.1635C40.3082 33.1633 41.0154 32.8762 41.5433 32.3629C42.0711 31.8497 42.378 31.1508 42.3987 30.415C42.4194 29.679 42.1523 28.9639 41.6542 28.4218C41.1561 27.8797 40.466 27.5532 39.731 27.5118V27.5163Z" fill="white"/>
<path d="M27.0254 25.8624C27.2601 26.3306 27.6212 26.7242 28.0675 26.9984C28.514 27.2727 29.0281 27.4169 29.5521 27.4147C30.0348 27.4145 30.5097 27.2909 30.9311 27.0553C31.3526 26.8198 31.7067 26.4801 31.9598 26.069C32.2129 25.6578 32.3566 25.1887 32.3768 24.7064C32.3973 24.2239 32.294 23.7443 32.0765 23.3132C31.7389 22.6433 31.1491 22.1351 30.4367 21.9002C29.7244 21.6652 28.9478 21.7228 28.2781 22.0605C27.6082 22.398 27.1 22.9878 26.8649 23.7003C26.63 24.4126 26.6877 25.1892 27.0254 25.859V25.8624Z" fill="white"/>
<path d="M42.0308 23.1403C41.7374 23.2882 41.4943 23.5199 41.3326 23.8059C41.1708 24.0921 41.0974 24.4197 41.1218 24.7475C41.1461 25.0752 41.2671 25.3884 41.4695 25.6474C41.6719 25.9064 41.9464 26.0996 42.2584 26.2026C42.5705 26.3057 42.9062 26.3138 43.2229 26.226C43.5397 26.1384 43.8232 25.9586 44.038 25.7098C44.2526 25.4609 44.3887 25.154 44.4288 24.8278C44.4692 24.5016 44.4118 24.1708 44.2641 23.8772C44.0654 23.4835 43.7186 23.1849 43.2999 23.0467C42.8811 22.9085 42.4247 22.9422 42.0308 23.1403Z" fill="white"/>
<path d="M32.8018 13.2738C33.0314 13.2867 33.2596 13.2312 33.4577 13.1145C33.6558 12.9977 33.8148 12.8249 33.9148 12.6178C34.0148 12.4108 34.0512 12.1787 34.0194 11.951C33.9876 11.7232 33.889 11.51 33.7361 11.3383C33.5832 11.1665 33.3829 11.0439 33.1605 10.9859C32.9379 10.9279 32.7032 10.9371 32.4859 11.0124C32.2687 11.0876 32.0786 11.2256 31.9396 11.4088C31.8006 11.592 31.7192 11.8123 31.7053 12.0418C31.6959 12.1948 31.7168 12.3481 31.7669 12.493C31.817 12.6378 31.8953 12.7714 31.9972 12.8859C32.0991 13.0004 32.2226 13.0936 32.3608 13.1602C32.4988 13.2268 32.6488 13.2654 32.8018 13.2738Z" fill="white"/>
<path d="M32.7816 20.602C33.1097 20.6201 33.4359 20.5404 33.7186 20.3732C34.0016 20.2061 34.2285 19.9587 34.3709 19.6626C34.5133 19.3664 34.5647 19.0347 34.5186 18.7094C34.4725 18.384 34.3312 18.0796 34.112 17.8346C33.8931 17.5896 33.6063 17.4151 33.2882 17.333C32.9701 17.2508 32.6346 17.265 32.3244 17.3735C32.0143 17.4819 31.7431 17.6798 31.5454 17.9423C31.3477 18.2048 31.2322 18.5199 31.2136 18.8481C31.2012 19.0662 31.232 19.2846 31.304 19.4909C31.3762 19.6972 31.4883 19.8873 31.6339 20.0501C31.7795 20.2131 31.9559 20.3457 32.1528 20.4403C32.3497 20.5351 32.5633 20.59 32.7816 20.602Z" fill="white"/>
<path d="M23.777 37.5694C24.0706 37.4216 24.3136 37.1899 24.4756 36.9039C24.6376 36.6179 24.7111 36.2901 24.6869 35.9624C24.6626 35.6345 24.5417 35.3212 24.3394 35.0622C24.1371 34.803 23.8625 34.6097 23.5504 34.5067C23.2383 34.4036 22.9026 34.3953 22.5858 34.4832C22.2689 34.5709 21.9853 34.7506 21.7707 34.9995C21.5559 35.2485 21.4198 35.5556 21.3796 35.8817C21.3395 36.2079 21.397 36.5389 21.5449 36.8325C21.7432 37.226 22.0899 37.5247 22.5083 37.6628C22.9269 37.801 23.3832 37.7674 23.777 37.5694Z" fill="white"/>
<path d="M33.8556 23.024C33.5115 23.5498 33.3526 24.1754 33.404 24.8016C33.4552 25.428 33.7141 26.0192 34.1391 26.4819C34.5643 26.9446 35.1316 27.2523 35.7514 27.3564C36.371 27.4604 37.0077 27.3549 37.5607 27.0564C38.1137 26.758 38.5514 26.2836 38.8045 25.7085C39.0576 25.1334 39.1116 24.4902 38.9582 23.8808C38.8048 23.2715 38.4525 22.7307 37.9571 22.344C37.4618 21.9573 36.8516 21.7469 36.2233 21.7461C35.7536 21.746 35.2913 21.8627 34.8779 22.0858C34.4646 22.3089 34.1132 22.6313 33.8556 23.024Z" fill="white"/>
<path d="M38.7701 34.85C38.5184 34.35 38.1242 33.936 37.6371 33.6602C37.1501 33.3845 36.5922 33.2594 36.0341 33.3007C35.4759 33.3421 34.9427 33.5481 34.5016 33.8926C34.0605 34.2372 33.7315 34.7048 33.5564 35.2363C33.3811 35.7678 33.3674 36.3394 33.5171 36.8787C33.6667 37.418 33.973 37.9008 34.3971 38.2659C34.8212 38.6312 35.344 38.8623 35.8996 38.9304C36.4551 38.9983 37.0183 38.9 37.518 38.6478C37.851 38.4822 38.1478 38.2522 38.3914 37.9711C38.6349 37.69 38.8202 37.3635 38.9367 37.0103C39.0532 36.657 39.0984 36.2842 39.0699 35.9134C39.0412 35.5425 38.9394 35.181 38.7701 34.85Z" fill="white"/>
<path d="M43.7064 34.6531C43.4314 34.4728 43.1093 34.3781 42.7805 34.3809C42.4518 34.3837 42.1313 34.484 41.8596 34.6689C41.5879 34.8538 41.3772 35.1152 41.254 35.42C41.1308 35.7248 41.1007 36.0592 41.1676 36.3811C41.2344 36.703 41.3952 36.9977 41.6296 37.2281C41.8641 37.4585 42.1615 37.6144 42.4844 37.6758C42.8074 37.7371 43.1413 37.7015 43.4439 37.5731C43.7465 37.4447 44.0043 37.2295 44.1846 36.9547C44.3043 36.7721 44.3869 36.5679 44.4276 36.3534C44.4685 36.1389 44.4666 35.9185 44.4222 35.7048C44.3778 35.491 44.2917 35.2881 44.1689 35.1077C44.046 34.9272 43.8889 34.7728 43.7064 34.6531Z" fill="white"/>
<path d="M31.9434 37.6896C32.2882 37.1633 32.4478 36.5369 32.3967 35.9097C32.3455 35.2825 32.0867 34.6903 31.661 34.2267C31.2354 33.7632 30.6675 33.4549 30.0468 33.3506C29.4262 33.2463 28.7887 33.352 28.2348 33.6508C27.6811 33.9497 27.2428 34.4248 26.9894 35.0008C26.736 35.5769 26.6819 36.2209 26.836 36.8312C26.9898 37.4413 27.3427 37.9827 27.839 38.3696C28.3354 38.7566 28.9464 38.967 29.5757 38.9676C30.0457 38.9694 30.5087 38.8535 30.9224 38.6302C31.3359 38.407 31.6871 38.0836 31.9434 37.6896Z" fill="white"/>
<path d="M26.2945 42.0247C26.0607 41.8713 25.7867 41.7906 25.5071 41.793C25.2276 41.7954 24.955 41.8805 24.7238 42.0379C24.4927 42.1951 24.3134 42.4174 24.2085 42.6765C24.1038 42.9358 24.0781 43.2203 24.135 43.494C24.192 43.7677 24.3288 44.0185 24.5281 44.2144C24.7275 44.4105 24.9805 44.5429 25.2551 44.5951C25.5298 44.6472 25.8139 44.6168 26.0712 44.5075C26.3285 44.3983 26.5477 44.2152 26.701 43.9813C26.9064 43.668 26.9791 43.2858 26.9028 42.9189C26.8267 42.552 26.6078 42.2304 26.2945 42.0247Z" fill="white"/>
<path d="M32.898 40.1129C32.5698 40.0948 32.2439 40.1743 31.961 40.3415C31.6782 40.5086 31.4512 40.7559 31.3087 41.052C31.1663 41.3481 31.115 41.6798 31.1609 42.0051C31.207 42.3304 31.3483 42.6348 31.5671 42.8798C31.7861 43.1248 32.0727 43.2994 32.3908 43.3817C32.7089 43.4639 33.0442 43.4499 33.3544 43.3417C33.6646 43.2333 33.9357 43.0357 34.1337 42.7733C34.3314 42.5109 34.4471 42.1959 34.466 41.8679C34.4783 41.6496 34.4476 41.4311 34.3756 41.2249C34.3035 41.0185 34.1913 40.8284 34.0457 40.6653C33.9001 40.5023 33.7237 40.3696 33.5269 40.2748C33.3299 40.1801 33.1163 40.125 32.898 40.1129Z" fill="white"/>
<path d="M39.6947 41.9113C39.4458 42.0379 39.24 42.2353 39.1032 42.4787C38.9663 42.7222 38.9047 43.0007 38.926 43.2791C38.9473 43.5574 39.0506 43.8233 39.2228 44.0431C39.3951 44.2629 39.6285 44.4267 39.8938 44.5139C40.1591 44.6012 40.4443 44.6079 40.7132 44.5332C40.9823 44.4586 41.2232 44.3059 41.4057 44.0945C41.5881 43.8829 41.7037 43.6223 41.738 43.3452C41.7725 43.0681 41.7239 42.787 41.5987 42.5374C41.5152 42.3709 41.3995 42.2226 41.2585 42.1009C41.1175 41.9794 40.9537 41.8867 40.7769 41.8286C40.6 41.7703 40.4132 41.7477 40.2276 41.762C40.0418 41.7761 39.8608 41.8269 39.6947 41.9113Z" fill="white"/>
</g>
</g>
<defs>
<filter id="filter0_d_0_1" x="0" y="0" width="49.14" height="49.14" filterUnits="userSpaceOnUse" color-interpolation-filters="sRGB">
<feFlood flood-opacity="0" result="BackgroundImageFix"/>
<feColorMatrix in="SourceAlpha" type="matrix" values="0 0 0 0 0 0 0 0 0 0 0 0 0 0 0 0 0 0 127 0" result="hardAlpha"/>
<feOffset dx="1.82" dy="1.82"/>
<feGaussianBlur stdDeviation="0.91"/>
<feComposite in2="hardAlpha" operator="out"/>
<feColorMatrix type="matrix" values="0 0 0 0 0 0 0 0 0 0 0 0 0 0 0 0 0 0 0.25 0"/>
<feBlend mode="normal" in2="BackgroundImageFix" result="effect1_dropShadow_0_1"/>
<feBlend mode="normal" in="SourceGraphic" in2="effect1_dropShadow_0_1" result="shape"/>
</filter>
</defs>
</svg>
