<svg width="202" height="290" viewBox="0 0 202 290" fill="none" xmlns="http://www.w3.org/2000/svg">
<path d="M183.069 187.833L173.152 176.669L151.918 195.525L161.835 206.688L183.069 187.833Z" fill="#CBD1D7"/>
<path d="M171.162 197.137C170.983 197.135 170.807 197.098 170.644 197.027C170.48 196.956 170.332 196.853 170.209 196.725C170.088 196.605 169.992 196.463 169.927 196.306C169.862 196.149 169.828 195.981 169.828 195.811C169.828 195.641 169.862 195.473 169.927 195.316C169.992 195.159 170.088 195.017 170.209 194.897L177.753 188.101C178.009 187.896 178.334 187.796 178.661 187.822C178.988 187.848 179.293 187.997 179.514 188.241C179.734 188.484 179.853 188.802 179.846 189.13C179.84 189.459 179.708 189.772 179.478 190.006L171.934 196.802C171.726 197.004 171.451 197.124 171.162 197.137Z" fill="#8DA4B7"/>
<path d="M171.004 197.883C170.706 197.888 170.416 197.788 170.185 197.599C169.954 197.411 169.797 197.146 169.743 196.853C169.451 194.881 168.592 193.035 167.271 191.541C165.95 190.046 164.224 188.968 162.301 188.436C161.976 188.356 161.695 188.153 161.517 187.869C161.339 187.586 161.279 187.244 161.349 186.917C161.382 186.752 161.448 186.595 161.543 186.456C161.638 186.317 161.76 186.199 161.902 186.107C162.044 186.016 162.202 185.954 162.368 185.925C162.534 185.896 162.704 185.901 162.868 185.939C165.253 186.576 167.405 187.885 169.067 189.711C170.728 191.537 171.83 193.801 172.24 196.236C172.301 196.573 172.227 196.921 172.035 197.205C171.842 197.489 171.546 197.686 171.21 197.754L171.004 197.883Z" fill="#8DA4B7"/>
<path d="M162.047 207.357C161.89 207.357 161.734 207.322 161.592 207.255C161.45 207.189 161.324 207.092 161.223 206.971L151.232 195.67C151.052 195.443 150.953 195.162 150.949 194.872C150.971 194.574 151.11 194.296 151.335 194.1L161.866 184.73C161.969 184.626 162.092 184.544 162.226 184.488C162.361 184.432 162.506 184.403 162.652 184.403C162.798 184.403 162.942 184.432 163.077 184.488C163.212 184.544 163.334 184.626 163.437 184.73C163.64 184.941 163.753 185.222 163.753 185.515C163.753 185.808 163.64 186.089 163.437 186.3L153.704 194.924L162.227 204.5L181.796 187.124L173.608 177.882L167.402 183.031C167.177 183.222 166.885 183.316 166.59 183.292C166.296 183.267 166.023 183.127 165.832 182.902C165.64 182.677 165.547 182.385 165.571 182.09C165.595 181.796 165.735 181.523 165.96 181.332L173.015 175.359C173.116 175.257 173.236 175.175 173.369 175.119C173.502 175.064 173.644 175.035 173.788 175.035C173.932 175.035 174.074 175.064 174.207 175.119C174.339 175.175 174.46 175.257 174.56 175.359L184.19 186.248C184.391 186.455 184.504 186.732 184.504 187.021C184.504 187.309 184.391 187.586 184.19 187.793L162.948 206.662C162.868 206.845 162.744 207.004 162.586 207.125C162.429 207.247 162.243 207.327 162.047 207.357Z" fill="#332D28"/>
<path d="M185.27 189.311L174.353 186.891C173.633 186.711 172.981 186.326 172.474 185.785C171.877 185.328 171.422 184.712 171.16 184.008L167.71 173.351C167.318 172.105 167.257 170.778 167.533 169.501C167.808 168.224 168.41 167.04 169.281 166.066L176.13 158.549C176.478 158.165 176.899 157.854 177.367 157.633C177.836 157.411 178.343 157.285 178.861 157.259C179.379 157.234 179.896 157.311 180.384 157.486C180.872 157.661 181.321 157.93 181.704 158.279C182.088 158.627 182.399 159.047 182.621 159.516C182.842 159.984 182.969 160.492 182.994 161.009C183.019 161.527 182.942 162.044 182.767 162.532C182.592 163.02 182.323 163.468 181.975 163.852L175.306 171.188L178.061 179.632L186.712 181.537L193.381 174.226C194.084 173.451 195.067 172.987 196.112 172.937C196.63 172.912 197.147 172.989 197.635 173.164C198.123 173.338 198.572 173.608 198.956 173.956C199.339 174.304 199.651 174.724 199.872 175.193C200.093 175.661 200.22 176.169 200.245 176.686C200.27 177.204 200.193 177.721 200.018 178.209C199.843 178.697 199.574 179.145 199.226 179.529L192.377 187.046C191.498 188.018 190.378 188.739 189.129 189.137C187.881 189.535 186.549 189.595 185.27 189.311Z" fill="#545655"/>
<path d="M77.8729 279.668H52.7942L47.6445 230.345H83.0225L77.8729 279.668Z" fill="#CBD1D7"/>
<path d="M81.686 231.632H48.3164V243.268H81.686V231.632Z" fill="#8DA4B7"/>
<path d="M51.2532 265.972C50.9765 265.974 50.7095 265.871 50.5046 265.685C50.2996 265.5 50.1717 265.244 50.146 264.968L48.4466 248.828C48.4324 248.682 48.4472 248.536 48.4901 248.396C48.533 248.256 48.6032 248.126 48.6965 248.014C48.7899 247.901 48.9046 247.808 49.0341 247.74C49.1635 247.673 49.3052 247.631 49.4508 247.618C49.5949 247.6 49.7412 247.612 49.8808 247.651C50.0205 247.691 50.1507 247.759 50.2636 247.85C50.3766 247.942 50.4699 248.055 50.5382 248.183C50.6065 248.311 50.6482 248.452 50.661 248.596L52.3346 264.737C52.3563 264.882 52.3477 265.029 52.3093 265.17C52.2709 265.311 52.2035 265.443 52.1115 265.557C52.0195 265.671 51.9048 265.764 51.7748 265.831C51.6448 265.898 51.5022 265.938 51.3562 265.947L51.2532 265.972Z" fill="#332D28"/>
<path d="M77.8768 280.774H52.7981C52.5255 280.776 52.2617 280.677 52.0574 280.497C51.8531 280.316 51.7226 280.067 51.6909 279.796L50.7382 270.709C50.7075 270.415 50.7947 270.121 50.9806 269.892C51.1665 269.663 51.4359 269.517 51.7296 269.486C52.0232 269.455 52.317 269.542 52.5464 269.728C52.7757 269.914 52.9219 270.183 52.9526 270.477L53.8023 278.56H76.9756L81.8935 231.477H49.0131L50.249 243.344C50.2699 243.512 50.2524 243.681 50.1976 243.841C50.1429 244 50.0525 244.145 49.9333 244.264C49.8141 244.384 49.6692 244.474 49.5097 244.529C49.3503 244.583 49.1804 244.601 49.0131 244.58C48.869 244.598 48.7227 244.586 48.5831 244.547C48.4434 244.507 48.3132 244.439 48.2003 244.348C48.0874 244.256 47.994 244.143 47.9257 244.015C47.8574 243.887 47.8157 243.746 47.803 243.602L46.4383 230.473C46.4241 230.318 46.4421 230.162 46.491 230.014C46.5399 229.866 46.6188 229.73 46.7227 229.614C46.8266 229.498 46.9533 229.405 47.0948 229.34C47.2364 229.275 47.3898 229.24 47.5455 229.237H83.0264C83.1821 229.24 83.3355 229.275 83.4771 229.34C83.6187 229.405 83.7453 229.498 83.8492 229.614C83.9531 229.73 84.032 229.866 84.0809 230.014C84.1299 230.162 84.1478 230.318 84.1336 230.473L78.984 279.796C78.9523 280.067 78.8218 280.316 78.6175 280.497C78.4132 280.677 78.1494 280.776 77.8768 280.774Z" fill="#332D28"/>
<path d="M75.148 271.689C75.6741 271.689 76.1007 271.262 76.1007 270.736C76.1007 270.21 75.6741 269.784 75.148 269.784C74.6218 269.784 74.1953 270.21 74.1953 270.736C74.1953 271.262 74.6218 271.689 75.148 271.689Z" fill="#332D28"/>
<path d="M82.0703 288.652H48.5977L51.1725 277.042H79.4955L82.0703 288.652Z" fill="#545655"/>
<path d="M58.0987 277.042L55.5239 288.678H48.5977L51.1725 277.042H58.0987Z" fill="#6D6D6D"/>
<path d="M81.8683 288.678H74.942L72.3672 277.042H79.2934L81.8683 288.678Z" fill="#303331"/>
<path d="M82.0711 289.759H48.5985C48.434 289.765 48.2704 289.731 48.1222 289.659C47.9741 289.587 47.8458 289.48 47.7488 289.347C47.648 289.217 47.5753 289.068 47.5354 288.908C47.4955 288.748 47.4893 288.582 47.5171 288.42L50.0919 276.785C50.154 276.544 50.2935 276.33 50.489 276.177C50.6844 276.023 50.9249 275.938 51.1734 275.935H62.1421C62.4357 275.935 62.7173 276.052 62.925 276.259C63.1326 276.467 63.2492 276.748 63.2492 277.042C63.2427 277.333 63.1239 277.611 62.9177 277.817C62.7115 278.024 62.4337 278.142 62.1421 278.149H52.0745L49.9889 287.545H80.6807L78.5951 278.046H67.3175C67.1721 278.046 67.0281 278.017 66.8938 277.962C66.7594 277.906 66.6374 277.824 66.5346 277.722C66.4318 277.619 66.3502 277.497 66.2946 277.363C66.2389 277.228 66.2103 277.084 66.2103 276.939C66.2103 276.645 66.3269 276.364 66.5346 276.156C66.7422 275.949 67.0238 275.832 67.3175 275.832H79.4963C79.7448 275.835 79.9853 275.92 80.1807 276.074C80.3761 276.227 80.5156 276.441 80.5778 276.682L83.1526 288.317C83.1804 288.479 83.1742 288.645 83.1343 288.805C83.0944 288.965 83.0217 289.114 82.9208 289.244C82.836 289.396 82.7131 289.524 82.5641 289.614C82.4152 289.704 82.2453 289.754 82.0711 289.759Z" fill="#332D28"/>
<path d="M119.482 279.668H94.4035L89.2539 230.345H124.632L119.482 279.668Z" fill="#CBD1D7"/>
<path d="M123.295 231.632H89.9258V243.268H123.295V231.632Z" fill="#8DA4B7"/>
<path d="M92.7818 265.972C92.5052 265.974 92.2381 265.871 92.0332 265.685C91.8283 265.5 91.7004 265.244 91.6746 264.968L90.207 248.828C90.1853 248.683 90.1939 248.536 90.2323 248.394C90.2707 248.253 90.3381 248.122 90.4301 248.008C90.5221 247.894 90.6367 247.801 90.7668 247.734C90.8968 247.666 91.0394 247.627 91.1854 247.618C91.3296 247.6 91.4758 247.612 91.6155 247.651C91.7551 247.691 91.8853 247.759 91.9982 247.85C92.1112 247.942 92.2046 248.055 92.2728 248.183C92.3411 248.311 92.3828 248.452 92.3956 248.596L94.0949 264.737C94.1091 264.882 94.0943 265.029 94.0514 265.169C94.0085 265.309 93.9384 265.438 93.845 265.551C93.7517 265.663 93.637 265.756 93.5075 265.824C93.378 265.892 93.2364 265.934 93.0908 265.947L92.7818 265.972Z" fill="#332D28"/>
<path d="M119.485 280.774H94.406C94.1334 280.776 93.8697 280.677 93.6654 280.497C93.4611 280.316 93.3306 280.067 93.2989 279.796L92.3462 270.709C92.3155 270.415 92.4026 270.121 92.5885 269.892C92.7745 269.663 93.0439 269.517 93.3375 269.486C93.6311 269.455 93.925 269.542 94.1543 269.728C94.3837 269.914 94.5298 270.183 94.5605 270.477L95.3587 278.56H118.532L123.424 231.477H90.4923L91.7282 243.344C91.759 243.638 91.6718 243.932 91.4859 244.161C91.3 244.39 91.0306 244.536 90.7369 244.567C90.4433 244.598 90.1495 244.511 89.9201 244.325C89.6907 244.139 89.5446 243.87 89.5139 243.576L88.1492 230.473C88.1351 230.318 88.153 230.162 88.2019 230.014C88.2508 229.866 88.3297 229.73 88.4336 229.614C88.5375 229.498 88.6642 229.405 88.8058 229.34C88.9473 229.275 89.1007 229.24 89.2564 229.237H124.634C124.792 229.238 124.947 229.273 125.089 229.34C125.231 229.406 125.357 229.503 125.458 229.624C125.561 229.738 125.639 229.873 125.687 230.019C125.736 230.165 125.755 230.32 125.742 230.473L120.592 279.796C120.56 280.067 120.43 280.316 120.225 280.497C120.021 280.677 119.757 280.776 119.485 280.774Z" fill="#332D28"/>
<path d="M123.677 288.652H90.2305L92.8053 277.042H121.103L123.677 288.652Z" fill="#545655"/>
<path d="M99.7315 277.042L97.1567 288.678H90.2305L92.8053 277.042H99.7315Z" fill="#6D6D6D"/>
<path d="M123.478 288.678H116.551L113.977 277.042H120.903L123.478 288.678Z" fill="#303331"/>
<path d="M123.681 289.759H90.2079C90.0434 289.765 89.8798 289.731 89.7316 289.659C89.5834 289.587 89.4552 289.48 89.3582 289.347C89.2573 289.217 89.1846 289.068 89.1447 288.908C89.1048 288.748 89.0986 288.582 89.1265 288.42L91.7013 276.785C91.7634 276.544 91.9029 276.33 92.0983 276.177C92.2937 276.023 92.5342 275.938 92.7827 275.935H103.751C104.045 275.935 104.327 276.052 104.534 276.259C104.742 276.467 104.859 276.748 104.859 277.042C104.859 277.336 104.742 277.617 104.534 277.825C104.327 278.032 104.045 278.149 103.751 278.149H93.6839L91.5983 287.545H122.29L120.205 278.046H108.927C108.781 278.046 108.637 278.017 108.503 277.962C108.369 277.906 108.247 277.824 108.144 277.722C108.041 277.619 107.96 277.497 107.904 277.363C107.848 277.228 107.82 277.084 107.82 276.939C107.82 276.645 107.936 276.364 108.144 276.156C108.352 275.949 108.633 275.832 108.927 275.832H121.106C121.354 275.835 121.595 275.92 121.79 276.074C121.986 276.227 122.125 276.441 122.187 276.682L124.762 288.317C124.797 288.479 124.794 288.647 124.754 288.808C124.714 288.968 124.637 289.118 124.53 289.244C124.445 289.396 124.322 289.524 124.174 289.614C124.025 289.704 123.855 289.754 123.681 289.759Z" fill="#332D28"/>
<path d="M86.8865 34.803C86.7553 34.8036 86.6255 34.7764 86.5057 34.7231C86.3859 34.6699 86.2787 34.5918 86.1913 34.4941C86.0135 34.3114 85.9141 34.0667 85.9141 33.8119C85.9141 33.5571 86.0135 33.3123 86.1913 33.1297L89.487 29.9891L82.0201 5.86828C81.9279 5.6225 81.9371 5.35017 82.0458 5.1112C82.1544 4.87223 82.3536 4.68619 82.5994 4.59402C82.8452 4.50185 83.1176 4.5111 83.3566 4.61972C83.5957 4.72834 83.7817 4.92745 83.8739 5.17323L91.5984 29.8861C91.6481 30.0613 91.6504 30.2465 91.6052 30.4229C91.56 30.5992 91.4688 30.7605 91.3409 30.8901L87.6332 34.5456C87.4256 34.7224 87.1589 34.8144 86.8865 34.803Z" fill="#332D28"/>
<path d="M86.6042 65.7463C86.4096 65.7446 86.2199 65.6849 86.0593 65.5749C85.8988 65.4648 85.7748 65.3094 85.703 65.1285L77.0002 42.6037C76.9273 42.425 76.9105 42.2284 76.9518 42.0399C76.9932 41.8515 77.0909 41.68 77.2319 41.5483L83.1282 36.0651C83.217 35.974 83.3231 35.9016 83.4403 35.8522C83.5575 35.8028 83.6834 35.7773 83.8106 35.7773C83.9377 35.7773 84.0636 35.8028 84.1808 35.8522C84.298 35.9016 84.4041 35.974 84.4929 36.0651C84.6706 36.2477 84.7701 36.4925 84.7701 36.7473C84.7701 37.0021 84.6706 37.2468 84.4929 37.4294L79.06 42.578L87.6342 64.382C87.6793 64.5002 87.7004 64.6262 87.6963 64.7527C87.6922 64.8792 87.6629 65.0035 87.6102 65.1186C87.5575 65.2336 87.4823 65.337 87.3892 65.4227C87.296 65.5084 87.1867 65.5746 87.0677 65.6176C86.9301 65.7071 86.7683 65.7521 86.6042 65.7463Z" fill="#332D28"/>
<path d="M149.842 114.091H145.799V80.6258H149.842C151.371 80.6258 152.838 81.2333 153.92 82.3147C155.002 83.3961 155.609 84.8628 155.609 86.3921V108.325C155.609 109.854 155.002 111.321 153.92 112.402C152.838 113.484 151.371 114.091 149.842 114.091Z" fill="#78C277"/>
<path d="M144.896 114.091H140.854V80.6258H144.896C146.426 80.6258 147.893 81.2333 148.975 82.3147C150.056 83.3961 150.664 84.8628 150.664 86.3921V108.325C150.664 109.854 150.056 111.321 148.975 112.402C147.893 113.484 146.426 114.091 144.896 114.091Z" fill="#78C277"/>
<path d="M149.872 115.095H145.803C145.53 115.095 145.268 114.987 145.075 114.793C144.882 114.6 144.773 114.338 144.773 114.065V80.6C144.773 80.3269 144.882 80.065 145.075 79.8718C145.268 79.6787 145.53 79.5703 145.803 79.5703H149.872C151.67 79.5771 153.392 80.2961 154.662 81.5698C155.931 82.8436 156.643 84.5683 156.643 86.3663V108.35C156.637 110.142 155.92 111.857 154.651 113.121C153.382 114.385 151.663 115.095 149.872 115.095ZM146.859 113.061H149.897C151.145 113.048 152.337 112.543 153.214 111.656C154.091 110.769 154.584 109.572 154.583 108.325V86.3406C154.584 85.0888 154.088 83.8879 153.205 83.0003C152.322 82.1128 151.124 81.6107 149.872 81.6039H146.859V113.061Z" fill="#332D28"/>
<path d="M149.635 88.7859C149.362 88.7859 149.1 88.6775 148.907 88.4844C148.714 88.2912 148.605 88.0293 148.605 87.7562V81.5008C148.605 81.2277 148.714 80.9658 148.907 80.7727C149.1 80.5796 149.362 80.4711 149.635 80.4711C149.909 80.4711 150.171 80.5796 150.364 80.7727C150.557 80.9658 150.665 81.2277 150.665 81.5008V87.7562C150.665 88.0293 150.557 88.2912 150.364 88.4844C150.171 88.6775 149.909 88.7859 149.635 88.7859Z" fill="#332D28"/>
<path d="M148.641 196.695L162.129 190.346L151.6 167.987L138.112 174.336L148.641 196.695Z" fill="#CBD1D7"/>
<path d="M144.718 186.557C148.838 176.981 155.172 175.642 155.172 175.642L151.593 167.919L138.977 173.995C138.977 173.995 143.302 189.878 144.718 186.557Z" fill="#8DA4B7"/>
<path d="M148.63 197.807C148.42 197.801 148.216 197.738 148.039 197.624C147.862 197.511 147.719 197.352 147.626 197.163L137.095 174.819C136.971 174.549 136.959 174.241 137.06 173.962C137.161 173.683 137.368 173.454 137.636 173.326L151.102 166.993C151.372 166.87 151.68 166.857 151.959 166.958C152.239 167.059 152.467 167.266 152.595 167.534L163.126 189.878C163.229 190.152 163.229 190.454 163.126 190.728C163.026 191 162.822 191.222 162.56 191.346L149.068 197.704C148.932 197.771 148.782 197.806 148.63 197.807ZM139.567 174.87L149.145 195.233L160.629 189.827L151.051 169.464L139.567 174.87Z" fill="#332D28"/>
<path d="M137.638 175.616C146.469 175.616 153.628 168.459 153.628 159.63C153.628 150.801 146.469 143.644 137.638 143.644C128.807 143.644 121.648 150.801 121.648 159.63C121.648 168.459 128.807 175.616 137.638 175.616Z" fill="#6D6D6D"/>
<path d="M133.646 178.345C142.477 178.345 149.635 171.187 149.635 162.358C149.635 153.53 142.477 146.372 133.646 146.372C124.815 146.372 117.656 153.53 117.656 162.358C117.656 171.187 124.815 178.345 133.646 178.345Z" fill="#545655"/>
<path d="M137.638 176.75C134.252 176.75 130.941 175.746 128.125 173.864C125.31 171.983 123.115 169.31 121.819 166.182C120.523 163.054 120.184 159.612 120.845 156.291C121.505 152.97 123.136 149.92 125.531 147.526C127.925 145.132 130.976 143.501 134.298 142.841C137.619 142.18 141.062 142.519 144.191 143.815C147.319 145.111 149.994 147.305 151.875 150.12C153.756 152.935 154.761 156.245 154.761 159.631C154.761 164.171 152.957 168.525 149.746 171.736C146.535 174.946 142.179 176.75 137.638 176.75ZM137.638 144.751C134.695 144.751 131.817 145.624 129.37 147.259C126.923 148.894 125.015 151.218 123.889 153.937C122.762 156.655 122.467 159.647 123.042 162.533C123.616 165.42 125.033 168.071 127.115 170.152C129.196 172.233 131.848 173.65 134.735 174.224C137.622 174.798 140.614 174.503 143.333 173.377C146.053 172.251 148.377 170.344 150.012 167.897C151.648 165.45 152.521 162.574 152.521 159.631C152.507 155.689 150.935 151.912 148.147 149.124C145.359 146.337 141.581 144.765 137.638 144.751Z" fill="#332D28"/>
<path d="M158.237 209.493C164.167 209.493 168.974 204.687 168.974 198.759C168.974 192.83 164.167 188.024 158.237 188.024C152.307 188.024 147.5 192.83 147.5 198.759C147.5 204.687 152.307 209.493 158.237 209.493Z" fill="#545655"/>
<path opacity="0.5" d="M158.238 205.632C156.878 205.632 155.549 205.228 154.419 204.473C153.288 203.718 152.407 202.645 151.887 201.389C151.366 200.133 151.23 198.751 151.495 197.417C151.761 196.084 152.415 194.859 153.377 193.898C154.338 192.937 155.563 192.282 156.897 192.017C158.23 191.752 159.613 191.888 160.869 192.408C162.125 192.928 163.199 193.809 163.954 194.94C164.71 196.07 165.113 197.399 165.113 198.758C165.113 199.661 164.935 200.555 164.589 201.389C164.244 202.223 163.738 202.98 163.099 203.618C162.461 204.257 161.703 204.763 160.869 205.108C160.035 205.454 159.141 205.632 158.238 205.632ZM158.238 194.485C157.386 194.485 156.554 194.738 155.846 195.211C155.139 195.685 154.588 196.358 154.263 197.145C153.938 197.932 153.855 198.798 154.023 199.632C154.191 200.467 154.603 201.233 155.207 201.833C155.811 202.433 156.579 202.841 157.415 203.004C158.251 203.167 159.116 203.078 159.901 202.748C160.687 202.419 161.356 201.864 161.826 201.154C162.295 200.443 162.543 199.61 162.538 198.758C162.538 198.195 162.427 197.637 162.21 197.117C161.994 196.597 161.677 196.125 161.277 195.728C160.877 195.33 160.403 195.016 159.882 194.803C159.36 194.59 158.801 194.482 158.238 194.485Z" fill="black"/>
<path d="M154.89 184.805C154.712 184.806 154.537 184.756 154.386 184.66C154.235 184.564 154.115 184.427 154.041 184.264L149.432 175.074C149.371 174.962 149.334 174.838 149.324 174.711C149.313 174.584 149.329 174.456 149.37 174.335C149.411 174.214 149.476 174.103 149.562 174.009C149.648 173.915 149.753 173.839 149.87 173.787C149.983 173.73 150.106 173.696 150.232 173.687C150.359 173.679 150.485 173.695 150.605 173.736C150.725 173.776 150.836 173.841 150.93 173.925C151.025 174.009 151.102 174.111 151.157 174.225L155.766 183.415C155.875 183.648 155.891 183.914 155.809 184.159C155.728 184.403 155.556 184.607 155.328 184.728C155.188 184.78 155.04 184.806 154.89 184.805Z" fill="#332D28"/>
<path d="M158.235 210.599C155.891 210.609 153.596 209.923 151.641 208.628C149.687 207.333 148.161 205.488 147.256 203.325C146.352 201.162 146.11 198.779 146.561 196.479C147.012 194.179 148.136 192.064 149.791 190.403C151.445 188.741 153.555 187.608 155.854 187.147C158.153 186.686 160.537 186.918 162.705 187.812C164.872 188.707 166.725 190.225 168.028 192.173C169.332 194.122 170.028 196.413 170.028 198.757C170.021 201.887 168.778 204.887 166.57 207.105C164.361 209.323 161.366 210.579 158.235 210.599ZM158.235 189.13C156.331 189.13 154.469 189.694 152.885 190.752C151.302 191.81 150.068 193.314 149.339 195.073C148.61 196.832 148.419 198.768 148.791 200.636C149.162 202.503 150.079 204.219 151.426 205.565C152.773 206.912 154.489 207.829 156.357 208.2C158.225 208.572 160.161 208.381 161.921 207.652C163.68 206.924 165.184 205.69 166.242 204.106C167.301 202.523 167.865 200.662 167.865 198.757C167.859 196.206 166.842 193.761 165.037 191.957C163.233 190.153 160.787 189.137 158.235 189.13Z" fill="#332D28"/>
<path d="M23.0051 194.265L8.15625 195.857L11.184 224.089L26.0329 222.498L23.0051 194.265Z" fill="#CBD1D7"/>
<path d="M23.6222 219.945C23.302 219.947 22.9926 219.829 22.7545 219.615C22.5165 219.4 22.3668 219.105 22.3348 218.787L21.3306 208.695C21.3137 208.526 21.3303 208.356 21.3794 208.193C21.4284 208.031 21.5091 207.879 21.6167 207.748C21.7243 207.616 21.8567 207.507 22.0064 207.427C22.1562 207.347 22.3202 207.297 22.4893 207.28C22.6584 207.263 22.8291 207.279 22.9918 207.328C23.1544 207.377 23.3058 207.458 23.4374 207.566C23.5689 207.673 23.6779 207.806 23.7582 207.955C23.8385 208.105 23.8885 208.269 23.9055 208.438L24.8839 218.529C24.9017 218.695 24.8864 218.863 24.839 219.023C24.7915 219.182 24.7129 219.331 24.6075 219.461C24.5022 219.59 24.3722 219.697 24.2252 219.776C24.0782 219.854 23.917 219.903 23.751 219.919L23.6222 219.945Z" fill="#8DA4B7"/>
<path d="M15.6911 211.757C13.6476 211.775 11.6313 211.288 9.82055 210.341C9.6661 210.259 9.53046 210.146 9.42226 210.008C9.31407 209.87 9.23568 209.712 9.19209 209.542C9.14851 209.373 9.14066 209.196 9.16907 209.024C9.19747 208.851 9.2615 208.686 9.35709 208.539C9.52476 208.243 9.80322 208.025 10.1314 207.933C10.4596 207.841 10.8108 207.884 11.108 208.05C12.8839 208.938 14.8786 209.294 16.8521 209.075C18.8255 208.856 20.6935 208.071 22.2312 206.815C22.5066 206.616 22.8482 206.532 23.1842 206.58C23.5203 206.628 23.8246 206.805 24.0335 207.072C24.135 207.207 24.2088 207.361 24.2507 207.525C24.2927 207.689 24.302 207.859 24.2781 208.026C24.2542 208.194 24.1975 208.355 24.1114 208.5C24.0253 208.646 23.9113 208.773 23.7761 208.874C21.4802 210.713 18.6331 211.729 15.6911 211.757Z" fill="#8DA4B7"/>
<path d="M35.8124 173.99L22.3242 167.641L11.7958 190L25.284 196.349L35.8124 173.99Z" fill="#CBD1D7"/>
<path d="M30.6496 187.483C28.4609 181.986 24.1837 177.58 18.7539 175.229L22.3072 167.661L35.7992 173.994C35.7992 173.994 32.0657 190.803 30.6496 187.483Z" fill="#8DA4B7"/>
<path d="M25.2732 197.47C25.1197 197.495 24.9633 197.495 24.8097 197.47L11.3177 191.009C11.0562 190.881 10.8541 190.657 10.7534 190.384C10.6528 190.11 10.6612 189.809 10.777 189.542L13.8668 183.003C13.9931 182.737 14.2201 182.532 14.4977 182.433C14.7754 182.334 15.081 182.349 15.3473 182.475C15.6136 182.602 15.8188 182.829 15.9178 183.106C16.0168 183.384 16.0015 183.689 15.8751 183.956L13.3003 189.49L24.7582 194.896L34.3623 174.534L22.8786 169.128L18.1152 179.348C18.0589 179.486 17.975 179.612 17.8686 179.717C17.7622 179.823 17.6355 179.906 17.4963 179.961C17.357 180.016 17.2081 180.042 17.0584 180.038C16.9087 180.033 16.7614 179.999 16.6255 179.936C16.4895 179.873 16.3677 179.784 16.2674 179.673C16.1671 179.561 16.0904 179.431 16.0419 179.289C15.9934 179.148 15.9742 178.998 15.9854 178.849C15.9965 178.699 16.0379 178.554 16.1069 178.421L21.3852 167.171C21.5195 166.907 21.7498 166.705 22.0289 166.605C22.1632 166.548 22.3078 166.518 22.4538 166.518C22.5998 166.518 22.7443 166.548 22.8786 166.605L36.3449 172.938C36.6128 173.066 36.8196 173.294 36.9208 173.574C37.0219 173.853 37.0093 174.161 36.8856 174.431L26.3546 196.775C26.2725 196.992 26.1231 197.176 25.9284 197.301C25.7338 197.426 25.5041 197.485 25.2732 197.47Z" fill="#332D28"/>
<path d="M111.116 137.569H63.1211V143.387H111.116V137.569Z" fill="#545655"/>
<path d="M111.116 143.387H63.1211V149.204H111.116V143.387Z" fill="#545655"/>
<path d="M111.116 129.407H63.1211V135.225H111.116V129.407Z" fill="#303331"/>
<path d="M111.116 135.227H63.1211V141.045H111.116V135.227Z" fill="#303331"/>
<path d="M111.065 138.779H93.1953V149.694H111.065V138.779Z" fill="#303331"/>
<path d="M24.4199 80.5739H28.4109V114.039H24.4199C22.8903 114.039 21.4233 113.432 20.3416 112.35C19.26 111.269 18.6523 109.802 18.6523 108.273V86.3403C18.6523 84.8109 19.26 83.3442 20.3416 82.2628C21.4233 81.1814 22.8903 80.5739 24.4199 80.5739Z" fill="#78C277"/>
<path d="M28.9043 80.5739H32.9468V114.039H28.9043C27.3746 114.039 25.9076 113.432 24.826 112.35C23.7444 111.269 23.1367 109.802 23.1367 108.273V86.3403C23.1367 84.8109 23.7444 83.3442 24.826 82.2628C25.9076 81.1814 27.3746 80.5739 28.9043 80.5739Z" fill="#78C277"/>
<path d="M133.307 57.5612H40.8973C34.0289 57.5612 28.4609 63.1279 28.4609 69.9949V124.543C28.4609 131.41 34.0289 136.977 40.8973 136.977H133.307C140.176 136.977 145.744 131.41 145.744 124.543V69.9949C145.744 63.1279 140.176 57.5612 133.307 57.5612Z" fill="#545655"/>
<path d="M144.771 70.0206V124.543C144.771 127.843 143.461 131.009 141.13 133.345C138.798 135.68 135.635 136.996 132.334 137.003H122.035C125.336 136.996 128.499 135.68 130.831 133.345C133.162 131.009 134.472 127.843 134.472 124.543V70.0206C134.472 66.7206 133.162 63.5554 130.831 61.2195C128.499 58.8837 125.336 57.568 122.035 57.5612H132.334C135.635 57.568 138.798 58.8837 141.13 61.2195C143.461 63.5554 144.771 66.7206 144.771 70.0206Z" fill="#303331"/>
<path d="M29.1094 70.0206V124.543C29.1094 127.843 30.4188 131.009 32.7503 133.345C35.0819 135.68 38.245 136.996 41.5457 137.003H51.7163C48.4156 136.996 45.2524 135.68 42.9209 133.345C40.5893 131.009 39.2799 127.843 39.2799 124.543V70.0206C39.2799 66.7206 40.5893 63.5554 42.9209 61.2195C45.2524 58.8837 48.4156 57.568 51.7163 57.5612H41.5457C38.245 57.568 35.0819 58.8837 32.7503 61.2195C30.4188 63.5554 29.1094 66.7206 29.1094 70.0206Z" fill="#6D6D6D"/>
<path d="M36.267 175.281C45.0978 175.281 52.2566 168.123 52.2566 159.295C52.2566 150.466 45.0978 143.308 36.267 143.308C27.4361 143.308 20.2773 150.466 20.2773 159.295C20.2773 168.123 27.4361 175.281 36.267 175.281Z" fill="#6D6D6D"/>
<path d="M40.2591 178.01C49.09 178.01 56.2487 170.853 56.2487 162.024C56.2487 153.195 49.09 146.038 40.2591 146.038C31.4283 146.038 24.2695 153.195 24.2695 162.024C24.2695 170.853 31.4283 178.01 40.2591 178.01Z" fill="#545655"/>
<path d="M11.4443 225.659C11.1845 225.649 10.9363 225.548 10.7433 225.374C10.5503 225.2 10.4247 224.963 10.3886 224.706L9.20422 215.516C9.16768 215.226 9.24734 214.933 9.42582 214.702C9.6043 214.47 9.86711 214.319 10.1569 214.28C10.4476 214.256 10.7371 214.34 10.9699 214.515C11.2028 214.691 11.3625 214.947 11.4186 215.233L12.4485 223.342L24.7304 222.003L21.8723 195.977L8.99824 197.342L10.3886 210.213C10.3873 210.485 10.2854 210.748 10.1027 210.95C9.91992 211.152 9.66904 211.279 9.39806 211.308C9.12708 211.337 8.85504 211.265 8.634 211.105C8.41296 210.946 8.25845 210.711 8.20004 210.445L6.6809 196.415C6.67378 196.263 6.69802 196.111 6.7521 195.969C6.80618 195.827 6.88894 195.698 6.99522 195.589C7.10151 195.481 7.22905 195.395 7.36988 195.338C7.51072 195.28 7.66184 195.253 7.81382 195.257L22.7478 193.635C23.0447 193.616 23.338 193.708 23.5717 193.892C23.685 193.982 23.7779 194.096 23.8445 194.224C23.911 194.353 23.9497 194.494 23.9579 194.639L26.9962 222.956C27.0255 223.248 26.9398 223.541 26.7572 223.771C26.5746 224.002 26.3094 224.153 26.0178 224.191L11.5473 225.762L11.4443 225.659Z" fill="#332D28"/>
<path d="M36.2671 176.389C31.7303 176.389 27.3791 174.589 24.1687 171.384C20.9583 168.179 19.1514 163.832 19.1445 159.296C19.1429 157.339 19.4828 155.396 20.1487 153.555C20.2477 153.279 20.4526 153.053 20.7181 152.928C20.9837 152.802 21.2883 152.787 21.5649 152.886C21.8414 152.985 22.0673 153.19 22.1929 153.455C22.3184 153.721 22.3333 154.025 22.2343 154.302C20.9842 157.778 21.0723 161.595 22.4813 165.01C23.8903 168.425 26.5196 171.194 29.8576 172.778C33.1956 174.362 37.0036 174.648 40.5408 173.58C44.078 172.512 47.0914 170.167 48.9949 167.001C50.8983 163.835 51.5556 160.074 50.8389 156.45C50.1222 152.826 48.0828 149.598 45.1173 147.394C42.1519 145.191 38.4725 144.169 34.7951 144.527C31.1176 144.885 27.705 146.599 25.2211 149.334C25.0198 149.525 24.754 149.634 24.4763 149.638C24.1986 149.643 23.9293 149.543 23.7219 149.358C23.5145 149.173 23.3841 148.917 23.3566 148.641C23.329 148.365 23.4064 148.088 23.5732 147.866C25.4821 145.753 27.8888 144.15 30.5748 143.202C33.2608 142.255 36.141 141.994 38.9537 142.442C41.7664 142.89 44.4226 144.034 46.6809 145.769C48.9392 147.504 50.7281 149.776 51.8851 152.378C53.0421 154.98 53.5305 157.83 53.306 160.669C53.0815 163.508 52.1512 166.246 50.5996 168.634C49.048 171.021 46.9242 172.984 44.4212 174.343C41.9182 175.702 39.1153 176.414 36.2671 176.415V176.389Z" fill="#332D28"/>
<path d="M130.763 236.343H43.451C41.4463 236.34 39.5115 235.606 38.009 234.279C36.5065 232.952 35.5394 231.123 35.2888 229.135L28.4141 161.638C28.4141 158.338 29.7235 155.173 32.055 152.837C34.3866 150.501 37.5497 149.185 40.8504 149.178H133.312C136.613 149.185 139.776 150.501 142.107 152.837C144.439 155.173 145.748 158.338 145.748 161.638L138.925 229.135C138.675 231.123 137.707 232.952 136.205 234.279C134.702 235.606 132.768 236.34 130.763 236.343Z" fill="#545655"/>
<path d="M146.132 160.917L139.309 228.414C139.052 230.405 138.08 232.234 136.573 233.561C135.067 234.887 133.128 235.62 131.121 235.622H120.59C122.608 235.638 124.561 234.913 126.08 233.584C127.599 232.256 128.577 230.416 128.829 228.414L135.575 160.917C135.575 157.617 134.266 154.452 131.934 152.116C129.603 149.78 126.44 148.465 123.139 148.458H133.67C136.975 148.458 140.145 149.771 142.482 152.107C144.819 154.444 146.132 157.613 146.132 160.917Z" fill="#303331"/>
<path d="M28.6211 160.917L35.4444 228.414C35.7008 230.405 36.6731 232.234 38.1799 233.561C39.6866 234.887 41.6247 235.62 43.6323 235.622H54.1633C52.1586 235.619 50.2238 234.886 48.7213 233.559C47.2188 232.232 46.2517 230.403 46.0011 228.414L39.1778 160.917C39.1778 157.622 40.4837 154.46 42.8097 152.125C45.1357 149.79 48.2922 148.471 51.5885 148.458H41.0832C37.778 148.458 34.6083 149.771 32.2712 152.107C29.9341 154.444 28.6211 157.613 28.6211 160.917Z" fill="#6D6D6D"/>
<path d="M130.764 237.451H43.4522C41.1764 237.444 38.9809 236.61 37.2752 235.103C35.5696 233.597 34.4704 231.522 34.1829 229.265L32.6637 214.128C32.6331 213.85 32.709 213.57 32.8762 213.346C33.0435 213.121 33.2895 212.969 33.5649 212.918C33.711 212.9 33.8593 212.913 34.0006 212.954C34.1418 212.996 34.2731 213.065 34.3864 213.159C34.4997 213.253 34.5926 213.37 34.6595 213.501C34.7263 213.632 34.7656 213.775 34.7751 213.922L36.3972 229.136C36.6108 230.856 37.4458 232.439 38.7452 233.586C40.0445 234.733 41.7186 235.366 43.4522 235.366H130.764C132.503 235.361 134.181 234.723 135.484 233.572C136.787 232.421 137.626 230.835 137.845 229.11L144.642 161.639C144.615 158.653 143.41 155.798 141.288 153.696C139.166 151.594 136.3 150.415 133.313 150.415H40.9031C37.8961 150.422 35.0145 151.621 32.8906 153.749C30.7667 155.878 29.5739 158.761 29.5739 161.768L34.2344 207.873C34.2633 208.162 34.1768 208.452 33.9936 208.678C33.8105 208.905 33.5454 209.05 33.2559 209.083C33.1104 209.097 32.9635 209.082 32.8238 209.039C32.684 208.996 32.5541 208.926 32.4416 208.833C32.3291 208.739 32.2362 208.625 32.1682 208.495C32.1003 208.366 32.0587 208.224 32.0458 208.079L27.3596 161.742C27.3494 159.955 27.6919 158.183 28.3673 156.529C29.0427 154.874 30.0379 153.369 31.2959 152.099C32.5539 150.829 34.0499 149.82 35.6985 149.129C37.347 148.438 39.1156 148.079 40.9031 148.073H133.313C136.908 148.079 140.352 149.512 142.892 152.055C145.431 154.599 146.857 158.045 146.857 161.639L140.034 229.136C139.775 231.416 138.688 233.523 136.98 235.055C135.271 236.588 133.06 237.44 130.764 237.451Z" fill="#332D28"/>
<path d="M122.109 227.693H52.126C50.5121 227.699 48.9523 227.112 47.7421 226.045C46.532 224.977 45.7556 223.503 45.5602 221.901L40.1016 167.842C40.1016 165.197 41.1506 162.661 43.0185 160.788C44.8865 158.916 47.421 157.86 50.0661 157.854H124.144C126.789 157.86 129.323 158.916 131.191 160.788C133.059 162.661 134.108 165.197 134.108 167.842L128.649 221.901C128.455 223.499 127.682 224.969 126.477 226.036C125.272 227.103 123.719 227.693 122.109 227.693Z" fill="#C0ECFF"/>
<path opacity="0.65" d="M64.8455 227.694H52.126C50.516 227.7 48.9594 227.117 47.7498 226.055C46.5403 224.993 45.7614 223.524 45.5602 221.927L40.1016 167.868C40.1016 165.223 41.1506 162.687 43.0185 160.814C44.8865 158.942 47.421 157.887 50.0661 157.88H62.7857C60.1406 157.887 57.6061 158.942 55.7381 160.814C53.8702 162.687 52.8211 165.223 52.8212 167.868L58.2798 221.927C58.481 223.524 59.2599 224.993 60.4694 226.055C61.679 227.117 63.2356 227.7 64.8455 227.694Z" fill="white"/>
<path d="M110.266 227.694H122.985C124.595 227.7 126.152 227.117 127.361 226.055C128.571 224.993 129.35 223.524 129.551 221.927L135.01 167.868C135.01 165.223 133.961 162.687 132.093 160.814C130.225 158.942 127.69 157.887 125.045 157.88H112.325C114.971 157.887 117.505 158.942 119.373 160.814C121.241 162.687 122.29 165.223 122.29 167.868L116.831 221.927C116.63 223.524 115.851 224.993 114.642 226.055C113.432 227.117 111.876 227.7 110.266 227.694Z" fill="#145B67"/>
<path d="M129.292 66.4414H44.9408C40.305 66.4414 36.5469 70.1987 36.5469 74.8335V119.214C36.5469 123.849 40.305 127.606 44.9408 127.606H129.292C133.928 127.606 137.686 123.849 137.686 119.214V74.8335C137.686 70.1987 133.928 66.4414 129.292 66.4414Z" fill="#C0ECFF"/>
<path d="M18.654 104.026C18.3733 104.027 18.1028 103.921 17.8972 103.729C17.6917 103.538 17.5665 103.276 17.5469 102.996V92.9566C17.5469 92.663 17.6635 92.3814 17.8712 92.1739C18.0788 91.9663 18.3604 91.8496 18.654 91.8496C18.9477 91.8496 19.2293 91.9663 19.4369 92.1739C19.6446 92.3814 19.7612 92.663 19.7612 92.9566V102.996C19.7416 103.276 19.6164 103.538 19.4108 103.729C19.2053 103.921 18.9348 104.027 18.654 104.026Z" fill="#332D28"/>
<path d="M28.4135 115.094H24.4225C22.6242 115.094 20.8991 114.382 19.625 113.113C18.351 111.844 17.6318 110.122 17.625 108.324C17.625 108.051 17.7335 107.789 17.9267 107.596C18.1198 107.402 18.3818 107.294 18.6549 107.294C18.9281 107.294 19.19 107.402 19.3832 107.596C19.5763 107.789 19.6849 108.051 19.6849 108.324C19.6849 109.58 20.184 110.785 21.0725 111.673C21.961 112.561 23.166 113.06 24.4225 113.06H27.435V81.6029H24.4225C23.166 81.6029 21.961 82.1019 21.0725 82.9902C20.184 83.8785 19.6849 85.0833 19.6849 86.3395C19.6849 86.6126 19.5763 86.8745 19.3832 87.0676C19.19 87.2607 18.9281 87.3692 18.6549 87.3692C18.3818 87.3692 18.1198 87.2607 17.9267 87.0676C17.7335 86.8745 17.625 86.6126 17.625 86.3395C17.625 84.5371 18.3412 82.8085 19.6159 81.534C20.8907 80.2595 22.6197 79.5435 24.4225 79.5435H28.4135C28.6866 79.5435 28.9486 79.6519 29.1417 79.845C29.3349 80.0382 29.4434 80.3001 29.4434 80.5732V114.039C29.4468 114.176 29.4227 114.313 29.3725 114.441C29.3223 114.568 29.247 114.685 29.151 114.783C29.055 114.882 28.9403 114.96 28.8137 115.013C28.687 115.067 28.5509 115.094 28.4135 115.094Z" fill="#332D28"/>
<path d="M111.088 144.493H63.1189C62.8253 144.493 62.5436 144.376 62.336 144.168C62.1284 143.961 62.0117 143.679 62.0117 143.386V137.568C62.0117 137.274 62.1284 136.993 62.336 136.785C62.5436 136.577 62.8253 136.461 63.1189 136.461H111.088C111.381 136.461 111.663 136.577 111.871 136.785C112.078 136.993 112.195 137.274 112.195 137.568V143.386C112.195 143.679 112.078 143.961 111.871 144.168C111.663 144.376 111.381 144.493 111.088 144.493ZM64.2261 142.279H109.981V138.675H64.2261V142.279Z" fill="#332D28"/>
<path d="M111.088 150.31H63.1189C62.8253 150.31 62.5436 150.194 62.336 149.986C62.1284 149.779 62.0117 149.497 62.0117 149.203V143.386C62.0117 143.092 62.1284 142.81 62.336 142.603C62.5436 142.395 62.8253 142.279 63.1189 142.279H75.1175C75.4112 142.279 75.6928 142.395 75.9004 142.603C76.1081 142.81 76.2247 143.092 76.2247 143.386C76.2247 143.679 76.1081 143.961 75.9004 144.168C75.6928 144.376 75.4112 144.493 75.1175 144.493H64.2261V148.097H109.981V144.493H80.9366C80.643 144.493 80.3614 144.376 80.1537 144.168C79.9461 143.961 79.8294 143.679 79.8294 143.386C79.8294 143.092 79.9461 142.81 80.1537 142.603C80.3614 142.395 80.643 142.279 80.9366 142.279H111.088C111.381 142.279 111.663 142.395 111.871 142.603C112.078 142.81 112.195 143.092 112.195 143.386V149.332C112.163 149.603 112.033 149.852 111.828 150.033C111.624 150.213 111.36 150.312 111.088 150.31Z" fill="#332D28"/>
<path d="M15.6706 209.159C21.6004 209.159 26.4076 204.353 26.4076 198.424C26.4076 192.495 21.6004 187.689 15.6706 187.689C9.74071 187.689 4.93359 192.495 4.93359 198.424C4.93359 204.353 9.74071 209.159 15.6706 209.159Z" fill="#545655"/>
<path opacity="0.5" d="M15.6661 205.296C14.3054 205.301 12.9737 204.903 11.8397 204.15C10.7058 203.398 9.82064 202.327 9.29636 201.071C8.77207 199.816 8.63225 198.433 8.8946 197.098C9.15695 195.763 9.80967 194.536 10.7701 193.572C11.7305 192.608 12.9554 191.951 14.2897 191.684C15.624 191.416 17.0076 191.551 18.2653 192.071C19.523 192.59 20.5982 193.471 21.3547 194.602C22.1113 195.733 22.5151 197.063 22.5151 198.423C22.5084 200.239 21.7855 201.98 20.5032 203.267C19.221 204.553 17.4829 205.283 15.6661 205.296ZM15.6661 194.15C14.8135 194.145 13.9786 194.393 13.2676 194.864C12.5565 195.334 12.0014 196.005 11.6728 196.792C11.3441 197.578 11.2568 198.445 11.4219 199.281C11.587 200.117 11.997 200.886 12.5999 201.489C13.2028 202.091 13.9714 202.501 14.8079 202.666C15.6444 202.831 16.5111 202.744 17.2978 202.416C18.0846 202.087 18.7559 201.532 19.2264 200.821C19.6969 200.11 19.9454 199.275 19.9403 198.423C19.9403 197.29 19.49 196.203 18.6884 195.401C17.8869 194.6 16.7997 194.15 15.6661 194.15Z" fill="black"/>
<path d="M28.6736 222.904L18.9408 217.344C18.289 216.986 17.5439 216.833 16.8037 216.906C16.0635 216.833 15.3184 216.986 14.6666 217.344L4.9338 222.904C3.80126 223.555 2.86 224.492 2.20463 225.622C1.54927 226.752 1.20289 228.034 1.20031 229.34V239.637C1.17289 240.183 1.25846 240.728 1.45165 241.238C1.64484 241.749 1.94149 242.215 2.323 242.605C2.70452 242.996 3.16266 243.304 3.66872 243.509C4.17477 243.715 4.71782 243.813 5.26382 243.799C5.80982 243.785 6.34699 243.658 6.84166 243.427C7.33633 243.195 7.77782 242.864 8.13846 242.454C8.4991 242.044 8.7711 241.564 8.93743 241.043C9.10375 240.523 9.1608 239.974 9.105 239.431V229.623L16.8294 225.221L24.5539 229.623V239.431C24.5098 239.977 24.5793 240.526 24.7579 241.043C24.9365 241.561 25.2204 242.036 25.5917 242.438C25.963 242.841 26.4137 243.162 26.9153 243.382C27.4169 243.601 27.9586 243.715 28.5062 243.715C29.0539 243.715 29.5956 243.601 30.0972 243.382C30.5988 243.162 31.0494 242.841 31.4208 242.438C31.7921 242.036 32.076 241.561 32.2546 241.043C32.4332 240.526 32.5027 239.977 32.4586 239.431V229.134C32.4153 227.858 32.0443 226.615 31.3815 225.524C30.7186 224.433 29.7861 223.531 28.6736 222.904Z" fill="#545655"/>
<path d="M28.4131 244.76C27.0473 244.76 25.7375 244.218 24.7718 243.252C23.806 242.287 23.2635 240.977 23.2635 239.612V230.447L16.8007 226.56L10.2091 230.447V239.689C10.3502 240.433 10.3254 241.199 10.1364 241.933C9.94737 242.666 9.59883 243.349 9.11562 243.932C8.63242 244.515 8.02645 244.985 7.34091 245.307C6.65538 245.629 5.90717 245.796 5.14963 245.796C4.39209 245.796 3.64389 245.629 2.95835 245.307C2.27282 244.985 1.66685 244.515 1.18364 243.932C0.700437 243.349 0.3519 242.666 0.162881 241.933C-0.0261378 241.199 -0.0509824 240.433 0.0901187 239.689V229.521C0.0950584 228.023 0.492253 226.553 1.24216 225.257C1.99206 223.961 3.0685 222.883 4.36431 222.132L14.0971 216.572C14.9364 216.106 15.8954 215.9 16.8522 215.98C17.7495 215.926 18.6433 216.132 19.427 216.572L29.134 222.132C30.4604 222.862 31.5693 223.93 32.3474 225.228C33.1255 226.526 33.5449 228.007 33.5627 229.521V239.689C33.5424 241.041 32.9909 242.331 32.0274 243.28C31.0638 244.229 29.7656 244.76 28.4131 244.76ZM16.8007 224.295C16.9773 224.244 17.1647 224.244 17.3414 224.295L25.0658 228.697C25.2329 228.799 25.3705 228.943 25.4653 229.115C25.56 229.286 25.6087 229.479 25.6065 229.675V239.689C25.5688 240.085 25.6143 240.485 25.7401 240.863C25.8659 241.24 26.0693 241.588 26.3371 241.882C26.605 242.177 26.9315 242.412 27.2956 242.573C27.6598 242.734 28.0535 242.817 28.4517 242.817C28.8499 242.817 29.2437 242.734 29.6078 242.573C29.972 242.412 30.2984 242.177 30.5663 241.882C30.8342 241.588 31.0375 241.24 31.1633 240.863C31.2892 240.485 31.3346 240.085 31.2969 239.689V229.521C31.2979 228.399 31.0033 227.297 30.4428 226.325C29.8823 225.354 29.0757 224.547 28.1041 223.986L18.3971 218.503C17.927 218.241 17.3868 218.133 16.8522 218.194C16.2872 218.131 15.7159 218.229 15.2043 218.477L5.47148 223.986C4.50293 224.548 3.7 225.356 3.14389 226.328C2.58778 227.299 2.29821 228.401 2.30446 229.521V239.689C2.26671 240.085 2.3122 240.485 2.43801 240.863C2.56383 241.24 2.76719 241.588 3.03506 241.882C3.30293 242.177 3.6294 242.412 3.99354 242.573C4.35768 242.734 4.75146 242.817 5.14963 242.817C5.5478 242.817 5.94158 242.734 6.30573 242.573C6.66987 242.412 6.99634 242.177 7.26421 241.882C7.53208 241.588 7.73544 241.24 7.86125 240.863C7.98707 240.485 8.03255 240.085 7.9948 239.689V229.804C7.99263 229.608 8.04131 229.415 8.13608 229.243C8.23085 229.072 8.36847 228.928 8.53552 228.825L16.26 224.424C16.424 224.329 16.6118 224.285 16.8007 224.295Z" fill="#332D28"/>
<path opacity="0.65" d="M72.728 127.89H55.6055L83.4392 66.957H100.562L72.728 127.89Z" fill="white"/>
<path opacity="0.65" d="M121.748 127.89H76.3281L104.162 66.957H121.284L121.748 127.89Z" fill="white"/>
<path d="M128.288 123.899H109.517C109.224 123.899 108.942 123.783 108.734 123.575C108.527 123.367 108.41 123.086 108.41 122.792C108.41 122.499 108.527 122.217 108.734 122.01C108.942 121.802 109.224 121.685 109.517 121.685H128.288C128.581 121.685 128.863 121.802 129.071 122.01C129.278 122.217 129.395 122.499 129.395 122.792C129.395 123.086 129.278 123.367 129.071 123.575C128.863 123.783 128.581 123.899 128.288 123.899Z" fill="#332D28"/>
<path d="M105.887 123.899H101.201C100.907 123.899 100.626 123.783 100.418 123.575C100.21 123.367 100.094 123.086 100.094 122.792C100.094 122.499 100.21 122.217 100.418 122.01C100.626 121.802 100.907 121.685 101.201 121.685H105.887C106.181 121.685 106.462 121.802 106.67 122.01C106.878 122.217 106.994 122.499 106.994 122.792C106.994 123.086 106.878 123.367 106.67 123.575C106.462 123.783 106.181 123.899 105.887 123.899Z" fill="#332D28"/>
<path d="M120.802 223.575H105.096C104.968 223.578 104.842 223.556 104.723 223.51C104.605 223.463 104.496 223.394 104.405 223.305C104.314 223.216 104.242 223.11 104.192 222.993C104.143 222.875 104.117 222.749 104.117 222.622C104.117 222.363 104.22 222.114 104.404 221.931C104.587 221.747 104.836 221.644 105.096 221.644H120.802C121.057 221.651 121.299 221.757 121.477 221.939C121.655 222.122 121.755 222.367 121.755 222.622C121.755 222.747 121.73 222.871 121.682 222.987C121.634 223.102 121.564 223.207 121.476 223.296C121.387 223.384 121.282 223.454 121.167 223.502C121.051 223.55 120.927 223.575 120.802 223.575Z" fill="#332D28"/>
<path d="M37.0645 202.749C36.7918 202.751 36.5281 202.652 36.3238 202.472C36.1195 202.291 35.989 202.042 35.9573 201.771L33.3825 179.787C33.3596 179.495 33.4477 179.206 33.6291 178.977C33.8106 178.748 34.072 178.596 34.3609 178.551C34.6536 178.522 34.9463 178.608 35.1769 178.79C35.4076 178.973 35.5582 179.238 35.5968 179.529L38.1716 201.514C38.1896 201.659 38.1784 201.807 38.1388 201.948C38.0991 202.089 38.0319 202.221 37.9408 202.336C37.8498 202.451 37.7368 202.547 37.6085 202.618C37.4801 202.689 37.339 202.733 37.1932 202.749H37.0645Z" fill="#332D28"/>
<path d="M6.88495 227.564C6.64425 227.559 6.41174 227.475 6.22265 227.326C6.03355 227.177 5.89819 226.971 5.83706 226.738C5.77594 226.505 5.79238 226.259 5.8839 226.036C5.97542 225.813 6.13703 225.627 6.34424 225.504L14.7896 220.587C15.0469 220.446 15.349 220.41 15.6324 220.486C15.9158 220.563 16.1583 220.747 16.3088 220.999C16.3823 221.126 16.4299 221.266 16.4489 221.411C16.468 221.556 16.4581 221.703 16.4198 221.845C16.3815 221.986 16.3155 222.118 16.2257 222.234C16.136 222.349 16.0242 222.446 15.8968 222.518L7.45141 227.409C7.27994 227.511 7.08424 227.564 6.88495 227.564Z" fill="#332D28"/>
<path d="M19.0136 184.6C18.8528 184.639 18.6852 184.639 18.5244 184.6C18.3925 184.54 18.2742 184.453 18.1764 184.346C18.0787 184.239 18.0036 184.113 17.9555 183.976C17.9075 183.839 17.8875 183.694 17.8967 183.549C17.906 183.404 17.9443 183.263 18.0094 183.133L22.6183 173.788C22.6838 173.658 22.7746 173.542 22.8852 173.446C22.9959 173.351 23.1244 173.279 23.2632 173.233C23.402 173.188 23.5484 173.17 23.6941 173.181C23.8397 173.193 23.9816 173.233 24.1117 173.299C24.2414 173.362 24.3571 173.451 24.4522 173.559C24.5473 173.667 24.6197 173.793 24.6653 173.93C24.7109 174.067 24.7287 174.211 24.7176 174.355C24.7065 174.499 24.6669 174.639 24.6009 174.767L19.992 183.983C19.9018 184.166 19.7626 184.32 19.59 184.429C19.4173 184.538 19.2178 184.598 19.0136 184.6Z" fill="#332D28"/>
<path d="M15.6645 210.266C13.3219 210.266 11.032 209.572 9.08421 208.27C7.13645 206.969 5.61836 205.12 4.7219 202.956C3.82544 200.792 3.59089 198.411 4.0479 196.114C4.50491 193.817 5.63296 191.707 7.28939 190.051C8.94583 188.395 11.0563 187.267 13.3538 186.81C15.6513 186.353 18.0328 186.588 20.197 187.484C22.3613 188.38 24.2111 189.898 25.5125 191.846C26.814 193.793 27.5086 196.082 27.5086 198.424C27.5086 201.565 26.2608 204.577 24.0396 206.798C21.8183 209.018 18.8057 210.266 15.6645 210.266ZM15.6645 188.797C13.7599 188.797 11.898 189.361 10.3144 190.419C8.73082 191.477 7.49654 192.981 6.76769 194.74C6.03883 196.499 5.84813 198.435 6.21969 200.303C6.59126 202.17 7.50841 203.886 8.85517 205.232C10.2019 206.579 11.9178 207.496 13.7858 207.867C15.6538 208.239 17.59 208.048 19.3496 207.319C21.1093 206.591 22.6132 205.357 23.6714 203.773C24.7295 202.19 25.2943 200.329 25.2943 198.424C25.2943 195.871 24.2797 193.422 22.4738 191.617C20.6678 189.811 18.2185 188.797 15.6645 188.797Z" fill="#332D28"/>
<path d="M86.4995 215.826C100.151 215.826 111.218 204.762 111.218 191.113C111.218 177.464 100.151 166.4 86.4995 166.4C72.848 166.4 61.7812 177.464 61.7812 191.113C61.7812 204.762 72.848 215.826 86.4995 215.826Z" fill="white"/>
<path d="M86.5021 216.804C81.4096 216.804 76.4314 215.294 72.1972 212.466C67.9629 209.637 64.6627 205.617 62.7139 200.913C60.7651 196.209 60.2552 191.033 61.2487 186.039C62.2422 181.046 64.6944 176.459 68.2954 172.859C71.8963 169.259 76.4842 166.807 81.4789 165.814C86.4735 164.82 91.6506 165.33 96.3555 167.278C101.06 169.227 105.082 172.526 107.911 176.76C110.74 180.993 112.25 185.97 112.25 191.062C112.25 194.442 111.584 197.79 110.29 200.913C108.996 204.036 107.1 206.874 104.709 209.264C102.318 211.655 99.4794 213.551 96.3555 214.845C93.2316 216.138 89.8834 216.804 86.5021 216.804ZM86.5021 167.378C81.8006 167.378 77.2048 168.773 73.296 171.384C69.3872 173.996 66.3411 177.709 64.5431 182.052C62.7451 186.395 62.276 191.174 63.1951 195.784C64.1142 200.393 66.3802 204.627 69.7064 207.949C73.0327 211.271 77.2697 213.532 81.8815 214.446C86.4932 215.36 91.2725 214.885 95.6146 213.083C99.9568 211.281 103.667 208.231 106.275 204.321C108.883 200.41 110.273 195.814 110.268 191.113C110.261 184.813 107.755 178.774 103.299 174.319C98.8439 169.865 92.803 167.359 86.5021 167.353V167.378Z" fill="#332D28"/>
<path d="M103.548 191.112C103.548 188.77 100.973 186.71 96.3639 185.423C97.5483 180.841 97.0591 177.701 95.025 176.388C92.9908 175.075 89.8753 176.388 86.5023 179.734C83.1551 176.491 79.988 175.229 77.9797 176.388C75.9713 177.546 75.4049 180.841 76.6408 185.423C72.0576 186.71 69.457 188.77 69.457 191.112C69.457 193.455 72.0318 195.514 76.6408 196.802C75.4564 201.384 75.9456 204.524 77.9797 205.837C78.5042 206.137 79.1006 206.289 79.7048 206.275C82.3532 205.875 84.7675 204.531 86.5023 202.491C88.2372 204.531 90.6515 205.875 93.2998 206.275C93.904 206.289 94.5004 206.137 95.025 205.837C97.0591 204.653 97.5998 201.384 96.3639 196.802C100.947 195.514 103.548 193.481 103.548 191.112ZM86.5023 200.431C85.7745 199.652 85.087 198.835 84.4425 197.986H86.5023H88.5622C87.9176 198.835 87.2301 199.652 86.5023 200.431ZM86.5023 181.794C87.2336 182.615 87.9212 183.474 88.5622 184.368C87.19 184.291 85.8146 184.291 84.4425 184.368C85.0834 183.474 85.771 182.615 86.5023 181.794ZM83.3868 196.518C82.2101 194.8 81.1684 192.992 80.2713 191.112C81.1634 189.238 82.2053 187.439 83.3868 185.732C85.4609 185.578 87.5437 185.578 89.6178 185.732C90.817 187.437 91.8762 189.237 92.7849 191.112C91.8877 192.992 90.8461 194.8 89.6693 196.518C87.5781 196.675 85.478 196.675 83.3868 196.518ZM80.4772 187.637L79.4988 189.465C79.0868 188.452 78.7264 187.448 78.4174 186.453C79.4473 186.221 80.503 186.041 81.5587 185.912L80.4772 187.637ZM79.4988 192.786L80.4772 194.588L81.5587 196.338C80.4515 196.184 79.3958 196.004 78.4174 195.772C78.7264 194.768 79.0868 193.764 79.4988 192.786ZM93.5058 192.786C93.9178 193.764 94.2783 194.768 94.5872 195.772C93.5573 196.004 92.5016 196.184 91.446 196.338C92.1927 195.18 92.7849 193.996 93.5058 192.786ZM93.5058 189.465C92.8806 188.246 92.193 187.061 91.446 185.912C92.5016 186.041 93.5573 186.221 94.5872 186.453C94.2783 187.448 93.9178 188.452 93.5058 189.465ZM94.304 177.623C95.7202 178.421 95.9776 181.253 94.9992 185.063C93.4863 184.743 91.956 184.511 90.416 184.368C89.5591 183.114 88.6306 181.911 87.6352 180.764C90.21 178.061 92.9136 176.8 94.304 177.649V177.623ZM78.7006 177.623C79.0035 177.442 79.3522 177.353 79.7048 177.366C81.9711 177.794 84.0185 178.995 85.4981 180.764C84.4234 181.905 83.4175 183.108 82.4856 184.368C80.944 184.497 79.4129 184.729 77.9024 185.063C77.027 181.253 77.336 178.421 78.7006 177.649V177.623ZM70.9762 191.112C70.9762 189.491 73.2935 187.869 77.0785 186.788C77.5419 188.268 78.1098 189.713 78.7779 191.112C78.1251 192.519 77.5576 193.963 77.0785 195.437C73.2163 194.382 70.8989 192.734 70.8989 191.112H70.9762ZM78.7006 204.602C77.2845 203.804 77.027 200.972 78.0054 197.162C79.5159 197.496 81.047 197.728 82.5886 197.857C83.487 199.122 84.4585 200.334 85.4981 201.487C82.7431 204.19 80.091 205.4 78.7006 204.602ZM94.304 204.602C94.0011 204.782 93.6524 204.872 93.2998 204.859C91.0851 204.406 89.0887 203.218 87.6352 201.487C88.6749 200.334 89.6464 199.122 90.5448 197.857C92.0863 197.728 93.6175 197.496 95.1279 197.162C95.9776 200.972 95.7202 203.804 94.304 204.602ZM95.9776 195.437C95.5308 193.955 94.9713 192.509 94.304 191.112C94.9748 189.717 95.5344 188.271 95.9776 186.788C99.7884 187.869 102.106 189.362 102.106 191.112C102.106 192.863 99.7884 194.382 95.9776 195.437Z" fill="#2F799C"/>
<path d="M86.5031 194.151C88.1811 194.151 89.5414 192.791 89.5414 191.114C89.5414 189.436 88.1811 188.076 86.5031 188.076C84.8251 188.076 83.4648 189.436 83.4648 191.114C83.4648 192.791 84.8251 194.151 86.5031 194.151Z" fill="#2E7A9C"/>
<path d="M47.5964 211.116C47.3583 211.111 47.1301 211.02 46.9547 210.859C46.7793 210.697 46.6688 210.478 46.6437 210.241L44.8414 194.255C44.8234 194.129 44.8314 194.001 44.8651 193.878C44.8987 193.756 44.9572 193.642 45.0369 193.543C45.1166 193.444 45.2158 193.362 45.3283 193.303C45.4408 193.244 45.5643 193.209 45.6911 193.199C45.9427 193.177 46.1931 193.254 46.3898 193.412C46.5866 193.57 46.7145 193.799 46.7467 194.049L48.5749 210.035C48.5974 210.29 48.5221 210.543 48.3642 210.744C48.2063 210.945 47.9778 211.078 47.7252 211.116H47.5964Z" fill="white"/>
<path d="M41.2874 101.426C40.946 101.426 40.6185 101.29 40.3771 101.049C40.1356 100.807 40 100.48 40 100.139V80.5742C40 80.2329 40.1356 79.9055 40.3771 79.6641C40.6185 79.4227 40.946 79.2871 41.2874 79.2871C41.6288 79.2871 41.9563 79.4227 42.1977 79.6641C42.4392 79.9055 42.5748 80.2329 42.5748 80.5742V100.139C42.5748 100.48 42.4392 100.807 42.1977 101.049C41.9563 101.29 41.6288 101.426 41.2874 101.426Z" fill="white"/>
<path d="M23.2636 102.996C23.1351 102.996 23.0079 102.97 22.8892 102.921C22.7704 102.872 22.6626 102.8 22.5717 102.709C22.4809 102.618 22.4088 102.51 22.3596 102.392C22.3105 102.273 22.2852 102.146 22.2852 102.017V90.3559C22.2919 90.101 22.3979 89.8587 22.5807 89.6808C22.7634 89.5029 23.0085 89.4034 23.2636 89.4035C23.5163 89.4035 23.7586 89.5038 23.9372 89.6824C24.1159 89.8611 24.2163 90.1033 24.2163 90.3559V101.889C24.2389 102.026 24.2311 102.167 24.1934 102.301C24.1558 102.435 24.0892 102.559 23.9984 102.664C23.9075 102.77 23.7947 102.854 23.6677 102.912C23.5408 102.969 23.4028 102.997 23.2636 102.996Z" fill="white"/>
<path d="M15.6662 206.456C14.0774 206.456 12.5242 205.985 11.2031 205.102C9.88202 204.22 8.85236 202.965 8.24432 201.498C7.63629 200.03 7.4772 198.415 7.78718 196.857C8.09715 195.299 8.86226 193.868 9.98575 192.745C11.1092 191.622 12.5407 190.857 14.099 190.547C15.6573 190.237 17.2726 190.396 18.7405 191.004C20.2084 191.612 21.4631 192.641 22.3458 193.962C23.2285 195.283 23.6997 196.836 23.6997 198.424C23.6997 200.554 22.8533 202.597 21.3467 204.104C19.8402 205.61 17.7968 206.456 15.6662 206.456ZM15.6662 192.632C14.5132 192.627 13.3846 192.965 12.4237 193.602C11.4628 194.239 10.713 195.148 10.2693 196.212C9.82573 197.276 9.70832 198.448 9.93203 199.579C10.1557 200.71 10.7105 201.749 11.5258 202.564C12.3412 203.379 13.3804 203.934 14.5116 204.157C15.6428 204.381 16.8149 204.264 17.8793 203.82C18.9436 203.377 19.8522 202.627 20.4896 201.666C21.1271 200.705 21.4647 199.577 21.4596 198.424C21.4528 196.89 20.8403 195.421 19.7553 194.336C18.6703 193.251 17.2006 192.639 15.6662 192.632Z" fill="#332D28"/>
<path d="M158.237 206.791C156.648 206.791 155.095 206.319 153.773 205.437C152.452 204.554 151.423 203.3 150.815 201.832C150.207 200.365 150.048 198.75 150.357 197.192C150.667 195.634 151.433 194.203 152.556 193.08C153.68 191.956 155.111 191.191 156.669 190.881C158.228 190.572 159.843 190.731 161.311 191.339C162.779 191.946 164.033 192.976 164.916 194.297C165.799 195.617 166.27 197.17 166.27 198.759C166.27 200.889 165.424 202.932 163.917 204.438C162.41 205.944 160.367 206.791 158.237 206.791ZM158.237 192.967C157.085 192.967 155.958 193.309 155.001 193.949C154.043 194.589 153.298 195.5 152.858 196.564C152.418 197.629 152.305 198.8 152.531 199.929C152.758 201.058 153.315 202.095 154.131 202.908C154.947 203.72 155.987 204.272 157.117 204.494C158.248 204.715 159.418 204.596 160.481 204.152C161.544 203.708 162.451 202.958 163.087 201.998C163.724 201.038 164.061 199.911 164.056 198.759C164.022 197.241 163.393 195.796 162.305 194.737C161.216 193.678 159.755 193.088 158.237 193.095V192.967Z" fill="#332D28"/>
<path d="M80.9918 83.6629C80.9918 81.573 79.2972 79.8787 77.2069 79.8787C75.1165 79.8787 73.4219 81.573 73.4219 83.6629V91.849C73.4219 93.939 75.1165 95.6332 77.2069 95.6332C79.2972 95.6332 80.9918 93.939 80.9918 91.849V83.6629Z" fill="#332D28"/>
<path d="M73.4189 89.2238C75.0116 89.2238 76.3027 87.933 76.3027 86.3406C76.3027 84.7483 75.0116 83.4575 73.4189 83.4575C71.8263 83.4575 70.5352 84.7483 70.5352 86.3406C70.5352 87.933 71.8263 89.2238 73.4189 89.2238Z" fill="white"/>
<path d="M100.277 83.6629C100.277 81.573 98.5824 79.8787 96.492 79.8787C94.4016 79.8787 92.707 81.573 92.707 83.6629V91.849C92.707 93.939 94.4016 95.6332 96.492 95.6332C98.5824 95.6332 100.277 93.939 100.277 91.849V83.6629Z" fill="#332D28"/>
<path d="M92.708 89.2238C94.3007 89.2238 95.5918 87.933 95.5918 86.3406C95.5918 84.7483 94.3007 83.4575 92.708 83.4575C91.1153 83.4575 89.8242 84.7483 89.8242 86.3406C89.8242 87.933 91.1153 89.2238 92.708 89.2238Z" fill="white"/>
<path d="M84.2618 14.2086C87.9164 14.2086 90.8791 11.2466 90.8791 7.59272C90.8791 3.93889 87.9164 0.976868 84.2618 0.976868C80.6072 0.976868 77.6445 3.93889 77.6445 7.59272C77.6445 11.2466 80.6072 14.2086 84.2618 14.2086Z" fill="#289A7A"/>
<path d="M80.989 13.0268C80.7851 13.039 80.5812 13.0034 80.3935 12.923C80.2057 12.8425 80.0394 12.7194 79.9076 12.5634C78.756 11.2491 78.1211 9.56125 78.1211 7.81393C78.1211 6.0666 78.756 4.37876 79.9076 3.06442C80.0272 2.94378 80.1696 2.84802 80.3265 2.78267C80.4834 2.71733 80.6517 2.68369 80.8216 2.68369C80.9916 2.68369 81.1599 2.71733 81.3167 2.78267C81.4736 2.84802 81.616 2.94378 81.7357 3.06442C81.8556 3.18186 81.9508 3.32205 82.0158 3.47676C82.0809 3.63147 82.1144 3.79759 82.1144 3.96541C82.1144 4.13322 82.0809 4.29935 82.0158 4.45406C81.9508 4.60877 81.8556 4.74895 81.7357 4.8664C80.9828 5.71432 80.567 6.8088 80.567 7.94264C80.567 9.07648 80.9828 10.171 81.7357 11.0189C81.9462 11.2856 82.0427 11.6247 82.0041 11.9623C81.9655 12.2999 81.795 12.6085 81.5297 12.8209C81.3698 12.9341 81.1837 13.005 80.989 13.0268Z" fill="#3FD2A9"/>
<path d="M84.2582 15.1881C82.7548 15.1932 81.2837 14.7521 80.0312 13.9208C78.7787 13.0895 77.8012 11.9052 77.2223 10.518C76.6435 9.13086 76.4894 7.60314 76.7795 6.12834C77.0697 4.65355 77.7911 3.29801 78.8523 2.23338C79.9136 1.16875 81.267 0.442927 82.7411 0.147816C84.2152 -0.147295 85.7438 0.00158175 87.1332 0.575595C88.5226 1.14961 89.7105 2.12294 90.5462 3.37233C91.382 4.62172 91.8281 6.09097 91.8281 7.59403C91.8282 9.60365 91.0314 11.5313 89.6125 12.9548C88.1936 14.3782 86.2682 15.1813 84.2582 15.1881ZM84.2582 1.9564C83.1356 1.95131 82.0369 2.27978 81.1014 2.90012C80.166 3.52045 79.4359 4.40469 79.004 5.44058C78.5721 6.47647 78.4577 7.61731 78.6755 8.71829C78.8932 9.81927 79.4333 10.8307 80.227 11.6243C81.0208 12.4179 82.0325 12.9578 83.1337 13.1755C84.2349 13.3932 85.376 13.2789 86.4121 12.8471C87.4482 12.4152 88.3326 11.6854 88.9531 10.7501C89.5736 9.81481 89.9021 8.71632 89.897 7.59403C89.897 6.09884 89.3029 4.66488 88.2454 3.60762C87.188 2.55036 85.7537 1.9564 84.2582 1.9564Z" fill="#332D28"/>
<path d="M118.351 57.5612H94.4571C93.1346 57.5612 92.0625 58.6273 92.0625 59.9424C92.0625 61.2575 93.1346 62.3236 94.4571 62.3236H118.351C119.674 62.3236 120.746 61.2575 120.746 59.9424C120.746 58.6273 119.674 57.5612 118.351 57.5612Z" fill="#303331"/>
<path d="M76.7928 127.891H52.8985C51.576 127.891 50.5039 128.957 50.5039 130.272C50.5039 131.587 51.576 132.653 52.8985 132.653H76.7928C78.1153 132.653 79.1874 131.587 79.1874 130.272C79.1874 128.957 78.1153 127.891 76.7928 127.891Z" fill="#6D6D6D"/>
<path d="M76.7928 57.5612H52.8985C51.576 57.5612 50.5039 58.6273 50.5039 59.9424C50.5039 61.2575 51.576 62.3236 52.8985 62.3236H76.7928C78.1153 62.3236 79.1874 61.2575 79.1874 59.9424C79.1874 58.6273 78.1153 57.5612 76.7928 57.5612Z" fill="#6D6D6D"/>
<path opacity="0.65" d="M89.617 222.519H65.7227C64.4002 222.519 63.3281 223.586 63.3281 224.901C63.3281 226.216 64.4002 227.282 65.7227 227.282H89.617C90.9395 227.282 92.0116 226.216 92.0116 224.901C92.0116 223.586 90.9395 222.519 89.617 222.519Z" fill="white"/>
<path d="M133.309 137.954H40.8992C37.3413 137.954 33.9292 136.541 31.4135 134.026C28.8977 131.51 27.4844 128.099 27.4844 124.542V70.0192C27.498 66.4711 28.9174 63.0729 31.4316 60.5688C33.9459 58.0647 37.3502 56.6587 40.8992 56.6588H133.309C135.077 56.6418 136.832 56.9745 138.471 57.6377C140.11 58.3008 141.601 59.2815 142.86 60.5231C144.119 61.7647 145.119 63.2429 145.805 64.8726C146.49 66.5023 146.846 68.2514 146.853 70.0192V124.542C146.853 126.314 146.502 128.069 145.82 129.704C145.137 131.34 144.138 132.824 142.878 134.071C141.619 135.319 140.125 136.304 138.482 136.97C136.84 137.637 135.082 137.971 133.309 137.954ZM40.8992 58.538C37.8535 58.538 34.9326 59.7476 32.779 61.9008C30.6254 64.0539 29.4155 66.9742 29.4155 70.0192V124.542C29.4155 127.587 30.6254 130.507 32.779 132.66C33.8453 133.727 35.1113 134.572 36.5046 135.149C37.8978 135.726 39.3911 136.023 40.8992 136.023H133.309C136.355 136.023 139.276 134.814 141.43 132.66C143.583 130.507 144.793 127.587 144.793 124.542V70.0192C144.793 66.9742 143.583 64.0539 141.43 61.9008C139.276 59.7476 136.355 58.538 133.309 58.538H40.8992Z" fill="#332D28"/>
<path d="M129.141 128.971H45.073C42.56 128.971 40.1499 127.973 38.3729 126.196C36.5959 124.42 35.5977 122.01 35.5977 119.498V75.0917C35.5976 72.5769 36.5951 70.1647 38.3713 68.384C40.1476 66.6033 42.5576 65.5995 45.073 65.5927H51.716C51.8614 65.5927 52.0054 65.6213 52.1397 65.677C52.274 65.7326 52.3961 65.8141 52.4989 65.9169C52.6017 66.0197 52.6833 66.1417 52.7389 66.276C52.7945 66.4103 52.8232 66.5543 52.8232 66.6996C52.8232 66.845 52.7945 66.989 52.7389 67.1233C52.6833 67.2576 52.6017 67.3796 52.4989 67.4824C52.3961 67.5852 52.274 67.6667 52.1397 67.7223C52.0054 67.7779 51.8614 67.8066 51.716 67.8066H45.073C43.1449 67.8134 41.2981 68.5839 39.9371 69.9494C38.5762 71.3149 37.812 73.164 37.812 75.0917V119.498C37.8188 121.421 38.586 123.263 39.9462 124.623C41.3064 125.983 43.1493 126.75 45.073 126.757H129.141C131.066 126.757 132.913 125.992 134.275 124.631C135.637 123.27 136.402 121.423 136.402 119.498V75.0917C136.402 73.164 135.638 71.3149 134.277 69.9494C132.916 68.5839 131.069 67.8134 129.141 67.8066H61.8865C61.5929 67.8066 61.3113 67.69 61.1036 67.4824C60.896 67.2748 60.7794 66.9932 60.7794 66.6996C60.7794 66.4061 60.896 66.1245 61.1036 65.9169C61.3113 65.7093 61.5929 65.5927 61.8865 65.5927H129.141C131.656 65.5995 134.066 66.6033 135.842 68.384C137.619 70.1647 138.616 72.5769 138.616 75.0917V119.498C138.616 120.742 138.371 121.974 137.895 123.123C137.419 124.272 136.721 125.317 135.841 126.196C134.961 127.076 133.916 127.774 132.767 128.25C131.617 128.726 130.385 128.971 129.141 128.971Z" fill="#332D28"/>
<path d="M122.083 228.801H52.1249C50.235 228.816 48.4051 228.138 46.9816 226.895C45.5581 225.652 44.6398 223.931 44.4004 222.057L40.9759 187.51C40.9426 187.357 40.9421 187.199 40.9746 187.045C41.007 186.892 41.0715 186.748 41.164 186.621C41.2564 186.495 41.3746 186.389 41.5108 186.312C41.647 186.235 41.7981 186.187 41.954 186.172C42.11 186.158 42.2673 186.176 42.4155 186.227C42.5637 186.278 42.6995 186.359 42.8139 186.466C42.9284 186.573 43.0188 186.703 43.0792 186.847C43.1396 186.992 43.1687 187.147 43.1645 187.304L46.6663 221.799C46.8416 223.121 47.4924 224.333 48.4971 225.21C49.5018 226.086 50.7915 226.567 52.1249 226.562H122.083C123.424 226.565 124.72 226.077 125.726 225.19C126.732 224.303 127.378 223.079 127.541 221.748L133.026 167.688C132.992 165.355 132.041 163.129 130.379 161.491C128.716 159.853 126.476 158.935 124.143 158.936H50.065C47.727 158.963 45.4939 159.91 43.8502 161.573C42.2065 163.236 41.2848 165.479 41.2849 167.817L42.5208 179.993C42.535 180.139 42.5202 180.285 42.4773 180.425C42.4344 180.565 42.3643 180.695 42.2709 180.807C42.1776 180.92 42.0628 181.013 41.9334 181.081C41.8039 181.149 41.6623 181.19 41.5167 181.203C41.3725 181.221 41.2263 181.21 41.0866 181.17C40.947 181.13 40.8168 181.062 40.7038 180.971C40.5909 180.88 40.4975 180.766 40.4292 180.638C40.361 180.51 40.3192 180.369 40.3065 180.225L39.0706 167.92C39.0604 166.457 39.3389 165.007 39.8901 163.652C40.4413 162.297 41.2544 161.065 42.2829 160.024C43.3113 158.984 44.5349 158.157 45.8835 157.59C47.2322 157.024 48.6794 156.729 50.1423 156.722H124.143C127.081 156.729 129.897 157.901 131.973 159.981C134.049 162.061 135.214 164.879 135.214 167.817L129.756 222.031C129.523 223.901 128.615 225.622 127.201 226.869C125.788 228.116 123.968 228.803 122.083 228.801Z" fill="#332D28"/>
<path d="M123.243 239.509H91.1094V240.796H123.243V239.509Z" fill="#332D28"/>
<path d="M120.154 272.82H93.7617V274.107H120.154V272.82Z" fill="#332D28"/>
<path d="M123.294 252.354H91.1602V253.642H123.294V252.354Z" fill="#332D28"/>
<path d="M123.294 248.957H91.1602V250.244H123.294V248.957Z" fill="#332D28"/>
<path d="M121.569 255.754H91.1602V257.041H121.569V255.754Z" fill="#332D28"/>
<path d="M121.572 259.151H92.8633V260.438H121.572V259.151Z" fill="#332D28"/>
<path d="M121.495 262.523H92.8633V263.81H121.495V262.523Z" fill="#332D28"/>
<path d="M81.0439 239.509H48.9102V240.796H81.0439V239.509Z" fill="#332D28"/>
<path d="M77.9505 272.82H51.5586V274.107H77.9505V272.82Z" fill="#332D28"/>
<path d="M81.1181 252.354H48.9844V253.642H81.1181V252.354Z" fill="#332D28"/>
<path d="M81.1181 248.957H48.9844V250.244H81.1181V248.957Z" fill="#332D28"/>
<path d="M79.3672 255.754H48.9844V257.041H79.3672V255.754Z" fill="#332D28"/>
<path d="M79.3694 259.151H50.6602V260.438H79.3694V259.151Z" fill="#332D28"/>
<path d="M79.2921 262.523H50.6602V263.81H79.2921V262.523Z" fill="#332D28"/>
<path opacity="0.65" d="M63.8499 269.997L61.6895 249.853C61.5697 248.737 60.5729 247.928 59.4629 248.047C58.353 248.166 57.5503 249.168 57.6701 250.284L59.8304 270.428C59.9502 271.545 60.9471 272.354 62.057 272.235C63.1669 272.116 63.9696 271.114 63.8499 269.997Z" fill="white"/>
<path d="M96.7496 271.689C97.2757 271.689 97.7022 271.262 97.7022 270.736C97.7022 270.21 97.2757 269.784 96.7496 269.784C96.2234 269.784 95.7969 270.21 95.7969 270.736C95.7969 271.262 96.2234 271.689 96.7496 271.689Z" fill="#332D28"/>
<path d="M53.3628 232.583C53.889 232.583 54.3155 232.157 54.3155 231.631C54.3155 231.105 53.889 230.678 53.3628 230.678C52.8367 230.678 52.4102 231.105 52.4102 231.631C52.4102 232.157 52.8367 232.583 53.3628 232.583Z" fill="#332D28"/>
<path d="M15.3355 199.377C15.8616 199.377 16.2882 198.95 16.2882 198.424C16.2882 197.898 15.8616 197.472 15.3355 197.472C14.8093 197.472 14.3828 197.898 14.3828 198.424C14.3828 198.95 14.8093 199.377 15.3355 199.377Z" fill="#332D28"/>
<path d="M158.234 199.377C158.76 199.377 159.187 198.95 159.187 198.424C159.187 197.898 158.76 197.472 158.234 197.472C157.708 197.472 157.281 197.898 157.281 198.424C157.281 198.95 157.708 199.377 158.234 199.377Z" fill="#332D28"/>
<path d="M172.397 166.967C172.236 166.972 172.076 166.945 171.925 166.888C171.775 166.83 171.638 166.743 171.521 166.632C171.401 166.513 171.305 166.37 171.24 166.213C171.174 166.057 171.141 165.888 171.141 165.718C171.141 165.549 171.174 165.38 171.24 165.223C171.305 165.067 171.401 164.924 171.521 164.805L177.057 158.781C177.302 158.543 177.63 158.411 177.971 158.411C178.313 158.411 178.64 158.543 178.885 158.781C179.123 159.026 179.256 159.354 179.256 159.695C179.256 160.036 179.123 160.364 178.885 160.609L173.324 166.658C173.2 166.773 173.054 166.859 172.894 166.913C172.734 166.966 172.564 166.984 172.397 166.967Z" fill="#6D6D6D"/>
<path d="M190.629 184.575C190.472 184.578 190.316 184.55 190.171 184.493C190.025 184.435 189.892 184.349 189.779 184.24C189.659 184.121 189.563 183.978 189.497 183.821C189.432 183.665 189.398 183.496 189.398 183.326C189.398 183.156 189.432 182.988 189.497 182.831C189.563 182.675 189.659 182.532 189.779 182.413L195.315 176.363C195.556 176.127 195.879 175.995 196.216 175.995C196.553 175.995 196.877 176.127 197.117 176.363C197.238 176.483 197.334 176.625 197.399 176.782C197.465 176.939 197.498 177.107 197.498 177.277C197.498 177.447 197.465 177.615 197.399 177.772C197.334 177.929 197.238 178.071 197.117 178.191L191.582 184.24C191.32 184.472 190.978 184.592 190.629 184.575Z" fill="#303331"/>
<path d="M186.995 190.522C186.381 190.526 185.768 190.466 185.167 190.342L174.224 187.948C173.301 187.709 172.464 187.219 171.803 186.532C171.081 185.957 170.537 185.19 170.233 184.318L166.782 173.661C166.329 172.23 166.256 170.706 166.572 169.238C166.888 167.771 167.582 166.412 168.585 165.295L175.434 157.778C176.345 156.807 177.597 156.228 178.927 156.161C180.257 156.093 181.561 156.544 182.566 157.417C183.06 157.862 183.46 158.401 183.743 159.002C184.026 159.603 184.186 160.254 184.214 160.918C184.241 161.568 184.139 162.216 183.913 162.826C183.688 163.436 183.344 163.995 182.901 164.471L176.695 171.318L177.339 173.3C177.383 173.439 177.399 173.585 177.387 173.73C177.375 173.875 177.334 174.016 177.267 174.145C177.2 174.274 177.108 174.389 176.997 174.482C176.885 174.576 176.757 174.647 176.618 174.691C176.481 174.739 176.336 174.759 176.192 174.75C176.047 174.741 175.905 174.703 175.776 174.638C175.646 174.573 175.531 174.483 175.436 174.372C175.342 174.262 175.271 174.134 175.228 173.996L174.378 171.421C174.319 171.232 174.309 171.031 174.35 170.838C174.39 170.644 174.48 170.464 174.61 170.314L181.279 163.003C181.78 162.442 182.04 161.705 182.002 160.953C181.963 160.201 181.629 159.495 181.073 158.988C180.798 158.737 180.477 158.543 180.127 158.417C179.777 158.292 179.405 158.237 179.034 158.256C178.663 158.275 178.299 158.368 177.964 158.529C177.629 158.69 177.329 158.916 177.082 159.194L170.233 166.71C169.485 167.531 168.968 168.535 168.733 169.62C168.498 170.704 168.553 171.832 168.894 172.889L172.344 183.546C172.521 184.056 172.855 184.497 173.297 184.807C173.672 185.238 174.164 185.551 174.713 185.708L185.63 188.128C186.719 188.367 187.853 188.315 188.915 187.976C189.977 187.637 190.932 187.023 191.681 186.198L198.53 178.681C199.033 178.117 199.292 177.376 199.251 176.621C199.235 176.25 199.145 175.885 198.986 175.549C198.826 175.213 198.601 174.912 198.324 174.665C197.766 174.16 197.031 173.896 196.278 173.929C195.526 173.963 194.818 174.292 194.307 174.845L187.664 182.182C187.535 182.327 187.368 182.435 187.182 182.494C186.997 182.553 186.798 182.561 186.608 182.516L177.931 180.586C177.743 180.547 177.568 180.461 177.424 180.334C177.28 180.208 177.17 180.046 177.107 179.865L176.464 177.883C176.381 177.599 176.409 177.295 176.543 177.032C176.677 176.769 176.907 176.566 177.185 176.467C177.323 176.423 177.469 176.407 177.614 176.419C177.759 176.431 177.9 176.472 178.029 176.539C178.158 176.606 178.273 176.698 178.367 176.809C178.46 176.92 178.531 177.049 178.575 177.188L179.039 178.578L186.454 180.225L192.685 173.378C193.597 172.407 194.849 171.828 196.179 171.761C197.508 171.693 198.812 172.144 199.817 173.017C200.807 173.935 201.396 175.205 201.459 176.553C201.522 177.901 201.052 179.22 200.152 180.225L193.329 187.742C192.524 188.62 191.545 189.321 190.455 189.799C189.364 190.278 188.186 190.524 186.995 190.522Z" fill="#332D28"/>
<path d="M174.921 183.622C174.645 183.624 174.377 183.537 174.154 183.375C173.932 183.213 173.767 182.984 173.685 182.721L170.518 172.424C170.415 172.083 170.453 171.715 170.622 171.401C170.791 171.087 171.077 170.853 171.419 170.751C171.76 170.649 172.128 170.686 172.442 170.855C172.756 171.024 172.99 171.311 173.092 171.652L176.259 181.949C176.356 182.273 176.321 182.623 176.162 182.921C176.003 183.22 175.733 183.444 175.41 183.545C175.256 183.611 175.088 183.638 174.921 183.622Z" fill="#6D6D6D"/>
</svg>
