<svg width="380" height="70" viewBox="0 0 380 70" fill="none" xmlns="http://www.w3.org/2000/svg">
<g clip-path="url(#clip0_581_8859)">
<path d="M61.798 54.8782C60.57 56.7637 57.0562 58.2619 47.3075 54.682C46.8208 54.5036 46.3265 54.3125 45.822 54.1163C45.3684 53.9354 44.9073 53.7468 44.441 53.5506C43.9823 53.3596 43.5186 53.1583 43.0522 52.9493C39.2684 51.2829 35.161 49.1426 30.9644 46.6532C29.219 45.6213 27.4608 44.5282 25.7001 43.3816C23.9394 42.235 22.2297 41.0706 20.5786 39.8908C16.6112 37.06 12.9956 34.1706 9.93793 31.3831C9.55575 31.0391 9.18879 30.6951 8.82443 30.3537C8.45497 30.0072 8.10078 29.6606 7.74919 29.3192C7.36188 28.9396 6.98983 28.5599 6.62801 28.1879C4.17172 25.645 2.37025 23.334 1.27714 21.3159C-0.52432 18.001 -0.0911535 16.0543 0.589175 15.0122C1.81733 13.1241 5.33108 11.6259 15.0799 15.2059L16.3641 15.6747C14.8709 16.8468 13.5027 18.2125 12.2974 19.7616C9.0767 18.9106 7.96065 19.2521 7.87146 19.3922C7.77972 19.5324 7.91736 20.6943 9.99654 23.2907C10.259 23.6168 10.552 23.9684 10.8756 24.3429C11.1584 24.6615 11.4616 25.0003 11.7955 25.3545C11.8235 25.38 11.8464 25.4105 11.8744 25.4386C13.9435 27.6401 16.5807 30.0378 19.7326 32.5322C22.3495 34.5987 25.323 36.7389 28.6253 38.8895C31.9275 41.04 35.0845 42.8924 38.0326 44.4492C41.5897 46.3245 44.8461 47.7641 47.6974 48.768C47.7381 48.7834 47.7738 48.7935 47.8095 48.8063C48.2681 48.9668 48.7013 49.1121 49.1064 49.2369C49.5803 49.3847 50.0161 49.5095 50.4238 49.6165C53.6367 50.4676 54.7582 50.1236 54.8472 49.9835C54.9415 49.8459 54.799 48.684 52.7247 46.0876C53.6494 44.36 54.3426 42.5561 54.8138 40.7215L55.7619 41.6948C58.2206 44.2403 60.022 46.5488 61.1127 48.5668C62.9141 51.8843 62.4838 53.8259 61.8006 54.8731L61.798 54.8782Z" fill="#E3A14D"/>
<path d="M53.2801 35.6762C53.2266 36.5935 53.1195 37.5057 52.9462 38.4128C52.6073 40.232 52.0289 42.0284 51.2059 43.7457C50.8645 44.4566 50.4848 45.1548 50.0593 45.8351C49.9778 45.9701 49.8962 46.1052 49.8045 46.2402C49.7994 46.2479 49.7943 46.258 49.7866 46.2657C49.7051 46.3905 49.621 46.5154 49.5369 46.6351C49.2796 46.5536 49.0095 46.4593 48.7267 46.3625C46.0767 45.4299 43.177 44.1483 40.1143 42.5685C36.9369 40.9302 33.5811 38.9657 30.1361 36.7209C26.6886 34.4736 23.5291 32.1982 20.7466 29.9585C18.0635 27.7927 15.7219 25.66 13.8006 23.614C13.5943 23.3974 13.4006 23.1885 13.2197 22.9847C13.2962 22.8572 13.3751 22.7349 13.4567 22.6075C13.4618 22.5999 13.4669 22.5872 13.4745 22.5795C13.5637 22.4445 13.6529 22.3145 13.742 22.1846C14.193 21.5196 14.6772 20.8877 15.1919 20.294C16.4328 18.8416 17.8393 17.5905 19.3656 16.5433C20.1275 16.0184 20.9199 15.547 21.7378 15.1343C28.434 11.7098 36.7305 11.855 43.4752 16.2452C50.2147 20.6354 53.7057 28.1673 53.2801 35.6762Z" fill="url(#paint0_linear_581_8859)"/>
<path d="M39.7178 54.5185C33.3859 57.0563 25.9508 56.5773 19.81 52.5794C13.6692 48.5791 10.2268 41.9721 9.9873 35.1562C12.6653 37.452 15.6516 39.7783 18.9003 42.097C20.6457 43.3404 22.4472 44.566 24.2589 45.7483C26.1062 46.9484 27.9611 48.1001 29.7626 49.1677C33.1948 51.2035 36.5328 52.9973 39.7178 54.5185Z" fill="url(#paint1_linear_581_8859)"/>
<path d="M5.3087 54.71C7.28163 54.71 8.88102 53.1106 8.88102 51.1377C8.88102 49.1648 7.28163 47.5654 5.3087 47.5654C3.33573 47.5654 1.73633 49.1648 1.73633 51.1377C1.73633 53.1106 3.33573 54.71 5.3087 54.71Z" fill="#E3A14D"/>
<path d="M56.9446 23.1368C58.5499 23.1368 59.8516 21.8352 59.8516 20.2295C59.8516 18.6239 58.5499 17.3223 56.9446 17.3223C55.3388 17.3223 54.0371 18.6239 54.0371 20.2295C54.0371 21.8352 55.3388 23.1368 56.9446 23.1368Z" fill="#E3A14D"/>
<path d="M71.4688 41.3419C71.4688 40.8221 71.7486 40.5392 72.2711 40.5392H74.5978C75.1198 40.5392 75.4002 40.8195 75.4002 41.3419C75.6016 45.0696 77.0029 46.2748 80.973 46.2748H88.6323C93.0021 46.2748 94.4876 45.2734 94.4876 42.0247C94.4876 38.776 93.0047 38.2562 89.1952 37.976L80.4149 37.2549C74.2406 36.7733 71.6749 35.0483 71.6749 29.7969C71.6749 24.5455 74.1616 21.7783 81.4187 21.7783H88.4765C95.1729 21.7783 97.7391 24.5047 97.9781 30.5179C97.9781 31.0403 97.6983 31.3206 97.1757 31.3206H94.8496C94.327 31.3206 94.0467 31.0403 94.0467 30.5179C93.8453 26.7902 92.444 25.5851 88.4744 25.5851H81.4569C77.0055 25.5851 75.5634 26.5482 75.5634 29.8351C75.5634 32.8825 77.0082 33.4839 80.8172 33.8049L89.598 34.4852C95.7336 34.9668 98.3783 36.8115 98.3783 42.0222C98.3783 47.2329 95.8916 50.0815 88.6345 50.0815H80.9751C74.2793 50.0815 71.7131 47.3551 71.4735 41.3393L71.4688 41.3419Z" fill="#E3A14D"/>
<path d="M139.635 49.2791V25.5827H129.973C129.451 25.5827 129.171 25.3025 129.171 24.7801V22.5761C129.171 22.0537 129.451 21.7734 129.973 21.7734H153.27C153.792 21.7734 154.073 22.0537 154.073 22.5761V24.7801C154.073 25.3025 153.792 25.5827 153.27 25.5827H143.608V49.2791C143.608 49.8014 143.327 50.0817 142.805 50.0817H140.441C139.918 50.0817 139.638 49.8014 139.638 49.2791H139.635Z" fill="#E3A14D"/>
<path d="M157.438 40.3382V22.5761C157.438 22.0537 157.719 21.7734 158.241 21.7734H160.568C161.09 21.7734 161.37 22.0537 161.37 22.5761V40.4579C161.37 44.9883 162.935 46.2725 166.943 46.2725H175.604C179.614 46.2725 181.138 44.9883 181.138 40.4579V22.5761C181.138 22.0537 181.418 21.7734 181.941 21.7734H184.308C184.828 21.7734 185.111 22.0537 185.111 22.5761V40.3382C185.111 46.5527 182.463 50.0817 175.609 50.0817H166.948C160.05 50.0817 157.444 46.5527 157.444 40.3382H157.438Z" fill="#E3A14D"/>
<path d="M221.075 49.2791V22.5761C221.075 22.0537 221.355 21.7734 221.877 21.7734H224.403C224.802 21.7734 225.164 21.934 225.404 22.255L243.648 44.3487V22.5761C243.648 22.0537 243.928 21.7734 244.45 21.7734H246.777C247.299 21.7734 247.58 22.0537 247.58 22.5761V49.2791C247.58 49.8014 247.299 50.0817 246.777 50.0817H244.17C243.77 50.0817 243.409 49.9212 243.169 49.6001L225.004 27.6262V49.2791C225.004 49.8014 224.723 50.0817 224.201 50.0817H221.875C221.353 50.0817 221.072 49.8014 221.072 49.2791H221.075Z" fill="#E3A14D"/>
<path d="M262.656 49.2791V22.5761C262.656 22.0537 262.937 21.7734 263.459 21.7734H265.785C266.307 21.7734 266.588 22.0537 266.588 22.5761V46.2725H284.832C285.351 46.2725 285.634 46.5527 285.634 47.0751V49.2816C285.634 49.804 285.354 50.0843 284.832 50.0843H263.459C262.937 50.0843 262.656 49.804 262.656 49.2816V49.2791Z" fill="white"/>
<path d="M352.561 41.3419C352.561 40.8221 352.84 40.5392 353.363 40.5392H355.689C356.212 40.5392 356.492 40.8195 356.492 41.3419C356.693 45.0696 358.095 46.2748 362.064 46.2748H369.724C374.094 46.2748 375.579 45.2734 375.579 42.0247C375.579 38.776 374.097 38.2562 370.287 37.976L361.507 37.2549C355.332 36.7733 352.767 35.0483 352.767 29.7969C352.767 24.5455 355.253 21.7783 362.51 21.7783H369.568C376.265 21.7783 378.83 24.5047 379.07 30.5179C379.07 31.0403 378.79 31.3206 378.268 31.3206H375.941C375.419 31.3206 375.138 31.0403 375.138 30.5179C374.937 26.7902 373.536 25.5851 369.566 25.5851H362.549C358.097 25.5851 356.655 26.5482 356.655 29.8351C356.655 32.8825 358.1 33.4839 361.909 33.8049L370.69 34.4852C376.825 34.9668 379.47 36.8115 379.47 42.0222C379.47 47.2329 376.983 50.0815 369.726 50.0815H362.067C355.371 50.0815 352.805 47.3551 352.565 41.3393L352.561 41.3419Z" fill="white"/>
<path d="M132.097 49.1204L118.424 22.3359C118.222 21.9359 117.942 21.7754 117.501 21.7754H114.694C114.253 21.7754 113.972 21.9359 113.771 22.3359L100.057 49.1204C99.7771 49.681 100.057 50.0836 100.659 50.0836H103.344C103.785 50.0836 104.066 49.9231 104.267 49.5231L106.713 44.7124H123.438L121.731 41.344H108.397L116.136 26.028L122.952 39.6598L126.078 45.8998L127.884 49.4848C128.086 49.8848 128.366 50.0862 128.807 50.0862H131.493C132.094 50.0862 132.374 49.6862 132.094 49.123L132.097 49.1204Z" fill="#E3A14D"/>
<path d="M320.16 49.1204L306.487 22.3359C306.286 21.9359 306.005 21.7754 305.565 21.7754H302.757C302.316 21.7754 302.036 21.9359 301.834 22.3359L288.121 49.1204C287.841 49.681 288.121 50.0836 288.722 50.0836H291.408C291.848 50.0836 292.129 49.9231 292.33 49.5231L294.777 44.7124H311.502L309.794 41.344H296.463L304.201 26.028L311.224 40.0751L314.351 46.3177L315.948 49.4848C316.149 49.8848 316.43 50.0862 316.87 50.0862H319.556C320.158 50.0862 320.437 49.6862 320.157 49.123L320.16 49.1204Z" fill="white"/>
<path d="M345.382 35.8072C347.025 35.0046 348.87 33.7229 348.87 29.7939V29.3939C348.829 24.2214 346.103 21.7754 339.328 21.7754H321.071C320.549 21.7754 320.269 22.0556 320.269 22.578V25.5846H339.127C343.097 25.5846 344.821 26.6268 344.821 29.715V30.2755C344.821 33.2031 343.178 34.044 340.13 34.044H327.1V27.5033H323.171V49.281C323.171 49.8033 323.451 50.0836 323.973 50.0836H339.611C346.386 50.0836 349.074 47.7573 349.074 42.6256V42.2638C349.074 38.1743 347.069 36.6098 345.385 35.8072H345.382ZM345.061 42.2638C345.061 45.352 343.336 46.3126 339.407 46.3126H327.097V37.5322H340.25C343.376 37.5322 345.061 38.7348 345.061 41.7414V42.2638Z" fill="white"/>
<path d="M216.863 32.0393V31.5578C216.863 24.8616 214.055 21.7734 205.636 21.7734H191.12C190.597 21.7734 190.317 22.0537 190.317 22.5761V25.5827H205.394C211.048 25.5827 212.893 26.6656 212.893 31.596V31.996C212.893 36.8474 211.008 37.8895 205.394 37.8895H194.246V27.4988H190.317V49.2765C190.317 49.7989 190.597 50.0791 191.12 50.0791H193.446C193.968 50.0791 194.249 49.7989 194.249 49.2765V41.658H206.319L211.693 49.5568C211.932 49.9187 212.254 50.0791 212.656 50.0791H215.423C216.065 50.0791 216.305 49.6384 215.945 49.1161L210.452 41.258C215.263 40.2566 216.868 37.1685 216.868 32.0368L216.863 32.0393Z" fill="#E3A14D"/>
</g>
<defs>
<linearGradient id="paint0_linear_581_8859" x1="22.2066" y1="13.185" x2="52.5992" y2="43.5781" gradientUnits="userSpaceOnUse">
<stop stop-color="#94E5FF"/>
<stop offset="1" stop-color="#0091E9"/>
</linearGradient>
<linearGradient id="paint1_linear_581_8859" x1="10.5147" y1="34.6288" x2="35.0596" y2="59.1766" gradientUnits="userSpaceOnUse">
<stop stop-color="#94E5FF"/>
<stop offset="1" stop-color="#0091E9"/>
</linearGradient>
<clipPath id="clip0_581_8859">
<rect width="380" height="44.5188" fill="white" transform="translate(0 12.7402)"/>
</clipPath>
</defs>
</svg>
