<svg width="247" height="29" viewBox="0 0 247 29" fill="none" xmlns="http://www.w3.org/2000/svg">
<g clip-path="url(#clip0_714_9045)">
<path d="M40.1687 27.3886C39.3705 28.6142 37.0865 29.5881 30.7499 27.2611C30.4335 27.1452 30.1122 27.0209 29.7843 26.8934C29.4895 26.7758 29.1897 26.6533 28.8866 26.5257C28.5885 26.4015 28.2871 26.2707 27.984 26.1349C25.5245 25.0517 22.8546 23.6605 20.1268 22.0424C18.9923 21.3717 17.8495 20.6612 16.7051 19.9158C15.5606 19.1706 14.4493 18.4137 13.3761 17.6469C10.7973 15.8068 8.44712 13.9287 6.45965 12.1168C6.21124 11.8932 5.97271 11.6697 5.73588 11.4477C5.49573 11.2225 5.26551 10.9972 5.03697 10.7753C4.78522 10.5285 4.54339 10.2817 4.3082 10.0399C2.71162 8.38708 1.54066 6.88489 0.830144 5.57318C-0.340808 3.41847 -0.0592498 2.15314 0.382964 1.47575C1.18126 0.248511 3.4652 -0.725331 9.80194 1.60163L10.6367 1.90637C9.6661 2.66822 8.77673 3.55594 7.99333 4.56289C5.89985 4.00974 5.17443 4.23166 5.11645 4.32274C5.05682 4.41386 5.14628 5.16909 6.49775 6.85675C6.66835 7.06875 6.85881 7.29728 7.06916 7.54074C7.25298 7.74777 7.45006 7.96804 7.66706 8.19827C7.68525 8.21484 7.70016 8.23468 7.71839 8.2529C9.06325 9.68388 10.7774 11.2424 12.8262 12.8638C14.5271 14.2069 16.4599 15.5981 18.6064 16.996C20.7529 18.3938 22.805 19.5979 24.7212 20.6098C27.0333 21.8288 29.15 22.7645 31.0033 23.417C31.0298 23.427 31.053 23.4336 31.0761 23.4419C31.3743 23.5462 31.6558 23.6407 31.9192 23.7218C32.2272 23.8179 32.5104 23.899 32.7755 23.9686C34.8639 24.5218 35.5928 24.2982 35.6507 24.2071C35.712 24.1176 35.6193 23.3624 34.271 21.6747C34.8721 20.5518 35.3227 19.3793 35.629 18.1868L36.2453 18.8195C37.8434 20.474 39.0143 21.9745 39.7232 23.2862C40.8942 25.4426 40.6144 26.7046 40.1704 27.3853L40.1687 27.3886Z" fill="#E3A14D"/>
<path d="M34.6252 14.9084C34.5904 15.5046 34.5208 16.0975 34.4082 16.6871C34.1879 17.8697 33.8119 19.0373 33.2769 20.1536C33.055 20.6156 32.8082 21.0694 32.5316 21.5117C32.4787 21.5994 32.4256 21.6872 32.366 21.775C32.3627 21.78 32.3594 21.7866 32.3544 21.7915C32.3014 21.8727 32.2468 21.9539 32.1921 22.0317C32.0248 21.9787 31.8493 21.9174 31.6655 21.8545C29.943 21.2483 28.0582 20.4153 26.0674 19.3884C24.0021 18.3235 21.8208 17.0465 19.5816 15.5874C17.3407 14.1267 15.287 12.6477 13.4784 11.1919C11.7344 9.78409 10.2123 8.39786 8.96353 7.06795C8.82939 6.92716 8.70351 6.79136 8.58594 6.65887C8.63561 6.57606 8.68694 6.49655 8.73996 6.41373C8.74327 6.40877 8.74657 6.4005 8.75153 6.39554C8.80951 6.30777 8.86749 6.2233 8.92543 6.13883C9.2186 5.70656 9.53329 5.29582 9.86786 4.90992C10.6744 3.96588 11.5887 3.15269 12.5808 2.47199C13.076 2.13082 13.591 1.82442 14.1227 1.55612C18.4752 -0.669812 23.8679 -0.575411 28.252 2.27822C32.6327 5.13185 34.9018 10.0276 34.6252 14.9084Z" fill="url(#paint0_linear_714_9045)"/>
<path d="M25.8053 27.1558C21.6896 28.8053 16.8567 28.494 12.8652 25.8954C8.87368 23.2952 6.63614 19.0006 6.48047 14.5703C8.22115 16.0625 10.1623 17.5747 12.2739 19.0818C13.4085 19.89 14.5794 20.6866 15.757 21.4551C16.9577 22.2352 18.1635 22.9838 19.3344 23.6778C21.5653 25.0011 23.735 26.167 25.8053 27.1558Z" fill="url(#paint1_linear_714_9045)"/>
<path d="M3.44704 27.2807C4.72945 27.2807 5.76905 26.2411 5.76905 24.9587C5.76905 23.6763 4.72945 22.6367 3.44704 22.6367C2.16461 22.6367 1.125 23.6763 1.125 24.9587C1.125 26.2411 2.16461 27.2807 3.44704 27.2807Z" fill="#E3A14D"/>
<path d="M37.0149 6.75699C38.0583 6.75699 38.9044 5.91092 38.9044 4.86725C38.9044 3.82362 38.0583 2.97754 37.0149 2.97754C35.9711 2.97754 35.125 3.82362 35.125 4.86725C35.125 5.91092 35.9711 6.75699 37.0149 6.75699Z" fill="#E3A14D"/>
<path d="M46.4531 18.5893C46.4531 18.2515 46.635 18.0676 46.9747 18.0676H48.487C48.8263 18.0676 49.0086 18.2498 49.0086 18.5893C49.1395 21.0124 50.0503 21.7958 52.6309 21.7958H57.6095C60.4498 21.7958 61.4154 21.1449 61.4154 19.0332C61.4154 16.9216 60.4515 16.5837 57.9753 16.4015L52.2681 15.9328C48.2548 15.6198 46.5871 14.4985 46.5871 11.0851C46.5871 7.6717 48.2035 5.87305 52.9206 5.87305H57.5082C61.8608 5.87305 63.5289 7.64518 63.6842 11.5538C63.6842 11.8933 63.5023 12.0755 63.1627 12.0755H61.6507C61.311 12.0755 61.1288 11.8933 61.1288 11.5538C60.9979 9.13079 60.087 8.34742 57.5068 8.34742H52.9454C50.052 8.34742 49.1147 8.97346 49.1147 11.11C49.1147 13.0908 50.0537 13.4816 52.5296 13.6903L58.2371 14.1325C62.2253 14.4455 63.9443 15.6446 63.9443 19.0316C63.9443 22.4185 62.328 24.2701 57.6108 24.2701H52.6323C48.28 24.2701 46.6119 22.498 46.4562 18.5877L46.4531 18.5893Z" fill="#E3A14D"/>
<path d="M90.7629 23.7498V8.34712H84.4825C84.1428 8.34712 83.9609 8.16496 83.9609 7.82543V6.39283C83.9609 6.05329 84.1428 5.87109 84.4825 5.87109H99.6253C99.965 5.87109 100.147 6.05329 100.147 6.39283V7.82543C100.147 8.16496 99.965 8.34712 99.6253 8.34712H93.3449V23.7498C93.3449 24.0893 93.1626 24.2715 92.8233 24.2715H91.2862C90.9469 24.2715 90.7646 24.0893 90.7646 23.7498H90.7629Z" fill="#E3A14D"/>
<path d="M102.336 17.9382V6.39283C102.336 6.05329 102.518 5.87109 102.858 5.87109H104.37C104.709 5.87109 104.892 6.05329 104.892 6.39283V18.016C104.892 20.9607 105.909 21.7955 108.514 21.7955H114.143C116.75 21.7955 117.741 20.9607 117.741 18.016V6.39283C117.741 6.05329 117.923 5.87109 118.262 5.87109H119.801C120.139 5.87109 120.323 6.05329 120.323 6.39283V17.9382C120.323 21.9776 118.602 24.2715 114.147 24.2715H108.517C104.034 24.2715 102.339 21.9776 102.339 17.9382H102.336Z" fill="#E3A14D"/>
<path d="M143.693 23.7498V6.39283C143.693 6.05329 143.875 5.87109 144.215 5.87109H145.856C146.116 5.87109 146.351 5.97544 146.507 6.18413L158.366 20.545V6.39283C158.366 6.05329 158.548 5.87109 158.887 5.87109H160.399C160.739 5.87109 160.921 6.05329 160.921 6.39283V23.7498C160.921 24.0893 160.739 24.2715 160.399 24.2715H158.705C158.445 24.2715 158.21 24.1671 158.054 23.9585L146.247 9.67541V23.7498C146.247 24.0893 146.065 24.2715 145.725 24.2715H144.213C143.874 24.2715 143.691 24.0893 143.691 23.7498H143.693Z" fill="#E3A14D"/>
<path d="M170.723 23.7498V6.39283C170.723 6.05329 170.905 5.87109 171.244 5.87109H172.757C173.096 5.87109 173.278 6.05329 173.278 6.39283V21.7955H185.137C185.474 21.7955 185.658 21.9776 185.658 22.3172V23.7514C185.658 24.0909 185.476 24.2731 185.137 24.2731H171.244C170.905 24.2731 170.723 24.0909 170.723 23.7514V23.7498Z" fill="white"/>
<path d="M229.164 18.5893C229.164 18.2515 229.346 18.0676 229.686 18.0676H231.198C231.537 18.0676 231.72 18.2498 231.72 18.5893C231.85 21.0124 232.761 21.7958 235.341 21.7958H240.32C243.161 21.7958 244.126 21.1449 244.126 19.0332C244.126 16.9216 243.162 16.5837 240.686 16.4015L234.979 15.9328C230.966 15.6198 229.298 14.4985 229.298 11.0851C229.298 7.6717 230.914 5.87305 235.632 5.87305H240.219C244.572 5.87305 246.239 7.64518 246.395 11.5538C246.395 11.8933 246.213 12.0755 245.874 12.0755H244.361C244.022 12.0755 243.84 11.8933 243.84 11.5538C243.709 9.13079 242.798 8.34742 240.218 8.34742H235.656C232.763 8.34742 231.826 8.97346 231.826 11.11C231.826 13.0908 232.765 13.4816 235.241 13.6903L240.948 14.1325C244.936 14.4455 246.655 15.6446 246.655 19.0316C246.655 22.4185 245.039 24.2701 240.322 24.2701H235.343C230.991 24.2701 229.323 22.498 229.167 18.5877L229.164 18.5893Z" fill="white"/>
<path d="M85.8574 23.6473L76.9699 6.23738C76.839 5.97736 76.6571 5.87305 76.3705 5.87305H74.5454C74.2588 5.87305 74.0765 5.97736 73.9456 6.23738L65.0319 23.6473C64.8497 24.0117 65.0319 24.2734 65.4229 24.2734H67.1685C67.4551 24.2734 67.6373 24.1691 67.7679 23.909L69.358 20.7821H80.2295L79.1199 18.5926H70.4528L75.4827 8.63724L79.9132 17.4979L81.9454 21.5539L83.1194 23.8842C83.2503 24.1442 83.4326 24.2751 83.7192 24.2751H85.4647C85.8557 24.2751 86.038 24.015 85.8557 23.649L85.8574 23.6473Z" fill="#E3A14D"/>
<path d="M208.107 23.6473L199.22 6.23738C199.089 5.97736 198.907 5.87305 198.621 5.87305H196.795C196.509 5.87305 196.327 5.97736 196.196 6.23738L187.282 23.6473C187.1 24.0117 187.282 24.2734 187.673 24.2734H189.418C189.705 24.2734 189.887 24.1691 190.018 23.909L191.608 20.7821H202.48L201.37 18.5926H192.704L197.734 8.63724L202.299 17.7678L204.331 21.8255L205.369 23.8842C205.5 24.1442 205.683 24.2751 205.969 24.2751H207.715C208.106 24.2751 208.288 24.015 208.105 23.649L208.107 23.6473Z" fill="white"/>
<path d="M224.496 14.9937C225.564 14.472 226.763 13.6389 226.763 11.0851V10.8251C226.736 7.46298 224.964 5.87305 220.56 5.87305H208.693C208.354 5.87305 208.172 6.05521 208.172 6.39474V8.34904H220.43C223.01 8.34904 224.131 9.02645 224.131 11.0338V11.3981C224.131 13.3011 223.063 13.8476 221.082 13.8476H212.612V9.59617H210.058V23.7517C210.058 24.0912 210.241 24.2734 210.58 24.2734H220.744C225.148 24.2734 226.896 22.7613 226.896 19.4257V19.1905C226.896 16.5323 225.592 15.5154 224.497 14.9937H224.496ZM224.287 19.1905C224.287 21.1978 223.166 21.8222 220.612 21.8222H212.611V16.115H221.16C223.192 16.115 224.287 16.8967 224.287 18.851V19.1905Z" fill="white"/>
<path d="M140.958 12.5439V12.2309C140.958 7.87841 139.133 5.87109 133.66 5.87109H124.225C123.885 5.87109 123.703 6.05329 123.703 6.39283V8.34712H133.503C137.178 8.34712 138.377 9.05102 138.377 12.2558V12.5158C138.377 15.6692 137.152 16.3465 133.503 16.3465H126.257V9.5926H123.703V23.7481C123.703 24.0876 123.885 24.2698 124.225 24.2698H125.737C126.076 24.2698 126.259 24.0876 126.259 23.7481V18.7961H134.104L137.597 23.9303C137.753 24.1655 137.962 24.2698 138.223 24.2698H140.022C140.439 24.2698 140.595 23.9833 140.361 23.6438L136.79 18.5361C139.918 17.8852 140.961 15.8779 140.961 12.5423L140.958 12.5439Z" fill="#E3A14D"/>
</g>
<defs>
<linearGradient id="paint0_linear_714_9045" x1="14.4274" y1="0.289125" x2="34.1826" y2="20.0446" gradientUnits="userSpaceOnUse">
<stop stop-color="#94E5FF"/>
<stop offset="1" stop-color="#0091E9"/>
</linearGradient>
<linearGradient id="paint1_linear_714_9045" x1="6.82331" y1="14.2275" x2="22.7774" y2="30.1836" gradientUnits="userSpaceOnUse">
<stop stop-color="#94E5FF"/>
<stop offset="1" stop-color="#0091E9"/>
</linearGradient>
<clipPath id="clip0_714_9045">
<rect width="247" height="28.9372" fill="white"/>
</clipPath>
</defs>
</svg>
