<svg width="20" height="22" viewBox="0 0 20 22" fill="none" xmlns="http://www.w3.org/2000/svg">
<path d="M4.5283 6.28087C4.5283 6.28087 3.18407 7.95213 1.19378 7.02032C1.19378 7.02032 -1.09147 5.87002 0.661694 3.25389C0.661694 3.25389 2.00593 1.39853 3.62586 2.51488C3.62586 2.51488 5.50131 3.68998 5.00999 5.38126L4.5283 6.28087Z" fill="#C69C6D"/>
<path d="M12.908 4.70549C12.908 4.70549 14.8115 5.70651 16.2631 4.0644C16.2631 4.0644 17.8976 2.10503 15.2397 0.399383C15.2397 0.399383 13.2626 -0.770498 12.2247 0.894234C12.2247 0.894234 10.9764 2.71391 12.1054 4.07094L12.908 4.70549Z" fill="#C69C6D"/>
<path d="M3.60253 5.5512C3.60253 5.5512 2.94816 6.36463 1.97954 5.91113C1.97954 5.91113 0.867157 5.35144 1.72051 4.07797C1.72051 4.07797 2.37488 3.17488 3.16337 3.71804C3.16337 3.71804 4.07588 4.28993 3.83702 5.11293L3.60253 5.55076V5.5512Z" fill="#F8EBC9"/>
<path d="M13.5737 3.59152C13.5737 3.59152 14.5003 4.07854 15.2068 3.27947C15.2068 3.27947 16.0023 2.32589 14.7085 1.49591C14.7085 1.49591 13.746 0.926644 13.2411 1.73703C13.2411 1.73703 12.6336 2.62271 13.1832 3.28294L13.5737 3.59196V3.59152Z" fill="#F8EBC9"/>
<path d="M6.82469 11.6517C6.82469 11.6517 5.07152 14.3301 4.97116 15.9931C4.97116 15.9931 4.24797 15.846 3.84694 15.8556C3.84694 15.8556 2.53732 14.1264 0.955967 15.2532C0.955967 15.2532 -0.592518 16.343 0.268286 18.5753C0.268286 18.5753 1.31317 21.5008 4.4246 21.3141C4.4246 21.3141 5.12981 21.258 5.59747 20.9054C5.59747 20.9054 4.8686 21.0094 7.57899 20.6569C7.57899 20.6569 10.1004 20.5964 13.0664 20.6525C13.953 20.6695 14.7424 20.9977 16.1252 20.9824C16.1252 20.9824 18.7419 21.8555 19.8989 18.2441C19.8989 18.2441 20.47 16.5371 18.882 15.3041C18.882 15.3041 17.7386 14.542 16.4662 15.997C16.4662 15.997 15.6851 15.9978 15.3574 16.0923C15.3574 16.0923 14.5917 13.2707 13.8983 12.1248L6.82513 11.6517H6.82469Z" fill="#C69C6D"/>
<path d="M7.53252 14.2761L7.08984 18.3259C7.08984 18.3259 9.83182 19.8318 13.673 18.1321L12.8126 13.6659C12.8126 13.6659 9.7998 14.6586 7.53252 14.2757V14.2761Z" fill="#F8EBC9"/>
<path d="M5.70089 13.8743C5.70089 13.8743 4.57186 18.7623 6.88822 21.1199C6.88822 21.1199 7.65479 21.9686 8.96047 21.7209C8.96047 21.7209 10.0207 21.4324 10.0628 20.4941C10.1228 19.151 8.97799 18.4794 8.47177 17.0766C8.47177 17.0766 7.73106 14.9598 8.06022 14.1585L5.70089 13.8743Z" fill="#C69C6D"/>
<path d="M13.8659 12.9381C13.8659 12.9381 16.2388 18.0107 14.3528 20.7199C14.3528 20.7199 13.7401 21.684 12.4112 21.657C12.4112 21.657 11.3173 21.5486 11.1178 20.6303C10.832 19.3159 11.8186 18.6574 12.1101 16.9966C12.1101 16.9966 12.3586 15.8085 11.9115 13.6658L13.8663 12.9377L13.8659 12.9381Z" fill="#C69C6D"/>
<path d="M10.6771 14.0587C10.6771 14.0587 4.75886 15.7444 2.81986 11.3465C2.81986 11.3465 0.990873 7.07255 4.71766 3.60164C4.71766 3.60164 8.1736 0.650385 11.7685 2.20805C11.7685 2.20805 15.6342 3.59033 16.3635 7.91514C16.3635 7.91514 17.4409 12.5585 10.6767 14.0592L10.6771 14.0587Z" fill="#C69C6D"/>
<path d="M11.9291 9.20509C10.9341 8.61536 9.56359 8.93655 9.56359 8.93655C9.56359 8.93655 8.16587 9.10891 7.44006 10.0055C7.44006 10.0055 6.61563 10.8485 6.91192 12.2086C6.91192 12.2086 7.13982 13.4354 8.55113 13.7654C8.55113 13.7654 9.39613 13.9608 10.4392 13.7749C11.4824 13.5891 12.2061 13.1134 12.2061 13.1134C13.4136 12.3169 13.1971 11.0874 13.1971 11.0874C12.998 9.70991 11.9294 9.20421 11.9294 9.20421L11.9291 9.20509Z" fill="#F8EBC9"/>
<path d="M6.00474 10.5976C6.54454 10.5976 6.98213 10.1631 6.98213 9.62705C6.98213 9.09103 6.54454 8.65649 6.00474 8.65649C5.46494 8.65649 5.02734 9.09103 5.02734 9.62705C5.02734 10.1631 5.46494 10.5976 6.00474 10.5976Z" fill="#534741"/>
<path d="M6.1974 9.71804C6.4035 9.71804 6.57058 9.55213 6.57058 9.34747C6.57058 9.14284 6.4035 8.97693 6.1974 8.97693C5.9913 8.97693 5.82422 9.14284 5.82422 9.34747C5.82422 9.55213 5.9913 9.71804 6.1974 9.71804Z" fill="white"/>
<path d="M12.9579 9.24448C13.4977 9.24448 13.9352 8.80991 13.9352 8.27389C13.9352 7.73787 13.4977 7.30334 12.9579 7.30334C12.4181 7.30334 11.9805 7.73787 11.9805 8.27389C11.9805 8.80991 12.4181 9.24448 12.9579 9.24448Z" fill="#534741"/>
<path d="M13.0793 8.36093C13.2805 8.36093 13.4436 8.19891 13.4436 7.99907C13.4436 7.79922 13.2805 7.63721 13.0793 7.63721C12.878 7.63721 12.7148 7.79922 12.7148 7.99907C12.7148 8.19891 12.878 8.36093 13.0793 8.36093Z" fill="white"/>
<path d="M10.6514 10.2857C10.4607 9.81444 9.90233 9.8967 9.75376 9.92804C9.60296 9.94976 9.05076 10.0638 9.03542 10.5717C9.03542 10.5717 9.01526 10.9429 9.32911 11.1815C9.32911 11.1815 9.55177 11.3777 9.96544 11.3237V11.3255C9.97865 11.3234 9.99085 11.3207 10.0031 11.3186C10.0154 11.3168 10.0277 11.3146 10.0405 11.3125V11.3107C10.4028 11.2272 10.5782 10.9773 10.5782 10.9773C10.796 10.65 10.6514 10.2862 10.6514 10.2862V10.2857Z" fill="#534741"/>
<path d="M3.56046 17.6044C4.17188 18.6747 4.18328 19.6722 3.66653 20.1562C3.04898 20.7341 1.84017 20.0382 1.22832 18.968C0.616899 17.8978 0.61909 16.6905 1.3541 16.2761C2.08912 15.8623 2.94905 16.5343 3.56091 17.6044H3.56046Z" fill="#B2875B"/>
<path d="M16.529 17.7253C16.0114 18.8435 16.0855 19.8384 16.6421 20.2766C17.307 20.8006 18.4518 20.005 18.9699 18.8869C19.4875 17.7689 19.3823 16.5659 18.6144 16.2156C17.8466 15.8648 17.0471 16.6072 16.5295 17.7253H16.529Z" fill="#B2875B"/>
<path d="M9.8732 12.6953C9.25262 12.6953 8.88665 12.4032 8.86867 12.3884C8.79373 12.3275 8.78321 12.2179 8.84457 12.1434C8.90594 12.069 9.01638 12.0585 9.09133 12.1194C9.10755 12.1321 9.51603 12.4494 10.2116 12.3132L10.2282 12.3101C10.9238 12.1739 11.1807 11.7269 11.1912 11.7082C11.2381 11.6247 11.3441 11.5937 11.4287 11.6394C11.5133 11.6851 11.5449 11.79 11.4993 11.874C11.4857 11.8988 11.1609 12.4824 10.2957 12.6517L10.2791 12.6548C10.134 12.6831 9.99812 12.6953 9.8732 12.6953Z" fill="#534741"/>
<path d="M10.2018 12.5681C10.1189 12.5681 10.0453 12.5093 10.0295 12.4253L9.75682 10.9547C9.73932 10.8602 9.80243 10.7693 9.89756 10.7518C9.99307 10.7344 10.0843 10.7971 10.1018 10.8916L10.3744 12.3621C10.3919 12.4566 10.3288 12.5475 10.2337 12.565C10.2228 12.5667 10.2123 12.5681 10.2018 12.5681Z" fill="#534741"/>
</svg>
