<svg width="62" height="62" viewBox="0 0 62 62" fill="none" xmlns="http://www.w3.org/2000/svg">
<path d="M60.8469 31.0782C60.8469 47.5354 47.5051 60.8772 31.048 60.8772C14.5908 60.8772 1.24902 47.5354 1.24902 31.0782C1.24902 14.6211 14.5908 1.2793 31.048 1.2793C47.5051 1.2793 60.8469 14.6211 60.8469 31.0782Z" stroke="url(#paint0_linear_581_8847)" stroke-width="1.3545"/>
<path d="M40.1399 19.8199C40.8743 19.3879 41.8247 19.9926 41.6519 20.8566L38.5416 39.5184C38.4552 40.2096 37.7208 40.5983 37.116 40.3392L31.7594 38.0496L28.9947 41.4191C28.3899 42.1535 27.1804 41.7647 27.1804 40.7279V37.2289L37.548 24.5717C37.764 24.3125 37.4184 24.0101 37.2024 24.2261L24.8045 35.1553L20.1822 33.2114C19.4047 32.909 19.3183 31.7858 20.0958 31.3539L40.1399 19.8199Z" fill="white"/>
<defs>
<linearGradient id="paint0_linear_581_8847" x1="77.6276" y1="284.854" x2="-39.4035" y2="268.956" gradientUnits="userSpaceOnUse">
<stop stop-color="#268AFF"/>
<stop offset="1" stop-color="#1ED6FF"/>
</linearGradient>
</defs>
</svg>
