<svg width="20" height="20" viewBox="0 0 20 20" fill="none" xmlns="http://www.w3.org/2000/svg">
<mask id="mask0_1530_35918" style="mask-type:alpha" maskUnits="userSpaceOnUse" x="0" y="0" width="20" height="20">
<rect x="0.203125" y="0.119873" width="19.6801" height="19.68" fill="#D9D9D9"/>
</mask>
<g mask="url(#mask0_1530_35918)">
<path d="M8.86045 13.9637L14.8153 8.00887L13.3544 6.53642L8.86045 11.0304L6.66249 8.83242L5.20164 10.3049L8.86045 13.9637ZM10.0432 18.5539C8.84708 18.5539 7.72705 18.3287 6.68313 17.8782C5.6392 17.4278 4.73113 16.8164 3.95892 16.0442C3.1867 15.272 2.57536 14.3639 2.1249 13.32C1.67445 12.2761 1.44922 11.1561 1.44922 9.95994C1.44922 8.7638 1.67445 7.64378 2.1249 6.59986C2.57536 5.55593 3.1867 4.64787 3.95892 3.87566C4.73113 3.10344 5.6392 2.4921 6.68313 2.04165C7.72705 1.59119 8.84708 1.36597 10.0432 1.36597C11.2394 1.36597 12.3594 1.59119 13.4033 2.04165C14.4472 2.4921 15.3553 3.10344 16.1275 3.87566C16.8997 4.64787 17.5111 5.55593 17.9615 6.59986C18.412 7.64378 18.6372 8.7638 18.6372 9.95994C18.6372 11.1561 18.412 12.2761 17.9615 13.32C17.5111 14.3639 16.8997 15.272 16.1275 16.0442C15.3553 16.8164 14.4472 17.4278 13.4033 17.8782C12.3594 18.3287 11.2394 18.5539 10.0432 18.5539ZM10.0432 16.3809C11.8437 16.3809 13.3639 15.7608 14.604 14.5207C15.8441 13.2806 16.4642 11.7604 16.4642 9.95994C16.4642 8.1595 15.8441 6.63924 14.604 5.39914C13.3639 4.15904 11.8437 3.53899 10.0432 3.53899C8.24278 3.53899 6.72251 4.15904 5.4824 5.39914C4.2423 6.63924 3.62225 8.1595 3.62225 9.95994C3.62225 11.7604 4.2423 13.2806 5.4824 14.5207C6.72251 15.7608 8.24278 16.3809 10.0432 16.3809Z" fill="url(#paint0_linear_1530_35918)"/>
</g>
<defs>
<linearGradient id="paint0_linear_1530_35918" x1="1.8432" y1="19.8" x2="29.7233" y2="4.21986" gradientUnits="userSpaceOnUse">
<stop stop-color="#10CBC2"/>
<stop offset="1" stop-color="#00FFF2"/>
</linearGradient>
</defs>
</svg>
