<svg width="62" height="62" viewBox="0 0 62 62" fill="none" xmlns="http://www.w3.org/2000/svg">
<g id="Frame">
<path id="Vector" d="M61.2282 31.0785C61.2282 47.6715 47.7769 61.1228 31.184 61.1228C14.591 61.1228 1.13965 47.6715 1.13965 31.0785C1.13965 14.4855 14.591 1.03418 31.184 1.03418C47.7769 1.03418 61.2282 14.4855 61.2282 31.0785Z" stroke="url(#paint0_linear_581_8839)" stroke-width="0.865524"/>
<path id="Vector_2" d="M25.5187 45.677C38.2386 45.677 45.1976 35.1409 45.1976 25.998C45.1976 25.7055 45.1976 25.4007 45.1767 25.1047C46.5282 24.1241 47.697 22.914 48.6301 21.5294C47.3689 22.0897 46.0302 22.4561 44.6595 22.6161C46.1042 21.7517 47.184 20.3901 47.6967 18.7865C46.3408 19.5931 44.8563 20.1604 43.3081 20.4636C42.2662 19.3521 40.8867 18.6155 39.3834 18.3682C37.8802 18.1208 36.3374 18.3765 34.9943 19.0956C33.6513 19.8147 32.5831 20.9569 31.9555 22.3451C31.3279 23.7332 31.176 25.2897 31.5234 26.773C28.7738 26.6369 26.0836 25.9233 23.628 24.6787C21.1724 23.4341 19.0064 21.6864 17.271 19.5493C16.6547 20.6031 16.3317 21.8028 16.3358 23.0236C16.3358 25.4199 17.5548 27.5428 19.413 28.7827C18.3158 28.7528 17.2423 28.4564 16.2853 27.9189V28.0112C16.2853 31.3636 18.6711 34.157 21.832 34.7856C21.252 34.9493 20.6425 35.0294 20.0138 35.0294C19.5663 35.0294 19.1292 34.9894 18.7129 34.9075C19.1565 36.281 20.0172 37.482 21.1752 38.3434C22.3332 39.2049 23.7309 39.684 25.1739 39.7141C22.7253 41.6357 19.7009 42.6768 16.5883 42.6694C16.031 42.6694 15.4825 42.6398 14.9443 42.5788C18.1046 44.6103 21.7827 45.6895 25.5396 45.6874" fill="white"/>
</g>
<defs>
<linearGradient id="paint0_linear_581_8839" x1="78.1471" y1="286.944" x2="-39.8476" y2="270.915" gradientUnits="userSpaceOnUse">
<stop stop-color="#268AFF"/>
<stop offset="1" stop-color="#1ED6FF"/>
</linearGradient>
</defs>
</svg>
