<svg width="195" height="35" viewBox="0 0 195 35" fill="none" xmlns="http://www.w3.org/2000/svg">
<path fill-rule="evenodd" clip-rule="evenodd" d="M30.0772 1.74344C33.0617 0.566255 34.984 1.42585 39.8016 6.21206L40.1308 6.54072C45.489 11.9129 46.6081 13.5739 46.8514 16.5122L46.8675 16.731C47.0787 19.9854 45.8311 22.0267 40.4279 27.3549L39.582 28.1842C34.7094 32.9366 33.4989 33.6125 30.2684 32.7989C28.9074 32.4561 27.7764 31.6369 26.4642 30.2932L26.3059 30.1295L24.3551 27.8893L34.7065 17.4053L29.0043 11.5544C26.507 9.00819 24.4687 7.03187 24.3435 7.04332L24.3359 7.04505V7.01665L24.342 7.02343L26.6878 4.42421C27.9412 3.19084 29.4668 1.98409 30.0772 1.74344Z" fill="url(#paint0_linear_714_9108)"/>
<path fill-rule="evenodd" clip-rule="evenodd" d="M30.0772 1.74344C33.0617 0.566255 34.984 1.42585 39.8016 6.21206L40.1309 6.54072C41.6933 8.84778 39.8852 12.4694 34.7065 17.4053L29.0043 11.5544C26.507 9.00819 24.4687 7.03187 24.3435 7.04331L24.3359 7.04505V7.01665L24.342 7.02343L26.6878 4.42421C27.9412 3.19084 29.4668 1.98409 30.0772 1.74344Z" fill="url(#paint1_linear_714_9108)"/>
<path fill-rule="evenodd" clip-rule="evenodd" d="M16.8124 32.767C13.8279 33.9442 11.9056 33.0846 7.088 28.2983L6.75879 27.9697C1.40076 22.5975 0.281478 20.9365 0.0381742 17.9982L0.0219724 17.7794C-0.189083 14.525 1.05855 12.4837 6.46171 7.15557L7.30759 6.32619C12.1803 1.57375 13.3907 0.897938 16.6212 1.71152C17.9822 2.05433 19.1133 2.87346 20.4254 4.21717L20.5837 4.38093L22.5346 6.6211L12.1831 17.1051L17.8853 22.956C20.3826 25.5022 22.4209 27.4786 22.5461 27.4671L22.5537 27.4653V27.4938L22.5476 27.4869L20.2017 30.0862C18.9484 31.3196 17.4229 32.5263 16.8124 32.767Z" fill="url(#paint2_linear_714_9108)"/>
<path fill-rule="evenodd" clip-rule="evenodd" d="M16.8077 32.7674C13.8233 33.9446 11.901 33.085 7.08335 28.2987L6.75414 27.9701C5.19172 25.663 6.9998 22.0415 12.1784 17.1055L17.8807 22.9564C20.3779 25.5026 22.4162 27.479 22.5415 27.4675L22.549 27.4657V27.4942L22.543 27.4874L20.1971 30.0866C18.9438 31.32 17.4182 32.5267 16.8077 32.7674Z" fill="url(#paint3_linear_714_9108)"/>
<path d="M62.75 10.6695V7.01506H79.9681V10.6695H73.5496V27.9795H69.1685V10.6695H62.75ZM85.7511 12.2562L88.6379 17.7532L91.5964 12.2562H96.0696L91.5146 20.1178L96.1925 27.9795H91.7397L88.6379 22.5439L85.5875 27.9795H81.0834L85.7511 20.1178L81.247 12.2562H85.7511ZM98.9433 27.9795V7.01506H107.214C108.804 7.01506 110.159 7.31871 111.278 7.9261C112.397 8.52665 113.25 9.36261 113.837 10.4341C114.431 11.4987 114.728 12.727 114.728 14.1192C114.728 15.5114 114.428 16.7398 113.827 17.8044C113.227 18.8689 112.356 19.6981 111.217 20.2919C110.084 20.8855 108.712 21.1824 107.102 21.1824H101.83V17.6303H106.385C107.238 17.6303 107.941 17.4836 108.494 17.1902C109.054 16.8899 109.47 16.477 109.743 15.9515C110.023 15.4192 110.163 14.8085 110.163 14.1192C110.163 13.4231 110.023 12.8158 109.743 12.2971C109.47 11.7716 109.054 11.3656 108.494 11.0789C107.934 10.7855 107.224 10.6388 106.365 10.6388H103.376V27.9795H98.9433ZM117.727 27.9795V12.2562H122.088V27.9795H117.727ZM119.918 10.2293C119.269 10.2293 118.713 10.0143 118.249 9.5844C117.792 9.14764 117.563 8.62559 117.563 8.01821C117.563 7.4177 117.792 6.90243 118.249 6.4725C118.713 6.03574 119.269 5.81738 119.918 5.81738C120.566 5.81738 121.119 6.03574 121.576 6.4725C122.04 6.90243 122.272 7.4177 122.272 8.01821C122.272 8.62559 122.04 9.14764 121.576 9.5844C121.119 10.0143 120.566 10.2293 119.918 10.2293ZM125.782 33.8757V12.2562H130.082V14.8972H130.276C130.468 14.4741 130.744 14.0441 131.106 13.6074C131.474 13.1638 131.952 12.7953 132.539 12.5018C133.133 12.2016 133.869 12.0514 134.75 12.0514C135.896 12.0514 136.954 12.3517 137.923 12.9522C138.892 13.546 139.667 14.4434 140.247 15.6445C140.827 16.8387 141.117 18.3366 141.117 20.1383C141.117 21.8922 140.834 23.373 140.267 24.581C139.708 25.782 138.943 26.6931 137.974 27.3141C137.012 27.9283 135.934 28.2354 134.74 28.2354C133.893 28.2354 133.173 28.0955 132.58 27.8157C131.993 27.5359 131.512 27.1844 131.137 26.7613C130.761 26.3314 130.474 25.8981 130.276 25.4613H130.143V33.8757H125.782ZM130.051 20.1178C130.051 21.0527 130.181 21.8683 130.44 22.5644C130.699 23.2604 131.075 23.803 131.566 24.1919C132.058 24.5741 132.655 24.7652 133.358 24.7652C134.067 24.7652 134.668 24.5707 135.159 24.1817C135.651 23.7859 136.023 23.24 136.275 22.5439C136.535 21.841 136.664 21.0323 136.664 20.1178C136.664 19.2102 136.538 18.4117 136.285 17.7225C136.033 17.0332 135.661 16.4941 135.17 16.1051C134.678 15.7161 134.074 15.5216 133.358 15.5216C132.648 15.5216 132.047 15.7093 131.556 16.0846C131.072 16.46 130.699 16.9922 130.44 17.6815C130.181 18.3708 130.051 19.1829 130.051 20.1178ZM151.391 28.2866C149.774 28.2866 148.382 27.959 147.215 27.3038C146.055 26.6419 145.161 25.707 144.533 24.4991C143.905 23.2843 143.591 21.8478 143.591 20.1895C143.591 18.5721 143.905 17.1526 144.533 15.9311C145.161 14.7095 146.045 13.7575 147.184 13.0751C148.331 12.3927 149.675 12.0514 151.218 12.0514C152.255 12.0514 153.22 12.2186 154.114 12.553C155.015 12.8806 155.8 13.3753 156.469 14.0373C157.144 14.6993 157.67 15.5319 158.045 16.535C158.421 17.5314 158.608 18.6984 158.608 20.0359V21.2336H145.332V18.5311H154.503C154.503 17.9033 154.367 17.3471 154.094 16.8626C153.821 16.3781 153.442 15.9993 152.958 15.7263C152.48 15.4465 151.924 15.3066 151.289 15.3066C150.627 15.3066 150.04 15.4602 149.528 15.7673C149.024 16.0676 148.628 16.4736 148.341 16.9854C148.054 17.4904 147.908 18.0535 147.901 18.6745V21.2438C147.901 22.0218 148.044 22.694 148.331 23.2604C148.624 23.8269 149.037 24.2636 149.57 24.5707C150.102 24.8778 150.733 25.0314 151.463 25.0314C151.948 25.0314 152.392 24.9631 152.794 24.8266C153.197 24.6901 153.541 24.4854 153.828 24.2124C154.114 23.9395 154.333 23.6051 154.483 23.2093L158.516 23.4754C158.311 24.4445 157.892 25.2907 157.257 26.014C156.629 26.7306 155.817 27.2902 154.821 27.6929C153.831 28.0887 152.688 28.2866 151.391 28.2866ZM164.205 28.2456C163.529 28.2456 162.949 28.0068 162.465 27.5291C161.987 27.0445 161.748 26.4644 161.748 25.7889C161.748 25.1201 161.987 24.5468 162.465 24.0691C162.949 23.5914 163.529 23.3525 164.205 23.3525C164.86 23.3525 165.433 23.5914 165.925 24.0691C166.416 24.5468 166.662 25.1201 166.662 25.7889C166.662 26.2393 166.546 26.6521 166.314 27.0275C166.088 27.396 165.791 27.6929 165.423 27.918C165.054 28.1364 164.648 28.2456 164.205 28.2456ZM170.443 27.9795V12.2562H174.804V27.9795H170.443ZM172.634 10.2293C171.986 10.2293 171.429 10.0143 170.966 9.5844C170.508 9.14764 170.28 8.62559 170.28 8.01821C170.28 7.4177 170.508 6.90243 170.966 6.4725C171.429 6.03574 171.986 5.81738 172.634 5.81738C173.282 5.81738 173.835 6.03574 174.293 6.4725C174.756 6.90243 174.989 7.4177 174.989 8.01821C174.989 8.62559 174.756 9.14764 174.293 9.5844C173.835 10.0143 173.282 10.2293 172.634 10.2293ZM185.603 28.2866C184.013 28.2866 182.638 27.9488 181.478 27.2731C180.325 26.5907 179.434 25.6421 178.806 24.4274C178.179 23.2058 177.864 21.7898 177.864 20.1792C177.864 18.555 178.179 17.1356 178.806 15.9208C179.434 14.6993 180.325 13.7507 181.478 13.0751C182.638 12.3927 184.013 12.0514 185.603 12.0514C187.193 12.0514 188.565 12.3927 189.718 13.0751C190.879 13.7507 191.773 14.6993 192.4 15.9208C193.028 17.1356 193.342 18.555 193.342 20.1792C193.342 21.7898 193.028 23.2058 192.4 24.4274C191.773 25.6421 190.879 26.5907 189.718 27.2731C188.565 27.9488 187.193 28.2866 185.603 28.2866ZM185.624 24.9085C186.347 24.9085 186.951 24.7038 187.436 24.2943C187.921 23.878 188.285 23.3116 188.531 22.5951C188.784 21.8785 188.91 21.063 188.91 20.1485C188.91 19.2341 188.784 18.4185 188.531 17.702C188.285 16.9854 187.921 16.419 187.436 16.0027C186.951 15.5865 186.347 15.3783 185.624 15.3783C184.894 15.3783 184.28 15.5865 183.781 16.0027C183.29 16.419 182.918 16.9854 182.666 17.702C182.42 18.4185 182.297 19.2341 182.297 20.1485C182.297 21.063 182.42 21.8785 182.666 22.5951C182.918 23.3116 183.29 23.878 183.781 24.2943C184.28 24.7038 184.894 24.9085 185.624 24.9085Z" fill="white"/>
<defs>
<linearGradient id="paint0_linear_714_9108" x1="31.828" y1="26.1466" x2="43.0104" y2="20.8175" gradientUnits="userSpaceOnUse">
<stop stop-color="#FF0065"/>
<stop offset="1" stop-color="#DD61FC"/>
</linearGradient>
<linearGradient id="paint1_linear_714_9108" x1="32.505" y1="8.56402" x2="39.4911" y2="9.35788" gradientUnits="userSpaceOnUse">
<stop stop-color="#B10151"/>
<stop offset="1" stop-color="#750126"/>
</linearGradient>
<linearGradient id="paint2_linear_714_9108" x1="14.9543" y1="7.72362" x2="5.80303" y2="12.7584" gradientUnits="userSpaceOnUse">
<stop stop-color="#80F3FD"/>
<stop offset="1" stop-color="#00D0FF"/>
</linearGradient>
<linearGradient id="paint3_linear_714_9108" x1="17.2666" y1="25.1724" x2="10.0117" y2="23.3425" gradientUnits="userSpaceOnUse">
<stop stop-color="#0080BB"/>
<stop offset="1" stop-color="#004985"/>
</linearGradient>
</defs>
</svg>
