<svg width="300" height="70" viewBox="0 0 300 70" fill="none" xmlns="http://www.w3.org/2000/svg">
<path fill-rule="evenodd" clip-rule="evenodd" d="M46.2644 10.9429C50.8559 9.13183 53.8133 10.4543 61.225 17.8177L61.7315 18.3233C69.9748 26.5883 71.6965 29.1435 72.0709 33.664L72.0957 34.0007C72.4204 39.0074 70.5011 42.1479 62.1886 50.3451L60.8871 51.621C53.3908 58.9324 51.5286 59.9722 46.5586 58.7205C44.4647 58.1931 42.7246 56.9329 40.7059 54.8657L40.4624 54.6137L37.4611 51.1673L53.3864 35.0381L44.6138 26.0367C40.7717 22.1194 37.636 19.0789 37.4432 19.0965L37.4316 19.0992V19.0555L37.4409 19.066L41.05 15.0671C42.9782 13.1697 45.3252 11.3131 46.2644 10.9429Z" fill="url(#paint0_linear_581_8922)"/>
<path fill-rule="evenodd" clip-rule="evenodd" d="M46.2644 10.9429C50.8559 9.13183 53.8133 10.4543 61.225 17.8177L61.7315 18.3233C64.1352 21.8726 61.3535 27.4443 53.3864 35.0381L44.6138 26.0367C40.7717 22.1194 37.636 19.0789 37.4432 19.0965L37.4316 19.0992V19.0555L37.4409 19.066L41.05 15.0671C42.9782 13.1696 45.3252 11.3131 46.2644 10.9429Z" fill="url(#paint1_linear_581_8922)"/>
<path fill-rule="evenodd" clip-rule="evenodd" d="M25.8652 58.6745C21.2737 60.4856 18.3164 59.1631 10.9046 51.7997L10.3981 51.2941C2.15502 43.0292 0.433043 40.4739 0.0587295 35.9534L0.0338038 35.6168C-0.290897 30.61 1.62854 27.4695 9.94109 19.2724L11.2424 17.9964C18.7389 10.685 20.6011 9.64526 25.5711 10.8969C27.6649 11.4243 29.405 12.6845 31.4237 14.7518L31.6673 15.0037L34.6686 18.4501L18.7432 34.5793L27.5159 43.5807C31.3578 47.498 34.4937 50.5385 34.6863 50.5209L34.6979 50.5182V50.5619L34.6887 50.5514L31.0796 54.5502C29.1514 56.4478 26.8044 58.3043 25.8652 58.6745Z" fill="url(#paint2_linear_581_8922)"/>
<path fill-rule="evenodd" clip-rule="evenodd" d="M25.8653 58.6743C21.2738 60.4854 18.3164 59.1629 10.9047 51.7995L10.3982 51.2939C7.99448 47.7445 10.7761 42.1729 18.7432 34.5791L27.5159 43.5805C31.3579 47.4978 34.4937 50.5383 34.6864 50.5207L34.698 50.518V50.5617L34.6887 50.5512L31.0797 54.55C29.1515 56.4476 26.8045 58.3041 25.8653 58.6743Z" fill="url(#paint3_linear_581_8922)"/>
<path d="M96.5293 24.6738V19.0516H123.019V24.6738H113.144V51.3045H106.404V24.6738H96.5293ZM131.916 27.1148L136.357 35.5717L140.908 27.1148H147.79L140.783 39.2096L147.979 51.3045H141.129L136.357 42.9421L131.664 51.3045H124.735L131.916 39.2096L124.986 27.1148H131.916ZM152.211 51.3045V19.0516H164.936C167.382 19.0516 169.466 19.5187 171.188 20.4532C172.91 21.3771 174.222 22.6632 175.125 24.3115C176.038 25.9494 176.496 27.8392 176.496 29.981C176.496 32.1228 176.033 34.0126 175.11 35.6505C174.186 37.2883 172.847 38.564 171.094 39.4774C169.351 40.3908 167.241 40.8475 164.763 40.8475H156.653V35.3827H163.66C164.973 35.3827 166.054 35.157 166.905 34.7056C167.766 34.2436 168.406 33.6084 168.826 32.8C169.256 31.981 169.472 31.0414 169.472 29.981C169.472 28.9101 169.256 27.9757 168.826 27.1778C168.406 26.3694 167.766 25.7446 166.905 25.3037C166.044 24.8523 164.951 24.6265 163.629 24.6265H159.03V51.3045H152.211ZM181.109 51.3045V27.1148H187.818V51.3045H181.109ZM184.48 23.9965C183.482 23.9965 182.626 23.6658 181.913 23.0044C181.209 22.3325 180.857 21.5293 180.857 20.5949C180.857 19.671 181.209 18.8783 181.913 18.2169C182.626 17.5449 183.482 17.209 184.48 17.209C185.477 17.209 186.327 17.5449 187.031 18.2169C187.744 18.8783 188.102 19.671 188.102 20.5949C188.102 21.5293 187.744 22.3325 187.031 23.0044C186.327 23.6658 185.477 23.9965 184.48 23.9965ZM193.502 60.3757V27.1148H200.117V31.1779H200.416C200.71 30.527 201.135 29.8655 201.692 29.1936C202.259 28.5112 202.993 27.9442 203.897 27.4927C204.81 27.0308 205.944 26.7998 207.298 26.7998C209.062 26.7998 210.69 27.2618 212.181 28.1857C213.671 29.0991 214.863 30.4797 215.755 32.3275C216.648 34.1649 217.094 36.4694 217.094 39.2411C217.094 41.9394 216.658 44.2177 215.786 46.076C214.926 47.9238 213.75 49.3254 212.259 50.2808C210.778 51.2258 209.12 51.6982 207.283 51.6982C205.98 51.6982 204.873 51.483 203.96 51.0525C203.057 50.6221 202.316 50.0814 201.739 49.4304C201.161 48.769 200.721 48.1023 200.416 47.4304H200.211V60.3757H193.502ZM200.07 39.2096C200.07 40.648 200.269 41.9026 200.668 42.9736C201.067 44.0444 201.645 44.8791 202.401 45.4775C203.156 46.0655 204.075 46.3595 205.157 46.3595C206.248 46.3595 207.173 46.0602 207.928 45.4618C208.684 44.8529 209.256 44.0129 209.645 42.9421C210.044 41.8606 210.243 40.6165 210.243 39.2096C210.243 37.8132 210.049 36.5849 209.661 35.5245C209.272 34.4641 208.7 33.6346 207.944 33.0362C207.188 32.4378 206.259 32.1385 205.157 32.1385C204.065 32.1385 203.141 32.4273 202.385 33.0047C201.64 33.5822 201.067 34.4011 200.668 35.4615C200.269 36.5219 200.07 37.7713 200.07 39.2096ZM232.901 51.7769C230.413 51.7769 228.271 51.273 226.476 50.2651C224.691 49.2467 223.315 47.8083 222.349 45.95C221.383 44.0812 220.901 41.8711 220.901 39.3199C220.901 36.8316 221.383 34.6479 222.349 32.7685C223.315 30.8892 224.675 29.4246 226.428 28.3747C228.192 27.3248 230.26 26.7998 232.633 26.7998C234.229 26.7998 235.714 27.057 237.09 27.5715C238.476 28.0754 239.683 28.8366 240.712 29.855C241.751 30.8734 242.56 32.1543 243.137 33.6976C243.715 35.2305 244.003 37.0259 244.003 39.0837V40.9262H223.578V36.7686H237.688C237.688 35.8027 237.478 34.9471 237.058 34.2016C236.638 33.4562 236.056 32.8735 235.311 32.4535C234.576 32.023 233.72 31.8078 232.744 31.8078C231.725 31.8078 230.822 32.044 230.035 32.5165C229.258 32.9785 228.649 33.6032 228.208 34.3906C227.767 35.1675 227.541 36.0337 227.531 36.9891V40.942C227.531 42.1389 227.751 43.173 228.192 44.0444C228.643 44.9159 229.279 45.5878 230.098 46.0602C230.916 46.5327 231.888 46.769 233.011 46.769C233.756 46.769 234.439 46.664 235.058 46.454C235.678 46.244 236.208 45.929 236.649 45.509C237.09 45.0891 237.426 44.5747 237.657 43.9657L243.862 44.3752C243.547 45.866 242.901 47.1679 241.925 48.2808C240.959 49.3832 239.71 50.2441 238.177 50.8636C236.654 51.4725 234.896 51.7769 232.901 51.7769ZM252.613 51.7139C251.574 51.7139 250.682 51.3465 249.936 50.6116C249.201 49.8661 248.834 48.9737 248.834 47.9343C248.834 46.9054 249.201 46.0235 249.936 45.2886C250.682 44.5537 251.574 44.1862 252.613 44.1862C253.622 44.1862 254.503 44.5537 255.259 45.2886C256.015 46.0235 256.393 46.9054 256.393 47.9343C256.393 48.6273 256.215 49.2624 255.858 49.8399C255.511 50.4069 255.055 50.8636 254.488 51.21C253.92 51.546 253.296 51.7139 252.613 51.7139ZM262.211 51.3045V27.1148H268.92V51.3045H262.211ZM265.582 23.9965C264.584 23.9965 263.728 23.6658 263.015 23.0044C262.311 22.3325 261.96 21.5293 261.96 20.5949C261.96 19.671 262.311 18.8783 263.015 18.2169C263.728 17.5449 264.584 17.209 265.582 17.209C266.579 17.209 267.43 17.5449 268.133 18.2169C268.847 18.8783 269.204 19.671 269.204 20.5949C269.204 21.5293 268.847 22.3325 268.133 23.0044C267.43 23.6658 266.579 23.9965 265.582 23.9965ZM285.535 51.7769C283.088 51.7769 280.973 51.2573 279.188 50.2179C277.414 49.168 276.043 47.7086 275.078 45.8397C274.112 43.9604 273.628 41.7819 273.628 39.3041C273.628 36.8054 274.112 34.6216 275.078 32.7528C276.043 30.8734 277.414 29.4141 279.188 28.3747C280.973 27.3248 283.088 26.7998 285.535 26.7998C287.981 26.7998 290.091 27.3248 291.865 28.3747C293.65 29.4141 295.026 30.8734 295.991 32.7528C296.957 34.6216 297.441 36.8054 297.441 39.3041C297.441 41.7819 296.957 43.9604 295.991 45.8397C295.026 47.7086 293.65 49.168 291.865 50.2179C290.091 51.2573 287.981 51.7769 285.535 51.7769ZM285.566 46.58C286.679 46.58 287.608 46.265 288.354 45.635C289.099 44.9946 289.661 44.1232 290.038 43.0208C290.427 41.9184 290.621 40.6638 290.621 39.2569C290.621 37.85 290.427 36.5954 290.038 35.493C289.661 34.3906 289.099 33.5192 288.354 32.8788C287.608 32.2383 286.679 31.918 285.566 31.918C284.443 31.918 283.498 32.2383 282.731 32.8788C281.976 33.5192 281.403 34.3906 281.015 35.493C280.637 36.5954 280.448 37.85 280.448 39.2569C280.448 40.6638 280.637 41.9184 281.015 43.0208C281.403 44.1232 281.976 44.9946 282.731 45.635C283.498 46.265 284.443 46.58 285.566 46.58Z" fill="white"/>
<defs>
<linearGradient id="paint0_linear_581_8922" x1="48.9578" y1="48.4862" x2="66.1615" y2="40.2876" gradientUnits="userSpaceOnUse">
<stop stop-color="#FF0065"/>
<stop offset="1" stop-color="#DD61FC"/>
</linearGradient>
<linearGradient id="paint1_linear_581_8922" x1="49.9994" y1="21.4361" x2="60.7473" y2="22.6574" gradientUnits="userSpaceOnUse">
<stop stop-color="#B10151"/>
<stop offset="1" stop-color="#750126"/>
</linearGradient>
<linearGradient id="paint2_linear_581_8922" x1="23.0067" y1="20.1463" x2="8.92774" y2="27.8921" gradientUnits="userSpaceOnUse">
<stop stop-color="#80F3FD"/>
<stop offset="1" stop-color="#00D0FF"/>
</linearGradient>
<linearGradient id="paint3_linear_581_8922" x1="26.5712" y1="46.9898" x2="15.4099" y2="44.1746" gradientUnits="userSpaceOnUse">
<stop stop-color="#0080BB"/>
<stop offset="1" stop-color="#004985"/>
</linearGradient>
</defs>
</svg>
