<svg width="38" height="37" viewBox="0 0 38 37" fill="none" xmlns="http://www.w3.org/2000/svg">
<path fill-rule="evenodd" clip-rule="evenodd" d="M21.2032 21.3859C21.4836 21.7316 21.8199 22.1228 21.8199 22.1228C23.8849 22.0591 24.6791 20.7399 24.6791 20.7399C24.6791 17.8104 23.3336 15.4359 23.3336 15.4359C21.9881 14.4533 20.708 14.4805 20.708 14.4805L20.5772 14.6261C22.1657 15.0992 22.9038 15.7816 22.9038 15.7816C21.9321 15.2631 20.979 15.0083 20.0913 14.9082C19.4186 14.8354 18.7739 14.8536 18.2039 14.9264C18.1549 14.9264 18.1131 14.9333 18.066 14.9411L18.0451 14.9446C17.718 14.9718 16.9238 15.0902 15.924 15.5178C15.5783 15.6724 15.3727 15.7816 15.3727 15.7816C15.3727 15.7816 16.1483 15.0629 17.8302 14.5898L17.7367 14.4805C17.7367 14.4805 16.4566 14.4533 15.1111 15.4359C15.1111 15.4359 13.7656 17.8104 13.7656 20.7399C13.7656 20.7399 14.5505 22.0591 16.6155 22.1228C16.6155 22.1228 16.9612 21.7134 17.2415 21.3677C16.0548 21.022 15.6063 20.2941 15.6063 20.2941C15.6063 20.2941 15.6998 20.3578 15.868 20.4487C15.8773 20.4579 15.8867 20.467 15.9053 20.4761C15.9194 20.4852 15.9334 20.492 15.9474 20.4988C15.9614 20.5057 15.9755 20.5125 15.9894 20.5215C16.223 20.649 16.4566 20.749 16.6715 20.8309C17.0546 20.9764 17.5125 21.122 18.0451 21.2221C18.7458 21.3495 19.5681 21.3949 20.4651 21.2312C20.9042 21.1585 21.3528 21.031 21.8199 20.84C22.147 20.7218 22.5114 20.5489 22.8945 20.3032C22.8945 20.3032 22.4273 21.0493 21.2032 21.3859ZM16.522 18.884C16.522 18.329 16.9425 17.8741 17.4751 17.8741C18.0077 17.8741 18.4375 18.329 18.4282 18.884C18.4282 19.4389 18.0077 19.8938 17.4751 19.8938C16.9518 19.8938 16.522 19.4389 16.522 18.884ZM19.9325 18.884C19.9325 18.329 20.353 17.8741 20.8856 17.8741C21.4182 17.8741 21.8386 18.329 21.8386 18.884C21.8386 19.4389 21.4182 19.8938 20.8856 19.8938C20.3623 19.8938 19.9325 19.4389 19.9325 18.884Z" fill="white"/>
<path fill-rule="evenodd" clip-rule="evenodd" d="M32.0195 0.00390625C35.2448 0.00390625 37.8594 2.54969 37.8594 5.69007V30.7093C37.8594 33.8496 35.2448 36.3954 32.0195 36.3954H6.32422C3.09896 36.3954 0.484375 33.8496 0.484375 30.7093V5.69007C0.484375 2.54969 3.09896 0.00390625 6.32422 0.00390625H32.0195ZM12.9116 10.239H25.4322C26.488 10.239 27.3477 11.076 27.3477 12.1131V28.4347L25.3388 26.7062L24.2082 25.6871L23.0122 24.6045L23.5074 26.2876H12.9116C11.8557 26.2876 10.9961 25.4506 10.9961 24.4135V12.1131C10.9961 11.076 11.8557 10.239 12.9116 10.239Z" fill="white"/>
</svg>
