<svg width="39" height="37" viewBox="0 0 39 37" fill="none" xmlns="http://www.w3.org/2000/svg">
<path fill-rule="evenodd" clip-rule="evenodd" d="M6.55469 0.00390625H32.25C35.4753 0.00390625 38.0898 2.5497 38.0898 5.69007V30.7093C38.0898 33.8496 35.4753 36.3954 32.25 36.3954H6.55469C3.32944 36.3954 0.714844 33.8496 0.714844 30.7093V5.69007C0.714844 2.5497 3.32944 0.00390625 6.55469 0.00390625ZM12.0442 13.3095C12.1609 13.4232 12.2777 13.6507 12.2777 13.8781V21.8388C12.3945 22.18 12.2777 22.4074 12.0442 22.6349L10.0586 24.9093V25.2504H15.5481V24.9093L13.5625 22.6349C13.4457 22.4074 13.3289 22.18 13.3289 21.8388V14.9017L18.2344 25.2504H18.7016L22.9062 14.9017V23.2035C22.9062 23.4309 22.9062 23.5447 22.7894 23.6584L21.2711 25.1367V25.4779H28.6292V25.1367L27.2278 23.7721C27.1109 23.6584 27.1109 23.4309 27.1109 23.3172V13.0821C26.9942 12.8546 27.1109 12.7409 27.2278 12.6272L28.7461 11.2625V10.9213H23.607L19.8695 19.9055L15.6648 10.9213H10.2922V11.2625L12.0442 13.3095Z" fill="white"/>
</svg>
