<svg width="38" height="37" viewBox="0 0 38 37" fill="none" xmlns="http://www.w3.org/2000/svg">
<path fill-rule="evenodd" clip-rule="evenodd" d="M6.07422 0.00390625H31.7695C34.9948 0.00390625 37.6094 2.54969 37.6094 5.69007V30.7093C37.6094 33.8496 34.9948 36.3954 31.7695 36.3954H6.07422C2.84896 36.3954 0.234375 33.8496 0.234375 30.7093V5.69007C0.234375 2.54969 2.84896 0.00390625 6.07422 0.00390625ZM19.73 13.6591C18.0562 14.3369 14.7112 15.7399 9.69482 17.8679C8.88025 18.1833 8.45353 18.4919 8.41468 18.7936C8.34904 19.3035 9.00482 19.5042 9.89784 19.7777C10.0193 19.8148 10.1451 19.8534 10.2742 19.8942C11.1528 20.1724 12.3346 20.4976 12.9491 20.5106C13.5064 20.5223 14.1284 20.2985 14.8151 19.8394C19.5022 16.7588 21.9215 15.2018 22.0735 15.1682C22.1806 15.1445 22.3291 15.1147 22.4297 15.2019C22.5303 15.2889 22.5205 15.4538 22.5098 15.498C22.4449 15.7677 19.8706 18.0979 18.5385 19.3039C18.1231 19.6798 17.8286 19.9464 17.7684 20.0074C17.6334 20.1438 17.4959 20.2729 17.3638 20.3969C16.5476 21.163 15.9355 21.7376 17.3977 22.6758C18.1004 23.1267 18.6627 23.4995 19.2236 23.8715C19.8363 24.2777 20.4473 24.6828 21.2378 25.1875C21.4393 25.316 21.6317 25.4495 21.819 25.5796C22.532 26.0745 23.1725 26.5191 23.9639 26.4482C24.4237 26.407 24.8986 25.986 25.1398 24.7304C25.7099 21.7632 26.8304 15.334 27.0894 12.6846C27.112 12.4524 27.0835 12.1554 27.0606 12.025C27.0377 11.8946 26.9898 11.7088 26.8157 11.5713C26.6095 11.4084 26.2912 11.374 26.1489 11.3763C25.5016 11.3876 24.5087 11.7237 19.73 13.6591Z" fill="white"/>
</svg>
