<svg width="38" height="37" viewBox="0 0 38 37" fill="none" xmlns="http://www.w3.org/2000/svg">
<path fill-rule="evenodd" clip-rule="evenodd" d="M0 5.69007C0 2.54969 2.61459 0.00390625 5.83984 0.00390625H31.5352C34.7604 0.00390625 37.375 2.54969 37.375 5.69007V30.7093C37.375 33.8496 34.7604 36.3954 31.5352 36.3954H5.83984C2.61459 36.3954 0 33.8496 0 30.7093V5.69007ZM25.8121 13.0821C26.6297 12.9683 27.3305 12.8546 28.0312 12.5135C27.5641 13.3095 26.8633 13.9919 26.0457 14.4468C26.2793 19.7917 22.3082 25.5916 15.1836 25.5916C13.0813 25.5916 11.0957 24.9093 9.34375 23.8858C11.3293 24.1133 13.4316 23.5447 14.8333 22.5211C13.0813 22.5211 11.6797 21.3839 11.2125 19.9055C11.7965 20.0192 12.3805 19.9055 12.9645 19.7917C11.2125 19.3368 9.92778 17.7448 9.92778 16.0389C10.5117 16.2664 11.0957 16.4938 11.6797 16.4938C10.0445 15.3566 9.46055 13.1958 10.5117 11.4899C12.4973 13.7644 15.3004 15.2428 18.4539 15.3566C17.87 13.0821 19.7387 10.8077 22.1914 10.8077C23.2426 10.8077 24.2938 11.2625 24.9945 11.9448C25.9289 11.7174 26.7465 11.4899 27.4472 11.035C27.2136 11.9448 26.6297 12.6272 25.8121 13.0821Z" fill="white"/>
</svg>
